%TF.GenerationSoftware,KiCad,Pcbnew,4.0.7*%
%TF.CreationDate,2018-08-29T22:41:10+01:00*%
%TF.ProjectId,RGBToComposite,524742546F436F6D706F736974652E6B,rev?*%
%TF.FileFunction,Soldermask,Bot*%
%FSLAX46Y46*%
G04 Gerber Fmt 4.6, Leading zero omitted, Abs format (unit mm)*
G04 Created by KiCad (PCBNEW 4.0.7) date 08/29/18 22:41:10*
%MOMM*%
%LPD*%
G01*
G04 APERTURE LIST*
%ADD10C,0.150000*%
%ADD11C,1.100000*%
%ADD12C,2.899360*%
%ADD13C,1.400000*%
%ADD14R,2.127200X2.432000*%
%ADD15O,2.127200X2.432000*%
%ADD16R,1.600000X1.150000*%
%ADD17R,2.432000X2.127200*%
%ADD18O,2.432000X2.127200*%
%ADD19R,2.200000X2.200000*%
%ADD20R,1.150000X1.600000*%
%ADD21O,2.900000X1.400000*%
%ADD22O,1.400000X2.900000*%
%ADD23R,2.432000X2.432000*%
%ADD24O,2.432000X2.432000*%
%ADD25R,1.300000X1.600000*%
%ADD26R,1.960000X1.050000*%
%ADD27R,2.100000X2.100000*%
%ADD28O,2.100000X2.100000*%
G04 APERTURE END LIST*
D10*
X99060000Y-82550000D02*
X99060000Y-133350000D01*
X203200000Y-82550000D02*
X99060000Y-82550000D01*
X203200000Y-133350000D02*
X203200000Y-82550000D01*
X99060000Y-133350000D02*
X203200000Y-133350000D01*
D11*
X107620000Y-100860000D03*
D12*
X116950000Y-115065000D03*
X106790000Y-115065000D03*
D13*
X107230000Y-109190000D03*
X111150000Y-110470000D03*
X114490000Y-108810000D03*
X115900000Y-105990000D03*
X105730000Y-105840000D03*
D11*
X111090000Y-105470000D03*
X112960000Y-100920000D03*
D14*
X200650000Y-131640000D03*
D15*
X198110000Y-131640000D03*
X195570000Y-131640000D03*
X193030000Y-131640000D03*
X190490000Y-131640000D03*
X187950000Y-131640000D03*
X185410000Y-131640000D03*
X182870000Y-131640000D03*
X180330000Y-131640000D03*
X177790000Y-131640000D03*
X175250000Y-131640000D03*
X172710000Y-131640000D03*
X170170000Y-131640000D03*
X167630000Y-131640000D03*
X165090000Y-131640000D03*
X162550000Y-131640000D03*
X160010000Y-131640000D03*
X157470000Y-131640000D03*
X154930000Y-131640000D03*
X152390000Y-131640000D03*
X149850000Y-131640000D03*
X147310000Y-131640000D03*
X144770000Y-131640000D03*
X142230000Y-131640000D03*
X139690000Y-131640000D03*
X137150000Y-131640000D03*
X134610000Y-131640000D03*
X132070000Y-131640000D03*
X129530000Y-131640000D03*
X126990000Y-131640000D03*
X124450000Y-131640000D03*
X121910000Y-131640000D03*
X119370000Y-131640000D03*
X116830000Y-131640000D03*
X114290000Y-131640000D03*
X111750000Y-131640000D03*
X109210000Y-131640000D03*
X106670000Y-131640000D03*
X104130000Y-131640000D03*
X101590000Y-131640000D03*
D16*
X147670000Y-123740000D03*
X145770000Y-123740000D03*
X147080000Y-114860000D03*
X148980000Y-114860000D03*
X159260000Y-112600000D03*
X157360000Y-112600000D03*
X157150000Y-110460000D03*
X155250000Y-110460000D03*
X150310000Y-109420000D03*
X152210000Y-109420000D03*
X139420000Y-108940000D03*
X137520000Y-108940000D03*
D17*
X201430000Y-106380000D03*
D18*
X201430000Y-108920000D03*
X201430000Y-111460000D03*
X201430000Y-114000000D03*
X201430000Y-116540000D03*
X201430000Y-119080000D03*
D19*
X148903000Y-121731000D03*
X153983000Y-121731000D03*
X153983000Y-125922000D03*
X148903000Y-125922000D03*
D16*
X189930000Y-98600000D03*
X188030000Y-98600000D03*
X189930000Y-97190000D03*
X188030000Y-97190000D03*
D20*
X152070000Y-117340000D03*
X152070000Y-115440000D03*
D16*
X156620000Y-114290000D03*
X154720000Y-114290000D03*
D21*
X190009000Y-93160500D03*
D22*
X198010000Y-87890000D03*
D17*
X100970000Y-128690000D03*
D18*
X100970000Y-126150000D03*
X100970000Y-123610000D03*
X100970000Y-121070000D03*
X100970000Y-118530000D03*
X100970000Y-115990000D03*
X100970000Y-113450000D03*
X100970000Y-110910000D03*
D17*
X100970000Y-107340000D03*
D18*
X100970000Y-104800000D03*
X100970000Y-102260000D03*
X100970000Y-99720000D03*
X100970000Y-97180000D03*
D23*
X100920000Y-86865000D03*
D24*
X100920000Y-84325000D03*
D25*
X116845000Y-122840000D03*
X116845000Y-125040000D03*
X119520000Y-122815000D03*
X119520000Y-125015000D03*
X122020000Y-122765000D03*
X122020000Y-124965000D03*
X124620000Y-122740000D03*
X124620000Y-124940000D03*
X127020000Y-122715000D03*
X127020000Y-124915000D03*
X129620000Y-122715000D03*
X129620000Y-124915000D03*
X132145000Y-122715000D03*
X132145000Y-124915000D03*
X134795000Y-122590000D03*
X134795000Y-124790000D03*
D26*
X170420000Y-123690000D03*
X170420000Y-124640000D03*
X170420000Y-125590000D03*
X167720000Y-125590000D03*
X167720000Y-123690000D03*
D27*
X100870000Y-92790000D03*
D28*
X100870000Y-90250000D03*
M02*
