%TF.GenerationSoftware,KiCad,Pcbnew,4.0.7*%
%TF.CreationDate,2018-08-29T22:41:10+01:00*%
%TF.ProjectId,RGBToComposite,524742546F436F6D706F736974652E6B,rev?*%
%TF.FileFunction,Copper,L2,Bot,Signal*%
%FSLAX46Y46*%
G04 Gerber Fmt 4.6, Leading zero omitted, Abs format (unit mm)*
G04 Created by KiCad (PCBNEW 4.0.7) date 08/29/18 22:41:10*
%MOMM*%
%LPD*%
G01*
G04 APERTURE LIST*
%ADD10C,0.150000*%
%ADD11C,0.700000*%
%ADD12C,2.499360*%
%ADD13C,1.000000*%
%ADD14R,1.727200X2.032000*%
%ADD15O,1.727200X2.032000*%
%ADD16R,1.200000X0.750000*%
%ADD17R,2.032000X1.727200*%
%ADD18O,2.032000X1.727200*%
%ADD19R,1.800000X1.800000*%
%ADD20R,0.750000X1.200000*%
%ADD21O,2.500000X1.000000*%
%ADD22O,1.000000X2.500000*%
%ADD23R,2.032000X2.032000*%
%ADD24O,2.032000X2.032000*%
%ADD25R,0.900000X1.200000*%
%ADD26R,1.560000X0.650000*%
%ADD27R,1.700000X1.700000*%
%ADD28O,1.700000X1.700000*%
%ADD29C,0.300000*%
%ADD30C,0.200000*%
%ADD31C,0.400000*%
%ADD32C,0.152400*%
%ADD33C,0.254000*%
G04 APERTURE END LIST*
D10*
X99060000Y-82550000D02*
X99060000Y-133350000D01*
X203200000Y-82550000D02*
X99060000Y-82550000D01*
X203200000Y-133350000D02*
X203200000Y-82550000D01*
X99060000Y-133350000D02*
X203200000Y-133350000D01*
D11*
X107620000Y-100860000D03*
X104170000Y-100860000D03*
D12*
X116950000Y-115065000D03*
X106790000Y-115065000D03*
D13*
X107230000Y-109190000D03*
X111150000Y-110470000D03*
X114490000Y-108810000D03*
X115900000Y-105990000D03*
X105730000Y-105840000D03*
D11*
X111090000Y-105470000D03*
X112960000Y-100920000D03*
X136670000Y-105215000D03*
X130520000Y-105215000D03*
X201005000Y-87225000D03*
X192930000Y-84800000D03*
X192895000Y-120065000D03*
X185005000Y-116465000D03*
X187330000Y-115265000D03*
X186880000Y-118490000D03*
X173505000Y-120215000D03*
X110140000Y-100890000D03*
X108350000Y-98410000D03*
X104945000Y-98315000D03*
X104945000Y-98315000D03*
X107495000Y-89065000D03*
X107495000Y-89065000D03*
X104770000Y-94790000D03*
X103670000Y-89140000D03*
X111220000Y-95540000D03*
X104770000Y-94790000D03*
X108320000Y-95465000D03*
X126495000Y-98440000D03*
X129620000Y-95565000D03*
X123920000Y-95365000D03*
X121345000Y-98440000D03*
X124920000Y-89765000D03*
X123995000Y-93715000D03*
X154820000Y-112390000D03*
X153745000Y-119340000D03*
X154495000Y-118540000D03*
X145070000Y-89565000D03*
X166640000Y-92665000D03*
X159390000Y-89440000D03*
X132895000Y-111540000D03*
X136870000Y-115190000D03*
X139320000Y-112965000D03*
X140645000Y-90690000D03*
X116620000Y-111640000D03*
X109220000Y-117765000D03*
X108545000Y-111715000D03*
X112895000Y-114865000D03*
X121845000Y-115765000D03*
X123345000Y-111565000D03*
X151120000Y-111640000D03*
X152245000Y-106615000D03*
X153420000Y-110665000D03*
X153545000Y-115665000D03*
X192420000Y-112840000D03*
X185370000Y-111890000D03*
X199670000Y-121990000D03*
X110595000Y-83740000D03*
X168820000Y-85530000D03*
X178545000Y-87140000D03*
X175980000Y-116890000D03*
X197720000Y-109390000D03*
X199370000Y-98590000D03*
X172120000Y-105040000D03*
X169320000Y-104980000D03*
X178040000Y-98560000D03*
X168930000Y-98440000D03*
X174470000Y-111190000D03*
X164350000Y-106210000D03*
X192570000Y-108110000D03*
X191790000Y-103580000D03*
X194580000Y-90450000D03*
X187150000Y-84080000D03*
X148840000Y-87265000D03*
X130320000Y-97340000D03*
X147770000Y-113290000D03*
X149320000Y-116390000D03*
X153190000Y-105540000D03*
X147570000Y-110700000D03*
X152570000Y-113465000D03*
X154545000Y-106490000D03*
X150445000Y-106565000D03*
X130270000Y-115840000D03*
X105045000Y-110090000D03*
D14*
X200650000Y-131640000D03*
D15*
X198110000Y-131640000D03*
X195570000Y-131640000D03*
X193030000Y-131640000D03*
X190490000Y-131640000D03*
X187950000Y-131640000D03*
X185410000Y-131640000D03*
X182870000Y-131640000D03*
X180330000Y-131640000D03*
X177790000Y-131640000D03*
X175250000Y-131640000D03*
X172710000Y-131640000D03*
X170170000Y-131640000D03*
X167630000Y-131640000D03*
X165090000Y-131640000D03*
X162550000Y-131640000D03*
X160010000Y-131640000D03*
X157470000Y-131640000D03*
X154930000Y-131640000D03*
X152390000Y-131640000D03*
X149850000Y-131640000D03*
X147310000Y-131640000D03*
X144770000Y-131640000D03*
X142230000Y-131640000D03*
X139690000Y-131640000D03*
X137150000Y-131640000D03*
X134610000Y-131640000D03*
X132070000Y-131640000D03*
X129530000Y-131640000D03*
X126990000Y-131640000D03*
X124450000Y-131640000D03*
X121910000Y-131640000D03*
X119370000Y-131640000D03*
X116830000Y-131640000D03*
X114290000Y-131640000D03*
X111750000Y-131640000D03*
X109210000Y-131640000D03*
X106670000Y-131640000D03*
X104130000Y-131640000D03*
X101590000Y-131640000D03*
D16*
X147670000Y-123740000D03*
X145770000Y-123740000D03*
X147080000Y-114860000D03*
X148980000Y-114860000D03*
X159260000Y-112600000D03*
X157360000Y-112600000D03*
X157150000Y-110460000D03*
X155250000Y-110460000D03*
X150310000Y-109420000D03*
X152210000Y-109420000D03*
X139420000Y-108940000D03*
X137520000Y-108940000D03*
D17*
X201430000Y-106380000D03*
D18*
X201430000Y-108920000D03*
X201430000Y-111460000D03*
X201430000Y-114000000D03*
X201430000Y-116540000D03*
X201430000Y-119080000D03*
D19*
X148903000Y-121731000D03*
X153983000Y-121731000D03*
X153983000Y-125922000D03*
X148903000Y-125922000D03*
D16*
X189930000Y-98600000D03*
X188030000Y-98600000D03*
X189930000Y-97190000D03*
X188030000Y-97190000D03*
D20*
X152070000Y-117340000D03*
X152070000Y-115440000D03*
D16*
X156620000Y-114290000D03*
X154720000Y-114290000D03*
D21*
X190009000Y-93160500D03*
D22*
X198010000Y-87890000D03*
D17*
X100970000Y-128690000D03*
D18*
X100970000Y-126150000D03*
X100970000Y-123610000D03*
X100970000Y-121070000D03*
X100970000Y-118530000D03*
X100970000Y-115990000D03*
X100970000Y-113450000D03*
X100970000Y-110910000D03*
D17*
X100970000Y-107340000D03*
D18*
X100970000Y-104800000D03*
X100970000Y-102260000D03*
X100970000Y-99720000D03*
X100970000Y-97180000D03*
D23*
X100920000Y-86865000D03*
D24*
X100920000Y-84325000D03*
D25*
X116845000Y-122840000D03*
X116845000Y-125040000D03*
X119520000Y-122815000D03*
X119520000Y-125015000D03*
X122020000Y-122765000D03*
X122020000Y-124965000D03*
X124620000Y-122740000D03*
X124620000Y-124940000D03*
X127020000Y-122715000D03*
X127020000Y-124915000D03*
X129620000Y-122715000D03*
X129620000Y-124915000D03*
X132145000Y-122715000D03*
X132145000Y-124915000D03*
X134795000Y-122590000D03*
X134795000Y-124790000D03*
D26*
X170420000Y-123690000D03*
X170420000Y-124640000D03*
X170420000Y-125590000D03*
X167720000Y-125590000D03*
X167720000Y-123690000D03*
D27*
X100870000Y-92790000D03*
D28*
X100870000Y-90250000D03*
D13*
X141170000Y-108990000D03*
X148910000Y-108810000D03*
X161070000Y-112600000D03*
X158890000Y-110450000D03*
X145630000Y-113950000D03*
X152420000Y-120790000D03*
X156370000Y-115840000D03*
X143520000Y-130465000D03*
X156195000Y-130415000D03*
X143495000Y-126340000D03*
X128220000Y-112965000D03*
X158470000Y-126340000D03*
X170370000Y-118090000D03*
X189740000Y-112410000D03*
X189730000Y-108997590D03*
X191860000Y-98730000D03*
X199160000Y-126870000D03*
X196660000Y-126800000D03*
X193720000Y-126890000D03*
X190960000Y-126810000D03*
X188240000Y-126710000D03*
X185520000Y-126520000D03*
X183450000Y-126730000D03*
X180810000Y-126640000D03*
X152420000Y-122490000D03*
X144390000Y-112040002D03*
X134795000Y-126315000D03*
X132970000Y-126365000D03*
X130370000Y-126365000D03*
X127845000Y-126340000D03*
X125320000Y-126365000D03*
X122770000Y-126390000D03*
X120220000Y-126390000D03*
X117645000Y-126365000D03*
X108740000Y-123190000D03*
X114610000Y-123190000D03*
X113395000Y-122065000D03*
X106295000Y-122065000D03*
X167020000Y-115440000D03*
X163645000Y-116065000D03*
X169895000Y-114940000D03*
X147260000Y-103700000D03*
X162515802Y-117784198D03*
X164679615Y-117770385D03*
X155370000Y-123440000D03*
X152750000Y-102150000D03*
X196420000Y-101460000D03*
X149400000Y-101989998D03*
X193620000Y-95390000D03*
X171130000Y-83980000D03*
X197150000Y-104740000D03*
X115395000Y-103240000D03*
X117070000Y-102040000D03*
X119645000Y-99715000D03*
X122920000Y-89490000D03*
X122920000Y-97115000D03*
X127645000Y-87865000D03*
X111620000Y-88115000D03*
X155920000Y-125090000D03*
X153420000Y-124340000D03*
X151270000Y-124340000D03*
X156020000Y-117640000D03*
X162845000Y-112890000D03*
X172120000Y-120390000D03*
X135320000Y-96465000D03*
X131970000Y-96540000D03*
X124670000Y-91065000D03*
D29*
X152420000Y-118665000D02*
X152420000Y-117690000D01*
X152420000Y-117690000D02*
X152070000Y-117340000D01*
X152420000Y-120790000D02*
X152420000Y-118665000D01*
X152420000Y-118665000D02*
X152420000Y-118540000D01*
X152420000Y-118540000D02*
X155120000Y-115840000D01*
X155120000Y-115840000D02*
X156370000Y-115840000D01*
X158890000Y-110450000D02*
X158890000Y-110410000D01*
X149930000Y-107790000D02*
X148910000Y-108810000D01*
X156270000Y-107790000D02*
X149930000Y-107790000D01*
X158890000Y-110410000D02*
X156270000Y-107790000D01*
X161070000Y-112600000D02*
X161070000Y-112615000D01*
X161070000Y-112615000D02*
X157845000Y-115840000D01*
X157845000Y-115840000D02*
X156370000Y-115840000D01*
X141170000Y-108990000D02*
X139470000Y-108990000D01*
D30*
X139470000Y-108990000D02*
X139420000Y-108940000D01*
D29*
X161036000Y-112566000D02*
X161036000Y-112522000D01*
X161070000Y-112600000D02*
X161036000Y-112566000D01*
X157150000Y-110460000D02*
X157150000Y-110660000D01*
X150310000Y-109420000D02*
X149520000Y-109420000D01*
X149520000Y-109420000D02*
X148910000Y-108810000D01*
X148754000Y-108966000D02*
X148910000Y-108810000D01*
X148754000Y-108966000D02*
X141170000Y-108990000D01*
X158890000Y-110450000D02*
X158964000Y-110450000D01*
X158964000Y-110450000D02*
X161036000Y-112522000D01*
X147880000Y-123880000D02*
X147670000Y-123740000D01*
X147670000Y-123740000D02*
X148920000Y-123740000D01*
X148903000Y-121731000D02*
X148920000Y-123740000D01*
X148920000Y-123740000D02*
X148903000Y-125922000D01*
X147080000Y-114860000D02*
X147080000Y-115990000D01*
X148920000Y-117840000D02*
X148903000Y-121731000D01*
X147080000Y-115990000D02*
X148920000Y-117840000D01*
X156370000Y-115840000D02*
X156670000Y-114340000D01*
X156670000Y-114340000D02*
X156708000Y-114302000D01*
X158890000Y-110450000D02*
X157470000Y-110450000D01*
D30*
X157470000Y-110450000D02*
X157330000Y-110590000D01*
D29*
X161036000Y-112522000D02*
X159338000Y-112522000D01*
X159338000Y-112522000D02*
X159260000Y-112600000D01*
X157490000Y-110450000D02*
X157430000Y-110510000D01*
X145630000Y-113950000D02*
X146170000Y-113950000D01*
X146170000Y-113950000D02*
X147080000Y-114860000D01*
X141170000Y-108990000D02*
X141986000Y-110054000D01*
X141600000Y-110900000D02*
X144650000Y-113950000D01*
X141986000Y-110054000D02*
X141600000Y-110440000D01*
X141600000Y-110440000D02*
X141600000Y-110640000D01*
X141600000Y-110640000D02*
X141600000Y-110900000D01*
X144650000Y-113950000D02*
X145630000Y-113950000D01*
X137520000Y-108940000D02*
X137520000Y-107740000D01*
X137520000Y-107740000D02*
X137420000Y-107640000D01*
X137520000Y-108940000D02*
X136070000Y-108940000D01*
X136070000Y-108940000D02*
X135970000Y-109040000D01*
X170420000Y-125590000D02*
X172270000Y-125590000D01*
X172270000Y-125590000D02*
X172370000Y-125690000D01*
X160010000Y-131640000D02*
X160010000Y-130900000D01*
X160010000Y-130900000D02*
X160720000Y-130190000D01*
X160720000Y-130190000D02*
X197070000Y-130190000D01*
X160010000Y-131640000D02*
X160010000Y-131487600D01*
X153537000Y-121158000D02*
X154237000Y-121858000D01*
X133795000Y-116640000D02*
X130045000Y-112890000D01*
X128295000Y-112890000D02*
X128220000Y-112965000D01*
X130045000Y-112890000D02*
X128295000Y-112890000D01*
X133845000Y-117490000D02*
X133845000Y-116690000D01*
X132870000Y-118465000D02*
X133845000Y-117490000D01*
X133845000Y-116690000D02*
X133795000Y-116640000D01*
X134795000Y-122590000D02*
X134795000Y-120390000D01*
X134795000Y-120390000D02*
X132870000Y-118465000D01*
X132870000Y-118465000D02*
X132820000Y-118415000D01*
X132145000Y-122715000D02*
X132145000Y-119090000D01*
X132145000Y-119090000D02*
X132820000Y-118415000D01*
X129620000Y-122715000D02*
X129620000Y-119140000D01*
X129620000Y-119140000D02*
X130345000Y-118415000D01*
X127020000Y-122715000D02*
X127020000Y-119190000D01*
X127020000Y-119190000D02*
X127795000Y-118415000D01*
X124620000Y-122740000D02*
X124620000Y-119165000D01*
X124620000Y-119165000D02*
X125370000Y-118415000D01*
X122020000Y-122765000D02*
X122020000Y-119115000D01*
X122020000Y-119115000D02*
X122720000Y-118415000D01*
X119520000Y-122815000D02*
X119520000Y-119365000D01*
X119520000Y-119365000D02*
X120470000Y-118415000D01*
X116845000Y-122840000D02*
X116845000Y-120490000D01*
X118920000Y-118415000D02*
X120470000Y-118415000D01*
X120470000Y-118415000D02*
X122720000Y-118415000D01*
X122720000Y-118415000D02*
X125370000Y-118415000D01*
X125370000Y-118415000D02*
X127795000Y-118415000D01*
X127795000Y-118415000D02*
X130345000Y-118415000D01*
X130345000Y-118415000D02*
X132820000Y-118415000D01*
X116845000Y-120490000D02*
X118920000Y-118415000D01*
X143520000Y-130465000D02*
X143820000Y-130165000D01*
X143820000Y-130165000D02*
X155945000Y-130165000D01*
X155945000Y-130165000D02*
X156195000Y-130415000D01*
X135470000Y-118315000D02*
X143495000Y-126340000D01*
X135470000Y-118315000D02*
X133795000Y-116640000D01*
X157470000Y-131640000D02*
X157470000Y-131534991D01*
X128220000Y-112965000D02*
X128219409Y-112889942D01*
X157470000Y-131640000D02*
X157470000Y-131459991D01*
D31*
X167720000Y-123690000D02*
X169070000Y-123690000D01*
X158470000Y-126340000D02*
X158720000Y-126590000D01*
X158720000Y-126590000D02*
X168420000Y-126590000D01*
X168420000Y-126590000D02*
X169070000Y-125940000D01*
X169070000Y-125940000D02*
X169070000Y-123690000D01*
X169070000Y-119390000D02*
X170370000Y-118090000D01*
X169070000Y-123690000D02*
X169070000Y-119390000D01*
D29*
X157480000Y-131630000D02*
X157470000Y-131640000D01*
D31*
X189740000Y-112410000D02*
X189740000Y-109007590D01*
X189740000Y-109007590D02*
X189730000Y-108997590D01*
X189960000Y-98680000D02*
X189960000Y-97400000D01*
D29*
X189960000Y-97400000D02*
X189990000Y-97370000D01*
D31*
X191860000Y-98730000D02*
X191810000Y-98680000D01*
X191810000Y-98680000D02*
X189960000Y-98680000D01*
D30*
X109195000Y-129657589D02*
X101737589Y-129657589D01*
X101737589Y-129657589D02*
X100745000Y-128665000D01*
X196372411Y-129657589D02*
X199160000Y-126870000D01*
X109163589Y-129657589D02*
X109195000Y-129657589D01*
X109195000Y-129657589D02*
X196372411Y-129657589D01*
X109470000Y-129305178D02*
X103925178Y-129305178D01*
X103925178Y-129305178D02*
X100745000Y-126125000D01*
X109451750Y-129305178D02*
X109470000Y-129305178D01*
X109470000Y-129305178D02*
X194154822Y-129305178D01*
X194154822Y-129305178D02*
X196660000Y-126800000D01*
X106120000Y-128952767D02*
X105632767Y-128952767D01*
X105632767Y-128952767D02*
X100745000Y-124065000D01*
X100745000Y-124065000D02*
X100745000Y-123585000D01*
X109645000Y-128952767D02*
X106120000Y-128952767D01*
X106120000Y-128952767D02*
X106112767Y-128952767D01*
X109597722Y-128952767D02*
X109645000Y-128952767D01*
X109645000Y-128952767D02*
X191657233Y-128952767D01*
X191657233Y-128952767D02*
X193720000Y-126890000D01*
X108320000Y-128600356D02*
X106880356Y-128600356D01*
X102345000Y-122645000D02*
X100745000Y-121045000D01*
X102345000Y-124065000D02*
X102345000Y-122645000D01*
X106880356Y-128600356D02*
X102345000Y-124065000D01*
X109820000Y-128600356D02*
X108320000Y-128600356D01*
X108320000Y-128600356D02*
X108300356Y-128600356D01*
X109743694Y-128600356D02*
X109820000Y-128600356D01*
X109820000Y-128600356D02*
X189169644Y-128600356D01*
X189169644Y-128600356D02*
X190960000Y-126810000D01*
X109877945Y-128247945D02*
X107402945Y-128247945D01*
X109920000Y-128247945D02*
X109877945Y-128247945D01*
X102920000Y-120680000D02*
X100745000Y-118505000D01*
X102920000Y-123765000D02*
X102920000Y-120680000D01*
X107402945Y-128247945D02*
X102920000Y-123765000D01*
X100745000Y-119115000D02*
X100745000Y-118505000D01*
X109889666Y-128247945D02*
X109920000Y-128247945D01*
X109920000Y-128247945D02*
X186702055Y-128247945D01*
X186702055Y-128247945D02*
X188240000Y-126710000D01*
X110070000Y-127895534D02*
X107900534Y-127895534D01*
X103520000Y-118740000D02*
X100745000Y-115965000D01*
X103520000Y-123515000D02*
X103520000Y-118740000D01*
X107900534Y-127895534D02*
X103520000Y-123515000D01*
X184144466Y-127895534D02*
X185520000Y-126520000D01*
X110035638Y-127895534D02*
X110070000Y-127895534D01*
X110070000Y-127895534D02*
X184144466Y-127895534D01*
X110245000Y-127543123D02*
X108448123Y-127543123D01*
X104170000Y-116850000D02*
X100745000Y-113425000D01*
X104170000Y-123265000D02*
X104170000Y-116850000D01*
X108448123Y-127543123D02*
X104170000Y-123265000D01*
X110181611Y-127543123D02*
X110245000Y-127543123D01*
X110245000Y-127543123D02*
X182636877Y-127543123D01*
X182636877Y-127543123D02*
X183450000Y-126730000D01*
X110670000Y-127180000D02*
X108985000Y-127180000D01*
X104795000Y-114935000D02*
X100745000Y-110885000D01*
X104795000Y-122990000D02*
X104795000Y-114935000D01*
X108985000Y-127180000D02*
X104795000Y-122990000D01*
X180270000Y-127180000D02*
X180810000Y-126640000D01*
X110520000Y-127180000D02*
X110670000Y-127180000D01*
X110670000Y-127180000D02*
X180270000Y-127180000D01*
X100745000Y-110885000D02*
X100897400Y-110885000D01*
X114290000Y-131640000D02*
X114290000Y-131850000D01*
X114290000Y-131850000D02*
X115380000Y-132940000D01*
X115380000Y-132940000D02*
X161250000Y-132940000D01*
X161250000Y-132940000D02*
X162550000Y-131640000D01*
D32*
X114290000Y-131640000D02*
X114290000Y-131660000D01*
D29*
X148490002Y-112040002D02*
X144390000Y-112040002D01*
X150670000Y-120590000D02*
X150670000Y-114090000D01*
X150670000Y-114090000D02*
X148490002Y-112040002D01*
X152420000Y-122350000D02*
X150670000Y-120590000D01*
X152420000Y-122490000D02*
X152420000Y-122350000D01*
D30*
X134795000Y-124790000D02*
X134795000Y-126315000D01*
X132145000Y-124915000D02*
X132145000Y-125540000D01*
X132145000Y-125540000D02*
X132970000Y-126365000D01*
X129620000Y-124915000D02*
X129620000Y-125615000D01*
X129620000Y-125615000D02*
X130370000Y-126365000D01*
X127020000Y-124915000D02*
X127020000Y-125515000D01*
X127020000Y-125515000D02*
X127845000Y-126340000D01*
X124620000Y-124940000D02*
X124620000Y-125665000D01*
X124620000Y-125665000D02*
X125320000Y-126365000D01*
X122020000Y-124965000D02*
X122020000Y-125640000D01*
X122020000Y-125640000D02*
X122770000Y-126390000D01*
X119520000Y-125015000D02*
X119520000Y-125690000D01*
X119520000Y-125690000D02*
X120220000Y-126390000D01*
X116845000Y-125040000D02*
X116845000Y-125565000D01*
X116845000Y-125565000D02*
X117645000Y-126365000D01*
X108740000Y-123190000D02*
X114610000Y-123190000D01*
X113395000Y-122065000D02*
X106295000Y-122065000D01*
X166395000Y-116065000D02*
X167020000Y-115440000D01*
X163645000Y-116065000D02*
X166395000Y-116065000D01*
X163658283Y-116065000D02*
X163645000Y-116065000D01*
X170882392Y-115052500D02*
X170007500Y-115052500D01*
X170007500Y-115052500D02*
X169895000Y-114940000D01*
X196256000Y-111506000D02*
X201384000Y-111506000D01*
X201384000Y-111506000D02*
X201430000Y-111460000D01*
X196256000Y-111506000D02*
X188092000Y-119670000D01*
X188092000Y-119670000D02*
X175459998Y-119670000D01*
X169925000Y-114910000D02*
X169895000Y-114940000D01*
X175459998Y-119670000D02*
X170882392Y-115052500D01*
X170882392Y-115052500D02*
X170870000Y-115040000D01*
X194214384Y-114046000D02*
X201384000Y-114046000D01*
X201384000Y-114046000D02*
X201430000Y-114000000D01*
X171504025Y-116212411D02*
X169192411Y-116212411D01*
X169192411Y-116212411D02*
X156680000Y-103700000D01*
X194214384Y-114046000D02*
X188237973Y-120022411D01*
X175314024Y-120022410D02*
X171504025Y-116212411D01*
X188237973Y-120022411D02*
X175314024Y-120022410D01*
X156680000Y-103700000D02*
X147260000Y-103700000D01*
X162515802Y-117784198D02*
X163475802Y-117784198D01*
X164695178Y-116564822D02*
X169046438Y-116564822D01*
X163475802Y-117784198D02*
X164695178Y-116564822D01*
X201384000Y-116586000D02*
X192172768Y-116586000D01*
X171358052Y-116564822D02*
X169046438Y-116564822D01*
X175168050Y-120374820D02*
X171358052Y-116564822D01*
X188383945Y-120374821D02*
X175168050Y-120374820D01*
X192172768Y-116586000D02*
X188383945Y-120374821D01*
X169046438Y-116564822D02*
X166386794Y-116564820D01*
X201384000Y-116586000D02*
X201430000Y-116540000D01*
X201384000Y-119126000D02*
X190131151Y-119126000D01*
X167078921Y-117770385D02*
X164679615Y-117770385D01*
X175022076Y-120727230D02*
X171212079Y-116917233D01*
X167932076Y-116917232D02*
X167078921Y-117770385D01*
X171212079Y-116917233D02*
X167932076Y-116917232D01*
X190131151Y-119126000D02*
X188529917Y-120727231D01*
X188529917Y-120727231D02*
X175022076Y-120727230D01*
X201384000Y-119126000D02*
X201430000Y-119080000D01*
D29*
X153983000Y-125922000D02*
X155433000Y-123503000D01*
X155433000Y-123503000D02*
X155370000Y-123440000D01*
X152750000Y-102150000D02*
X195730000Y-102150000D01*
X195730000Y-102150000D02*
X196420000Y-101460000D01*
X155999998Y-95390000D02*
X149400000Y-101989998D01*
X193620000Y-95390000D02*
X155999998Y-95390000D01*
X184240000Y-83980000D02*
X197649999Y-97389999D01*
X197649999Y-104240001D02*
X197150000Y-104740000D01*
X171130000Y-83980000D02*
X184240000Y-83980000D01*
X197649999Y-97389999D02*
X197649999Y-104240001D01*
X100901000Y-104594000D02*
X112670000Y-104590000D01*
X112670000Y-104590000D02*
X115395000Y-103240000D01*
D30*
X100901000Y-104594000D02*
X100745000Y-104750000D01*
D29*
X100901000Y-102054000D02*
X107270000Y-102065000D01*
X107270000Y-102065000D02*
X117070000Y-102040000D01*
D30*
X100901000Y-102054000D02*
X100745000Y-102210000D01*
D29*
X103220000Y-99665000D02*
X100745000Y-99670000D01*
X103220000Y-99665000D02*
X119645000Y-99715000D01*
D30*
X100901000Y-99514000D02*
X100745000Y-99670000D01*
D29*
X100745000Y-97130000D02*
X122905000Y-97130000D01*
X122905000Y-97130000D02*
X122920000Y-97115000D01*
D30*
X100901000Y-96974000D02*
X100745000Y-97130000D01*
D29*
X127645000Y-87865000D02*
X127395000Y-88115000D01*
X127395000Y-88115000D02*
X111620000Y-88115000D01*
X167720000Y-125590000D02*
X166120000Y-125590000D01*
X153420000Y-124340000D02*
X151270000Y-124340000D01*
X165620000Y-125090000D02*
X155920000Y-125090000D01*
X166120000Y-125590000D02*
X165620000Y-125090000D01*
X158095000Y-117640000D02*
X156020000Y-117640000D01*
X162845000Y-112890000D02*
X158095000Y-117640000D01*
X171770000Y-124640000D02*
X170420000Y-124640000D01*
X172170000Y-124240000D02*
X171770000Y-124640000D01*
X172170000Y-120440000D02*
X172170000Y-124240000D01*
X172120000Y-120390000D02*
X172170000Y-120440000D01*
X135320000Y-96465000D02*
X135245000Y-96540000D01*
X135245000Y-96540000D02*
X131970000Y-96540000D01*
X102145000Y-92790000D02*
X100695000Y-92790000D01*
X103870000Y-91065000D02*
X102145000Y-92790000D01*
X124670000Y-91065000D02*
X103870000Y-91065000D01*
D33*
G36*
X200185585Y-120139670D02*
X200671766Y-120464526D01*
X201245255Y-120578600D01*
X201614745Y-120578600D01*
X202188234Y-120464526D01*
X202490000Y-120262892D01*
X202490000Y-132640000D01*
X202161040Y-132640000D01*
X202161040Y-130624000D01*
X202116762Y-130388683D01*
X201977690Y-130172559D01*
X201765490Y-130027569D01*
X201513600Y-129976560D01*
X199786400Y-129976560D01*
X199551083Y-130020838D01*
X199334959Y-130159910D01*
X199189969Y-130372110D01*
X199181600Y-130413439D01*
X199169670Y-130395585D01*
X198683489Y-130070729D01*
X198110000Y-129956655D01*
X197536511Y-130070729D01*
X197050330Y-130395585D01*
X196840000Y-130710366D01*
X196629670Y-130395585D01*
X196567199Y-130353843D01*
X196653683Y-130336640D01*
X196892134Y-130177312D01*
X199064529Y-128004918D01*
X199384775Y-128005197D01*
X199802086Y-127832767D01*
X200121645Y-127513765D01*
X200294803Y-127096756D01*
X200295197Y-126645225D01*
X200122767Y-126227914D01*
X199803765Y-125908355D01*
X199386756Y-125735197D01*
X198935225Y-125734803D01*
X198517914Y-125907233D01*
X198198355Y-126226235D01*
X198025197Y-126643244D01*
X198024916Y-126965638D01*
X197674801Y-127315753D01*
X197794803Y-127026756D01*
X197795197Y-126575225D01*
X197622767Y-126157914D01*
X197303765Y-125838355D01*
X196886756Y-125665197D01*
X196435225Y-125664803D01*
X196017914Y-125837233D01*
X195698355Y-126156235D01*
X195525197Y-126573244D01*
X195524916Y-126895638D01*
X193850376Y-128570178D01*
X193079268Y-128570178D01*
X193624529Y-128024918D01*
X193944775Y-128025197D01*
X194362086Y-127852767D01*
X194681645Y-127533765D01*
X194854803Y-127116756D01*
X194855197Y-126665225D01*
X194682767Y-126247914D01*
X194363765Y-125928355D01*
X193946756Y-125755197D01*
X193495225Y-125754803D01*
X193077914Y-125927233D01*
X192758355Y-126246235D01*
X192585197Y-126663244D01*
X192584916Y-126985638D01*
X191352787Y-128217767D01*
X190591680Y-128217767D01*
X190864529Y-127944918D01*
X191184775Y-127945197D01*
X191602086Y-127772767D01*
X191921645Y-127453765D01*
X192094803Y-127036756D01*
X192095197Y-126585225D01*
X191922767Y-126167914D01*
X191603765Y-125848355D01*
X191186756Y-125675197D01*
X190735225Y-125674803D01*
X190317914Y-125847233D01*
X189998355Y-126166235D01*
X189825197Y-126583244D01*
X189824916Y-126905638D01*
X188865198Y-127865356D01*
X188124091Y-127865356D01*
X188144529Y-127844918D01*
X188464775Y-127845197D01*
X188882086Y-127672767D01*
X189201645Y-127353765D01*
X189374803Y-126936756D01*
X189375197Y-126485225D01*
X189202767Y-126067914D01*
X188883765Y-125748355D01*
X188466756Y-125575197D01*
X188015225Y-125574803D01*
X187597914Y-125747233D01*
X187278355Y-126066235D01*
X187105197Y-126483244D01*
X187104916Y-126805638D01*
X186397609Y-127512945D01*
X186089050Y-127512945D01*
X186162086Y-127482767D01*
X186481645Y-127163765D01*
X186654803Y-126746756D01*
X186655197Y-126295225D01*
X186482767Y-125877914D01*
X186163765Y-125558355D01*
X185746756Y-125385197D01*
X185295225Y-125384803D01*
X184877914Y-125557233D01*
X184558355Y-125876235D01*
X184441541Y-126157553D01*
X184412767Y-126087914D01*
X184093765Y-125768355D01*
X183676756Y-125595197D01*
X183225225Y-125594803D01*
X182807914Y-125767233D01*
X182488355Y-126086235D01*
X182315197Y-126503244D01*
X182314931Y-126808123D01*
X181944854Y-126808123D01*
X181945197Y-126415225D01*
X181772767Y-125997914D01*
X181453765Y-125678355D01*
X181036756Y-125505197D01*
X180585225Y-125504803D01*
X180167914Y-125677233D01*
X179848355Y-125996235D01*
X179675197Y-126413244D01*
X179675169Y-126445000D01*
X171568025Y-126445000D01*
X171738327Y-126274699D01*
X171835000Y-126041310D01*
X171835000Y-125875750D01*
X171676250Y-125717000D01*
X170547000Y-125717000D01*
X170547000Y-125737000D01*
X170293000Y-125737000D01*
X170293000Y-125717000D01*
X170273000Y-125717000D01*
X170273000Y-125612440D01*
X171200000Y-125612440D01*
X171435317Y-125568162D01*
X171598743Y-125463000D01*
X171676250Y-125463000D01*
X171714250Y-125425000D01*
X171770000Y-125425000D01*
X172070407Y-125365245D01*
X172325079Y-125195079D01*
X172725079Y-124795079D01*
X172819794Y-124653327D01*
X172895245Y-124540406D01*
X172955000Y-124240000D01*
X172955000Y-121160189D01*
X173081645Y-121033765D01*
X173254803Y-120616756D01*
X173255197Y-120165225D01*
X173138713Y-119883314D01*
X174502352Y-121246953D01*
X174740803Y-121406281D01*
X174784632Y-121414999D01*
X175022076Y-121462230D01*
X188529917Y-121462231D01*
X188811189Y-121406282D01*
X188840289Y-121386838D01*
X189049640Y-121246955D01*
X190435598Y-119861000D01*
X199999384Y-119861000D01*
X200185585Y-120139670D01*
X200185585Y-120139670D01*
G37*
X200185585Y-120139670D02*
X200671766Y-120464526D01*
X201245255Y-120578600D01*
X201614745Y-120578600D01*
X202188234Y-120464526D01*
X202490000Y-120262892D01*
X202490000Y-132640000D01*
X202161040Y-132640000D01*
X202161040Y-130624000D01*
X202116762Y-130388683D01*
X201977690Y-130172559D01*
X201765490Y-130027569D01*
X201513600Y-129976560D01*
X199786400Y-129976560D01*
X199551083Y-130020838D01*
X199334959Y-130159910D01*
X199189969Y-130372110D01*
X199181600Y-130413439D01*
X199169670Y-130395585D01*
X198683489Y-130070729D01*
X198110000Y-129956655D01*
X197536511Y-130070729D01*
X197050330Y-130395585D01*
X196840000Y-130710366D01*
X196629670Y-130395585D01*
X196567199Y-130353843D01*
X196653683Y-130336640D01*
X196892134Y-130177312D01*
X199064529Y-128004918D01*
X199384775Y-128005197D01*
X199802086Y-127832767D01*
X200121645Y-127513765D01*
X200294803Y-127096756D01*
X200295197Y-126645225D01*
X200122767Y-126227914D01*
X199803765Y-125908355D01*
X199386756Y-125735197D01*
X198935225Y-125734803D01*
X198517914Y-125907233D01*
X198198355Y-126226235D01*
X198025197Y-126643244D01*
X198024916Y-126965638D01*
X197674801Y-127315753D01*
X197794803Y-127026756D01*
X197795197Y-126575225D01*
X197622767Y-126157914D01*
X197303765Y-125838355D01*
X196886756Y-125665197D01*
X196435225Y-125664803D01*
X196017914Y-125837233D01*
X195698355Y-126156235D01*
X195525197Y-126573244D01*
X195524916Y-126895638D01*
X193850376Y-128570178D01*
X193079268Y-128570178D01*
X193624529Y-128024918D01*
X193944775Y-128025197D01*
X194362086Y-127852767D01*
X194681645Y-127533765D01*
X194854803Y-127116756D01*
X194855197Y-126665225D01*
X194682767Y-126247914D01*
X194363765Y-125928355D01*
X193946756Y-125755197D01*
X193495225Y-125754803D01*
X193077914Y-125927233D01*
X192758355Y-126246235D01*
X192585197Y-126663244D01*
X192584916Y-126985638D01*
X191352787Y-128217767D01*
X190591680Y-128217767D01*
X190864529Y-127944918D01*
X191184775Y-127945197D01*
X191602086Y-127772767D01*
X191921645Y-127453765D01*
X192094803Y-127036756D01*
X192095197Y-126585225D01*
X191922767Y-126167914D01*
X191603765Y-125848355D01*
X191186756Y-125675197D01*
X190735225Y-125674803D01*
X190317914Y-125847233D01*
X189998355Y-126166235D01*
X189825197Y-126583244D01*
X189824916Y-126905638D01*
X188865198Y-127865356D01*
X188124091Y-127865356D01*
X188144529Y-127844918D01*
X188464775Y-127845197D01*
X188882086Y-127672767D01*
X189201645Y-127353765D01*
X189374803Y-126936756D01*
X189375197Y-126485225D01*
X189202767Y-126067914D01*
X188883765Y-125748355D01*
X188466756Y-125575197D01*
X188015225Y-125574803D01*
X187597914Y-125747233D01*
X187278355Y-126066235D01*
X187105197Y-126483244D01*
X187104916Y-126805638D01*
X186397609Y-127512945D01*
X186089050Y-127512945D01*
X186162086Y-127482767D01*
X186481645Y-127163765D01*
X186654803Y-126746756D01*
X186655197Y-126295225D01*
X186482767Y-125877914D01*
X186163765Y-125558355D01*
X185746756Y-125385197D01*
X185295225Y-125384803D01*
X184877914Y-125557233D01*
X184558355Y-125876235D01*
X184441541Y-126157553D01*
X184412767Y-126087914D01*
X184093765Y-125768355D01*
X183676756Y-125595197D01*
X183225225Y-125594803D01*
X182807914Y-125767233D01*
X182488355Y-126086235D01*
X182315197Y-126503244D01*
X182314931Y-126808123D01*
X181944854Y-126808123D01*
X181945197Y-126415225D01*
X181772767Y-125997914D01*
X181453765Y-125678355D01*
X181036756Y-125505197D01*
X180585225Y-125504803D01*
X180167914Y-125677233D01*
X179848355Y-125996235D01*
X179675197Y-126413244D01*
X179675169Y-126445000D01*
X171568025Y-126445000D01*
X171738327Y-126274699D01*
X171835000Y-126041310D01*
X171835000Y-125875750D01*
X171676250Y-125717000D01*
X170547000Y-125717000D01*
X170547000Y-125737000D01*
X170293000Y-125737000D01*
X170293000Y-125717000D01*
X170273000Y-125717000D01*
X170273000Y-125612440D01*
X171200000Y-125612440D01*
X171435317Y-125568162D01*
X171598743Y-125463000D01*
X171676250Y-125463000D01*
X171714250Y-125425000D01*
X171770000Y-125425000D01*
X172070407Y-125365245D01*
X172325079Y-125195079D01*
X172725079Y-124795079D01*
X172819794Y-124653327D01*
X172895245Y-124540406D01*
X172955000Y-124240000D01*
X172955000Y-121160189D01*
X173081645Y-121033765D01*
X173254803Y-120616756D01*
X173255197Y-120165225D01*
X173138713Y-119883314D01*
X174502352Y-121246953D01*
X174740803Y-121406281D01*
X174784632Y-121414999D01*
X175022076Y-121462230D01*
X188529917Y-121462231D01*
X188811189Y-121406282D01*
X188840289Y-121386838D01*
X189049640Y-121246955D01*
X190435598Y-119861000D01*
X199999384Y-119861000D01*
X200185585Y-120139670D01*
G36*
X160137000Y-131513000D02*
X160157000Y-131513000D01*
X160157000Y-131767000D01*
X160137000Y-131767000D01*
X160137000Y-131787000D01*
X159883000Y-131787000D01*
X159883000Y-131767000D01*
X159863000Y-131767000D01*
X159863000Y-131513000D01*
X159883000Y-131513000D01*
X159883000Y-131493000D01*
X160137000Y-131493000D01*
X160137000Y-131513000D01*
X160137000Y-131513000D01*
G37*
X160137000Y-131513000D02*
X160157000Y-131513000D01*
X160157000Y-131767000D01*
X160137000Y-131767000D01*
X160137000Y-131787000D01*
X159883000Y-131787000D01*
X159883000Y-131767000D01*
X159863000Y-131767000D01*
X159863000Y-131513000D01*
X159883000Y-131513000D01*
X159883000Y-131493000D01*
X160137000Y-131493000D01*
X160137000Y-131513000D01*
G36*
X170168355Y-83336235D02*
X169995197Y-83753244D01*
X169994803Y-84204775D01*
X170167233Y-84622086D01*
X170486235Y-84941645D01*
X170903244Y-85114803D01*
X171354775Y-85115197D01*
X171772086Y-84942767D01*
X171950163Y-84765000D01*
X183914842Y-84765000D01*
X191325099Y-92175256D01*
X191230275Y-92111897D01*
X190795929Y-92025500D01*
X189222071Y-92025500D01*
X188787725Y-92111897D01*
X188419505Y-92357934D01*
X188173468Y-92726154D01*
X188087071Y-93160500D01*
X188173468Y-93594846D01*
X188419505Y-93963066D01*
X188787725Y-94209103D01*
X189222071Y-94295500D01*
X190795929Y-94295500D01*
X191230275Y-94209103D01*
X191598495Y-93963066D01*
X191844532Y-93594846D01*
X191930929Y-93160500D01*
X191844532Y-92726154D01*
X191781172Y-92631330D01*
X193404654Y-94254811D01*
X193395225Y-94254803D01*
X192977914Y-94427233D01*
X192799837Y-94605000D01*
X155999998Y-94605000D01*
X155699592Y-94664755D01*
X155444919Y-94834921D01*
X149424821Y-100855019D01*
X149175225Y-100854801D01*
X148757914Y-101027231D01*
X148438355Y-101346233D01*
X148265197Y-101763242D01*
X148264803Y-102214773D01*
X148437233Y-102632084D01*
X148756235Y-102951643D01*
X148788402Y-102965000D01*
X148130015Y-102965000D01*
X147903765Y-102738355D01*
X147486756Y-102565197D01*
X147035225Y-102564803D01*
X146617914Y-102737233D01*
X146298355Y-103056235D01*
X146125197Y-103473244D01*
X146124803Y-103924775D01*
X146297233Y-104342086D01*
X146616235Y-104661645D01*
X147033244Y-104834803D01*
X147484775Y-104835197D01*
X147902086Y-104662767D01*
X148130251Y-104435000D01*
X156375554Y-104435000D01*
X166406128Y-114465575D01*
X166377914Y-114477233D01*
X166058355Y-114796235D01*
X165885197Y-115213244D01*
X165885095Y-115330000D01*
X164515015Y-115330000D01*
X164288765Y-115103355D01*
X163871756Y-114930197D01*
X163420225Y-114929803D01*
X163002914Y-115102233D01*
X162683355Y-115421235D01*
X162510197Y-115838244D01*
X162509803Y-116289775D01*
X162658365Y-116649322D01*
X162291027Y-116649001D01*
X161873716Y-116821431D01*
X161554157Y-117140433D01*
X161380999Y-117557442D01*
X161380605Y-118008973D01*
X161553035Y-118426284D01*
X161872037Y-118745843D01*
X162289046Y-118919001D01*
X162740577Y-118919395D01*
X163157888Y-118746965D01*
X163386053Y-118519198D01*
X163475802Y-118519198D01*
X163757074Y-118463249D01*
X163763351Y-118459055D01*
X164035850Y-118732030D01*
X164452859Y-118905188D01*
X164904390Y-118905582D01*
X165321701Y-118733152D01*
X165549866Y-118505385D01*
X167078921Y-118505385D01*
X167360193Y-118449436D01*
X167487168Y-118364594D01*
X167598644Y-118290109D01*
X168236522Y-117652232D01*
X169322817Y-117652232D01*
X169235197Y-117863244D01*
X169235039Y-118044093D01*
X168479566Y-118799566D01*
X168298561Y-119070459D01*
X168235000Y-119390000D01*
X168235000Y-122717560D01*
X166940000Y-122717560D01*
X166704683Y-122761838D01*
X166488559Y-122900910D01*
X166343569Y-123113110D01*
X166292560Y-123365000D01*
X166292560Y-124015000D01*
X166336838Y-124250317D01*
X166475910Y-124466441D01*
X166688110Y-124611431D01*
X166825120Y-124639176D01*
X166704683Y-124661838D01*
X166488559Y-124800910D01*
X166485764Y-124805000D01*
X166445158Y-124805000D01*
X166175079Y-124534921D01*
X165920407Y-124364755D01*
X165620000Y-124305000D01*
X156740102Y-124305000D01*
X156563765Y-124128355D01*
X156349989Y-124039587D01*
X156504803Y-123666756D01*
X156505197Y-123215225D01*
X156332767Y-122797914D01*
X156013765Y-122478355D01*
X155596756Y-122305197D01*
X155518000Y-122305128D01*
X155518000Y-122016750D01*
X155359250Y-121858000D01*
X154110000Y-121858000D01*
X154110000Y-123107250D01*
X154235180Y-123232430D01*
X154234903Y-123549792D01*
X154063765Y-123378355D01*
X153725398Y-123237852D01*
X153856000Y-123107250D01*
X153856000Y-121858000D01*
X153836000Y-121858000D01*
X153836000Y-121604000D01*
X153856000Y-121604000D01*
X153856000Y-120354750D01*
X154110000Y-120354750D01*
X154110000Y-121604000D01*
X155359250Y-121604000D01*
X155518000Y-121445250D01*
X155518000Y-120704690D01*
X155421327Y-120471301D01*
X155242698Y-120292673D01*
X155009309Y-120196000D01*
X154268750Y-120196000D01*
X154110000Y-120354750D01*
X153856000Y-120354750D01*
X153697250Y-120196000D01*
X153402636Y-120196000D01*
X153382767Y-120147914D01*
X153205000Y-119969837D01*
X153205000Y-118865158D01*
X155047300Y-117022858D01*
X154885197Y-117413244D01*
X154884803Y-117864775D01*
X155057233Y-118282086D01*
X155376235Y-118601645D01*
X155793244Y-118774803D01*
X156244775Y-118775197D01*
X156662086Y-118602767D01*
X156840163Y-118425000D01*
X158095000Y-118425000D01*
X158395407Y-118365245D01*
X158650079Y-118195079D01*
X162820179Y-114024979D01*
X163069775Y-114025197D01*
X163487086Y-113852767D01*
X163806645Y-113533765D01*
X163979803Y-113116756D01*
X163980197Y-112665225D01*
X163807767Y-112247914D01*
X163488765Y-111928355D01*
X163071756Y-111755197D01*
X162620225Y-111754803D01*
X162202914Y-111927233D01*
X162073478Y-112056443D01*
X162032767Y-111957914D01*
X161713765Y-111638355D01*
X161296756Y-111465197D01*
X161089173Y-111465016D01*
X160025044Y-110400886D01*
X160025197Y-110225225D01*
X159852767Y-109807914D01*
X159533765Y-109488355D01*
X159116756Y-109315197D01*
X158905170Y-109315012D01*
X156825079Y-107234921D01*
X156570407Y-107064755D01*
X156270000Y-107005000D01*
X149930000Y-107005000D01*
X149629594Y-107064755D01*
X149374921Y-107234921D01*
X148934821Y-107675021D01*
X148685225Y-107674803D01*
X148267914Y-107847233D01*
X147948355Y-108166235D01*
X147941158Y-108183568D01*
X141987516Y-108202409D01*
X141813765Y-108028355D01*
X141396756Y-107855197D01*
X140945225Y-107854803D01*
X140527914Y-108027233D01*
X140458769Y-108096258D01*
X140271890Y-107968569D01*
X140020000Y-107917560D01*
X138820000Y-107917560D01*
X138584683Y-107961838D01*
X138481354Y-108028329D01*
X138479698Y-108026673D01*
X138246309Y-107930000D01*
X137805750Y-107930000D01*
X137647000Y-108088750D01*
X137647000Y-108813000D01*
X137667000Y-108813000D01*
X137667000Y-109067000D01*
X137647000Y-109067000D01*
X137647000Y-109791250D01*
X137805750Y-109950000D01*
X138246309Y-109950000D01*
X138479698Y-109853327D01*
X138481068Y-109851957D01*
X138568110Y-109911431D01*
X138820000Y-109962440D01*
X140020000Y-109962440D01*
X140255317Y-109918162D01*
X140399922Y-109825111D01*
X140526235Y-109951645D01*
X140897366Y-110105753D01*
X140874755Y-110139593D01*
X140832026Y-110354407D01*
X140815000Y-110440000D01*
X140815000Y-110900000D01*
X140874755Y-111200407D01*
X141044921Y-111455079D01*
X144094921Y-114505079D01*
X144349593Y-114675245D01*
X144650000Y-114735000D01*
X144809898Y-114735000D01*
X144986235Y-114911645D01*
X145403244Y-115084803D01*
X145832560Y-115085178D01*
X145832560Y-115235000D01*
X145876838Y-115470317D01*
X146015910Y-115686441D01*
X146228110Y-115831431D01*
X146295000Y-115844977D01*
X146295000Y-115990000D01*
X146324688Y-116139250D01*
X146353944Y-116288440D01*
X146354543Y-116289342D01*
X146354755Y-116290406D01*
X146439267Y-116416888D01*
X146523419Y-116543573D01*
X148133583Y-118162488D01*
X148124753Y-120183560D01*
X148003000Y-120183560D01*
X147767683Y-120227838D01*
X147551559Y-120366910D01*
X147406569Y-120579110D01*
X147355560Y-120831000D01*
X147355560Y-122631000D01*
X147371847Y-122717560D01*
X147070000Y-122717560D01*
X146834683Y-122761838D01*
X146731354Y-122828329D01*
X146729698Y-122826673D01*
X146496309Y-122730000D01*
X146055750Y-122730000D01*
X145897000Y-122888750D01*
X145897000Y-123613000D01*
X145917000Y-123613000D01*
X145917000Y-123867000D01*
X145897000Y-123867000D01*
X145897000Y-124591250D01*
X146055750Y-124750000D01*
X146496309Y-124750000D01*
X146729698Y-124653327D01*
X146731068Y-124651957D01*
X146818110Y-124711431D01*
X147070000Y-124762440D01*
X147411810Y-124762440D01*
X147406569Y-124770110D01*
X147355560Y-125022000D01*
X147355560Y-126445000D01*
X144629909Y-126445000D01*
X144630197Y-126115225D01*
X144457767Y-125697914D01*
X144138765Y-125378355D01*
X143721756Y-125205197D01*
X143470135Y-125204977D01*
X142290908Y-124025750D01*
X144535000Y-124025750D01*
X144535000Y-124241310D01*
X144631673Y-124474699D01*
X144810302Y-124653327D01*
X145043691Y-124750000D01*
X145484250Y-124750000D01*
X145643000Y-124591250D01*
X145643000Y-123867000D01*
X144693750Y-123867000D01*
X144535000Y-124025750D01*
X142290908Y-124025750D01*
X141503848Y-123238690D01*
X144535000Y-123238690D01*
X144535000Y-123454250D01*
X144693750Y-123613000D01*
X145643000Y-123613000D01*
X145643000Y-122888750D01*
X145484250Y-122730000D01*
X145043691Y-122730000D01*
X144810302Y-122826673D01*
X144631673Y-123005301D01*
X144535000Y-123238690D01*
X141503848Y-123238690D01*
X130600079Y-112334921D01*
X130345407Y-112164755D01*
X130045000Y-112105000D01*
X128965233Y-112105000D01*
X128863765Y-112003355D01*
X128446756Y-111830197D01*
X127995225Y-111829803D01*
X127577914Y-112002233D01*
X127258355Y-112321235D01*
X127085197Y-112738244D01*
X127084803Y-113189775D01*
X127257233Y-113607086D01*
X127576235Y-113926645D01*
X127993244Y-114099803D01*
X128444775Y-114100197D01*
X128862086Y-113927767D01*
X129115294Y-113675000D01*
X129719842Y-113675000D01*
X133060000Y-117015158D01*
X133060000Y-117164842D01*
X132594842Y-117630000D01*
X127795005Y-117630000D01*
X127795000Y-117629999D01*
X127794995Y-117630000D01*
X118920000Y-117630000D01*
X118619593Y-117689755D01*
X118364921Y-117859921D01*
X116289921Y-119934921D01*
X116119755Y-120189593D01*
X116099251Y-120292673D01*
X116060000Y-120490000D01*
X116060000Y-121700982D01*
X115943559Y-121775910D01*
X115798569Y-121988110D01*
X115747560Y-122240000D01*
X115747560Y-123440000D01*
X115791838Y-123675317D01*
X115930910Y-123891441D01*
X116000711Y-123939134D01*
X115943559Y-123975910D01*
X115798569Y-124188110D01*
X115747560Y-124440000D01*
X115747560Y-125640000D01*
X115791838Y-125875317D01*
X115930910Y-126091441D01*
X116143110Y-126236431D01*
X116395000Y-126287440D01*
X116510067Y-126287440D01*
X116509929Y-126445000D01*
X109289447Y-126445000D01*
X106027210Y-123182764D01*
X106068244Y-123199803D01*
X106519775Y-123200197D01*
X106937086Y-123027767D01*
X107165251Y-122800000D01*
X107672982Y-122800000D01*
X107605197Y-122963244D01*
X107604803Y-123414775D01*
X107777233Y-123832086D01*
X108096235Y-124151645D01*
X108513244Y-124324803D01*
X108964775Y-124325197D01*
X109382086Y-124152767D01*
X109610251Y-123925000D01*
X113739985Y-123925000D01*
X113966235Y-124151645D01*
X114383244Y-124324803D01*
X114834775Y-124325197D01*
X115252086Y-124152767D01*
X115571645Y-123833765D01*
X115744803Y-123416756D01*
X115745197Y-122965225D01*
X115572767Y-122547914D01*
X115253765Y-122228355D01*
X114836756Y-122055197D01*
X114530010Y-122054929D01*
X114530197Y-121840225D01*
X114357767Y-121422914D01*
X114038765Y-121103355D01*
X113621756Y-120930197D01*
X113170225Y-120929803D01*
X112752914Y-121102233D01*
X112524749Y-121330000D01*
X107165015Y-121330000D01*
X106938765Y-121103355D01*
X106521756Y-120930197D01*
X106070225Y-120929803D01*
X105652914Y-121102233D01*
X105530000Y-121224933D01*
X105530000Y-116504608D01*
X105636518Y-116398090D01*
X105765725Y-116690859D01*
X106465883Y-116959071D01*
X107215384Y-116938928D01*
X107814275Y-116690859D01*
X107943483Y-116398089D01*
X106790000Y-115244605D01*
X106775858Y-115258748D01*
X106596252Y-115079142D01*
X106610395Y-115065000D01*
X106969605Y-115065000D01*
X108123089Y-116218483D01*
X108415859Y-116089275D01*
X108665252Y-115438241D01*
X115064994Y-115438241D01*
X115351314Y-116131191D01*
X115881021Y-116661822D01*
X116573469Y-116949352D01*
X117323241Y-116950006D01*
X118016191Y-116663686D01*
X118546822Y-116133979D01*
X118834352Y-115441531D01*
X118835006Y-114691759D01*
X118548686Y-113998809D01*
X118018979Y-113468178D01*
X117326531Y-113180648D01*
X116576759Y-113179994D01*
X115883809Y-113466314D01*
X115353178Y-113996021D01*
X115065648Y-114688469D01*
X115064994Y-115438241D01*
X108665252Y-115438241D01*
X108684071Y-115389117D01*
X108663928Y-114639616D01*
X108415859Y-114040725D01*
X108123089Y-113911517D01*
X106969605Y-115065000D01*
X106610395Y-115065000D01*
X105456911Y-113911517D01*
X105164141Y-114040725D01*
X105102108Y-114202661D01*
X104631358Y-113731911D01*
X105636517Y-113731911D01*
X106790000Y-114885395D01*
X107943483Y-113731911D01*
X107814275Y-113439141D01*
X107114117Y-113170929D01*
X106364616Y-113191072D01*
X105765725Y-113439141D01*
X105636517Y-113731911D01*
X104631358Y-113731911D01*
X102476652Y-111577205D01*
X102539271Y-111483489D01*
X102653345Y-110910000D01*
X102610535Y-110694775D01*
X110014803Y-110694775D01*
X110187233Y-111112086D01*
X110506235Y-111431645D01*
X110923244Y-111604803D01*
X111374775Y-111605197D01*
X111792086Y-111432767D01*
X112111645Y-111113765D01*
X112284803Y-110696756D01*
X112285197Y-110245225D01*
X112112767Y-109827914D01*
X111793765Y-109508355D01*
X111376756Y-109335197D01*
X110925225Y-109334803D01*
X110507914Y-109507233D01*
X110188355Y-109826235D01*
X110015197Y-110243244D01*
X110014803Y-110694775D01*
X102610535Y-110694775D01*
X102539271Y-110336511D01*
X102214415Y-109850330D01*
X101728234Y-109525474D01*
X101171713Y-109414775D01*
X106094803Y-109414775D01*
X106267233Y-109832086D01*
X106586235Y-110151645D01*
X107003244Y-110324803D01*
X107454775Y-110325197D01*
X107872086Y-110152767D01*
X108191645Y-109833765D01*
X108364803Y-109416756D01*
X108365136Y-109034775D01*
X113354803Y-109034775D01*
X113527233Y-109452086D01*
X113846235Y-109771645D01*
X114263244Y-109944803D01*
X114714775Y-109945197D01*
X115132086Y-109772767D01*
X115451645Y-109453765D01*
X115546325Y-109225750D01*
X136285000Y-109225750D01*
X136285000Y-109441310D01*
X136381673Y-109674699D01*
X136560302Y-109853327D01*
X136793691Y-109950000D01*
X137234250Y-109950000D01*
X137393000Y-109791250D01*
X137393000Y-109067000D01*
X136443750Y-109067000D01*
X136285000Y-109225750D01*
X115546325Y-109225750D01*
X115624803Y-109036756D01*
X115625197Y-108585225D01*
X115564650Y-108438690D01*
X136285000Y-108438690D01*
X136285000Y-108654250D01*
X136443750Y-108813000D01*
X137393000Y-108813000D01*
X137393000Y-108088750D01*
X137234250Y-107930000D01*
X136793691Y-107930000D01*
X136560302Y-108026673D01*
X136381673Y-108205301D01*
X136285000Y-108438690D01*
X115564650Y-108438690D01*
X115452767Y-108167914D01*
X115133765Y-107848355D01*
X114716756Y-107675197D01*
X114265225Y-107674803D01*
X113847914Y-107847233D01*
X113528355Y-108166235D01*
X113355197Y-108583244D01*
X113354803Y-109034775D01*
X108365136Y-109034775D01*
X108365197Y-108965225D01*
X108192767Y-108547914D01*
X107873765Y-108228355D01*
X107456756Y-108055197D01*
X107005225Y-108054803D01*
X106587914Y-108227233D01*
X106268355Y-108546235D01*
X106095197Y-108963244D01*
X106094803Y-109414775D01*
X101171713Y-109414775D01*
X101154745Y-109411400D01*
X100785255Y-109411400D01*
X100211766Y-109525474D01*
X99770000Y-109820653D01*
X99770000Y-108813779D01*
X99954000Y-108851040D01*
X101986000Y-108851040D01*
X102221317Y-108806762D01*
X102437441Y-108667690D01*
X102582431Y-108455490D01*
X102633440Y-108203600D01*
X102633440Y-106476400D01*
X102589162Y-106241083D01*
X102450090Y-106024959D01*
X102237890Y-105879969D01*
X102196561Y-105871600D01*
X102214415Y-105859670D01*
X102535960Y-105378444D01*
X104692999Y-105377711D01*
X104595197Y-105613244D01*
X104594803Y-106064775D01*
X104767233Y-106482086D01*
X105086235Y-106801645D01*
X105503244Y-106974803D01*
X105954775Y-106975197D01*
X106372086Y-106802767D01*
X106691645Y-106483765D01*
X106864803Y-106066756D01*
X106865197Y-105615225D01*
X106766767Y-105377006D01*
X110105082Y-105375872D01*
X110104830Y-105665069D01*
X110254471Y-106027229D01*
X110531314Y-106304555D01*
X110893212Y-106454828D01*
X111285069Y-106455170D01*
X111647229Y-106305529D01*
X111738141Y-106214775D01*
X114764803Y-106214775D01*
X114937233Y-106632086D01*
X115256235Y-106951645D01*
X115673244Y-107124803D01*
X116124775Y-107125197D01*
X116542086Y-106952767D01*
X116861645Y-106633765D01*
X117034803Y-106216756D01*
X117035197Y-105765225D01*
X116862767Y-105347914D01*
X116543765Y-105028355D01*
X116126756Y-104855197D01*
X115675225Y-104854803D01*
X115257914Y-105027233D01*
X114938355Y-105346235D01*
X114765197Y-105763244D01*
X114764803Y-106214775D01*
X111738141Y-106214775D01*
X111924555Y-106028686D01*
X112074828Y-105666788D01*
X112075082Y-105375202D01*
X112670267Y-105375000D01*
X112696373Y-105369798D01*
X112722769Y-105373224D01*
X112845736Y-105340035D01*
X112970653Y-105315143D01*
X112992780Y-105300347D01*
X113018479Y-105293411D01*
X115007465Y-104308042D01*
X115168244Y-104374803D01*
X115619775Y-104375197D01*
X116037086Y-104202767D01*
X116356645Y-103883765D01*
X116529803Y-103466756D01*
X116530171Y-103044803D01*
X116843244Y-103174803D01*
X117294775Y-103175197D01*
X117712086Y-103002767D01*
X118031645Y-102683765D01*
X118204803Y-102266756D01*
X118205197Y-101815225D01*
X118032767Y-101397914D01*
X117713765Y-101078355D01*
X117296756Y-100905197D01*
X116845225Y-100904803D01*
X116427914Y-101077233D01*
X116247737Y-101257096D01*
X113884064Y-101263125D01*
X113944828Y-101116788D01*
X113945170Y-100724931D01*
X113844937Y-100482347D01*
X118822401Y-100497499D01*
X119001235Y-100676645D01*
X119418244Y-100849803D01*
X119869775Y-100850197D01*
X120287086Y-100677767D01*
X120606645Y-100358765D01*
X120779803Y-99941756D01*
X120780197Y-99490225D01*
X120607767Y-99072914D01*
X120288765Y-98753355D01*
X119871756Y-98580197D01*
X119420225Y-98579803D01*
X119002914Y-98752233D01*
X118827333Y-98927508D01*
X103222390Y-98880004D01*
X103220402Y-98880393D01*
X103218414Y-98880002D01*
X102362351Y-98881731D01*
X102214415Y-98660330D01*
X101899634Y-98450000D01*
X102214415Y-98239670D01*
X102431353Y-97915000D01*
X122114872Y-97915000D01*
X122276235Y-98076645D01*
X122693244Y-98249803D01*
X123144775Y-98250197D01*
X123562086Y-98077767D01*
X123881645Y-97758765D01*
X124054803Y-97341756D01*
X124055197Y-96890225D01*
X124003362Y-96764775D01*
X130834803Y-96764775D01*
X131007233Y-97182086D01*
X131326235Y-97501645D01*
X131743244Y-97674803D01*
X132194775Y-97675197D01*
X132612086Y-97502767D01*
X132790163Y-97325000D01*
X134574767Y-97325000D01*
X134676235Y-97426645D01*
X135093244Y-97599803D01*
X135544775Y-97600197D01*
X135962086Y-97427767D01*
X136281645Y-97108765D01*
X136454803Y-96691756D01*
X136455197Y-96240225D01*
X136282767Y-95822914D01*
X135963765Y-95503355D01*
X135546756Y-95330197D01*
X135095225Y-95329803D01*
X134677914Y-95502233D01*
X134424706Y-95755000D01*
X132790102Y-95755000D01*
X132613765Y-95578355D01*
X132196756Y-95405197D01*
X131745225Y-95404803D01*
X131327914Y-95577233D01*
X131008355Y-95896235D01*
X130835197Y-96313244D01*
X130834803Y-96764775D01*
X124003362Y-96764775D01*
X123882767Y-96472914D01*
X123563765Y-96153355D01*
X123146756Y-95980197D01*
X122695225Y-95979803D01*
X122277914Y-96152233D01*
X122084810Y-96345000D01*
X102364535Y-96345000D01*
X102214415Y-96120330D01*
X101728234Y-95795474D01*
X101154745Y-95681400D01*
X100785255Y-95681400D01*
X100211766Y-95795474D01*
X99770000Y-96090653D01*
X99770000Y-94236814D01*
X100020000Y-94287440D01*
X101720000Y-94287440D01*
X101955317Y-94243162D01*
X102171441Y-94104090D01*
X102316431Y-93891890D01*
X102367440Y-93640000D01*
X102367440Y-93530754D01*
X102445407Y-93515245D01*
X102700079Y-93345079D01*
X104195158Y-91850000D01*
X123849898Y-91850000D01*
X124026235Y-92026645D01*
X124443244Y-92199803D01*
X124894775Y-92200197D01*
X125312086Y-92027767D01*
X125631645Y-91708765D01*
X125804803Y-91291756D01*
X125805197Y-90840225D01*
X125632767Y-90422914D01*
X125313765Y-90103355D01*
X124896756Y-89930197D01*
X124445225Y-89929803D01*
X124027914Y-90102233D01*
X123849837Y-90280000D01*
X123735155Y-90280000D01*
X123881645Y-90133765D01*
X124054803Y-89716756D01*
X124055197Y-89265225D01*
X123904289Y-88900000D01*
X127177893Y-88900000D01*
X127418244Y-88999803D01*
X127869775Y-89000197D01*
X128287086Y-88827767D01*
X128606645Y-88508765D01*
X128779803Y-88091756D01*
X128780197Y-87640225D01*
X128607767Y-87222914D01*
X128288765Y-86903355D01*
X127871756Y-86730197D01*
X127420225Y-86729803D01*
X127002914Y-86902233D01*
X126683355Y-87221235D01*
X126638192Y-87330000D01*
X112440102Y-87330000D01*
X112263765Y-87153355D01*
X111846756Y-86980197D01*
X111395225Y-86979803D01*
X110977914Y-87152233D01*
X110658355Y-87471235D01*
X110485197Y-87888244D01*
X110484803Y-88339775D01*
X110657233Y-88757086D01*
X110976235Y-89076645D01*
X111393244Y-89249803D01*
X111844775Y-89250197D01*
X112262086Y-89077767D01*
X112440163Y-88900000D01*
X121936030Y-88900000D01*
X121785197Y-89263244D01*
X121784803Y-89714775D01*
X121957233Y-90132086D01*
X122104889Y-90280000D01*
X103870000Y-90280000D01*
X103569594Y-90339755D01*
X103569592Y-90339756D01*
X103569593Y-90339756D01*
X103314921Y-90509921D01*
X102243679Y-91581163D01*
X102184090Y-91488559D01*
X101971890Y-91343569D01*
X101863893Y-91321699D01*
X102141645Y-91016924D01*
X102311476Y-90606890D01*
X102190155Y-90377000D01*
X100997000Y-90377000D01*
X100997000Y-90397000D01*
X100743000Y-90397000D01*
X100743000Y-90377000D01*
X100723000Y-90377000D01*
X100723000Y-90123000D01*
X100743000Y-90123000D01*
X100743000Y-88929181D01*
X100997000Y-88929181D01*
X100997000Y-90123000D01*
X102190155Y-90123000D01*
X102311476Y-89893110D01*
X102141645Y-89483076D01*
X101751358Y-89054817D01*
X101226892Y-88808514D01*
X100997000Y-88929181D01*
X100743000Y-88929181D01*
X100513108Y-88808514D01*
X99988642Y-89054817D01*
X99770000Y-89294731D01*
X99770000Y-88501304D01*
X99904000Y-88528440D01*
X101936000Y-88528440D01*
X102171317Y-88484162D01*
X102387441Y-88345090D01*
X102532431Y-88132890D01*
X102583440Y-87881000D01*
X102583440Y-85849000D01*
X102539162Y-85613683D01*
X102400090Y-85397559D01*
X102237052Y-85286160D01*
X102326385Y-85189818D01*
X102525975Y-84707944D01*
X102406836Y-84452000D01*
X101047000Y-84452000D01*
X101047000Y-84472000D01*
X100793000Y-84472000D01*
X100793000Y-84452000D01*
X100773000Y-84452000D01*
X100773000Y-84198000D01*
X100793000Y-84198000D01*
X100793000Y-84178000D01*
X101047000Y-84178000D01*
X101047000Y-84198000D01*
X102406836Y-84198000D01*
X102525975Y-83942056D01*
X102326385Y-83460182D01*
X102140766Y-83260000D01*
X170244723Y-83260000D01*
X170168355Y-83336235D01*
X170168355Y-83336235D01*
G37*
X170168355Y-83336235D02*
X169995197Y-83753244D01*
X169994803Y-84204775D01*
X170167233Y-84622086D01*
X170486235Y-84941645D01*
X170903244Y-85114803D01*
X171354775Y-85115197D01*
X171772086Y-84942767D01*
X171950163Y-84765000D01*
X183914842Y-84765000D01*
X191325099Y-92175256D01*
X191230275Y-92111897D01*
X190795929Y-92025500D01*
X189222071Y-92025500D01*
X188787725Y-92111897D01*
X188419505Y-92357934D01*
X188173468Y-92726154D01*
X188087071Y-93160500D01*
X188173468Y-93594846D01*
X188419505Y-93963066D01*
X188787725Y-94209103D01*
X189222071Y-94295500D01*
X190795929Y-94295500D01*
X191230275Y-94209103D01*
X191598495Y-93963066D01*
X191844532Y-93594846D01*
X191930929Y-93160500D01*
X191844532Y-92726154D01*
X191781172Y-92631330D01*
X193404654Y-94254811D01*
X193395225Y-94254803D01*
X192977914Y-94427233D01*
X192799837Y-94605000D01*
X155999998Y-94605000D01*
X155699592Y-94664755D01*
X155444919Y-94834921D01*
X149424821Y-100855019D01*
X149175225Y-100854801D01*
X148757914Y-101027231D01*
X148438355Y-101346233D01*
X148265197Y-101763242D01*
X148264803Y-102214773D01*
X148437233Y-102632084D01*
X148756235Y-102951643D01*
X148788402Y-102965000D01*
X148130015Y-102965000D01*
X147903765Y-102738355D01*
X147486756Y-102565197D01*
X147035225Y-102564803D01*
X146617914Y-102737233D01*
X146298355Y-103056235D01*
X146125197Y-103473244D01*
X146124803Y-103924775D01*
X146297233Y-104342086D01*
X146616235Y-104661645D01*
X147033244Y-104834803D01*
X147484775Y-104835197D01*
X147902086Y-104662767D01*
X148130251Y-104435000D01*
X156375554Y-104435000D01*
X166406128Y-114465575D01*
X166377914Y-114477233D01*
X166058355Y-114796235D01*
X165885197Y-115213244D01*
X165885095Y-115330000D01*
X164515015Y-115330000D01*
X164288765Y-115103355D01*
X163871756Y-114930197D01*
X163420225Y-114929803D01*
X163002914Y-115102233D01*
X162683355Y-115421235D01*
X162510197Y-115838244D01*
X162509803Y-116289775D01*
X162658365Y-116649322D01*
X162291027Y-116649001D01*
X161873716Y-116821431D01*
X161554157Y-117140433D01*
X161380999Y-117557442D01*
X161380605Y-118008973D01*
X161553035Y-118426284D01*
X161872037Y-118745843D01*
X162289046Y-118919001D01*
X162740577Y-118919395D01*
X163157888Y-118746965D01*
X163386053Y-118519198D01*
X163475802Y-118519198D01*
X163757074Y-118463249D01*
X163763351Y-118459055D01*
X164035850Y-118732030D01*
X164452859Y-118905188D01*
X164904390Y-118905582D01*
X165321701Y-118733152D01*
X165549866Y-118505385D01*
X167078921Y-118505385D01*
X167360193Y-118449436D01*
X167487168Y-118364594D01*
X167598644Y-118290109D01*
X168236522Y-117652232D01*
X169322817Y-117652232D01*
X169235197Y-117863244D01*
X169235039Y-118044093D01*
X168479566Y-118799566D01*
X168298561Y-119070459D01*
X168235000Y-119390000D01*
X168235000Y-122717560D01*
X166940000Y-122717560D01*
X166704683Y-122761838D01*
X166488559Y-122900910D01*
X166343569Y-123113110D01*
X166292560Y-123365000D01*
X166292560Y-124015000D01*
X166336838Y-124250317D01*
X166475910Y-124466441D01*
X166688110Y-124611431D01*
X166825120Y-124639176D01*
X166704683Y-124661838D01*
X166488559Y-124800910D01*
X166485764Y-124805000D01*
X166445158Y-124805000D01*
X166175079Y-124534921D01*
X165920407Y-124364755D01*
X165620000Y-124305000D01*
X156740102Y-124305000D01*
X156563765Y-124128355D01*
X156349989Y-124039587D01*
X156504803Y-123666756D01*
X156505197Y-123215225D01*
X156332767Y-122797914D01*
X156013765Y-122478355D01*
X155596756Y-122305197D01*
X155518000Y-122305128D01*
X155518000Y-122016750D01*
X155359250Y-121858000D01*
X154110000Y-121858000D01*
X154110000Y-123107250D01*
X154235180Y-123232430D01*
X154234903Y-123549792D01*
X154063765Y-123378355D01*
X153725398Y-123237852D01*
X153856000Y-123107250D01*
X153856000Y-121858000D01*
X153836000Y-121858000D01*
X153836000Y-121604000D01*
X153856000Y-121604000D01*
X153856000Y-120354750D01*
X154110000Y-120354750D01*
X154110000Y-121604000D01*
X155359250Y-121604000D01*
X155518000Y-121445250D01*
X155518000Y-120704690D01*
X155421327Y-120471301D01*
X155242698Y-120292673D01*
X155009309Y-120196000D01*
X154268750Y-120196000D01*
X154110000Y-120354750D01*
X153856000Y-120354750D01*
X153697250Y-120196000D01*
X153402636Y-120196000D01*
X153382767Y-120147914D01*
X153205000Y-119969837D01*
X153205000Y-118865158D01*
X155047300Y-117022858D01*
X154885197Y-117413244D01*
X154884803Y-117864775D01*
X155057233Y-118282086D01*
X155376235Y-118601645D01*
X155793244Y-118774803D01*
X156244775Y-118775197D01*
X156662086Y-118602767D01*
X156840163Y-118425000D01*
X158095000Y-118425000D01*
X158395407Y-118365245D01*
X158650079Y-118195079D01*
X162820179Y-114024979D01*
X163069775Y-114025197D01*
X163487086Y-113852767D01*
X163806645Y-113533765D01*
X163979803Y-113116756D01*
X163980197Y-112665225D01*
X163807767Y-112247914D01*
X163488765Y-111928355D01*
X163071756Y-111755197D01*
X162620225Y-111754803D01*
X162202914Y-111927233D01*
X162073478Y-112056443D01*
X162032767Y-111957914D01*
X161713765Y-111638355D01*
X161296756Y-111465197D01*
X161089173Y-111465016D01*
X160025044Y-110400886D01*
X160025197Y-110225225D01*
X159852767Y-109807914D01*
X159533765Y-109488355D01*
X159116756Y-109315197D01*
X158905170Y-109315012D01*
X156825079Y-107234921D01*
X156570407Y-107064755D01*
X156270000Y-107005000D01*
X149930000Y-107005000D01*
X149629594Y-107064755D01*
X149374921Y-107234921D01*
X148934821Y-107675021D01*
X148685225Y-107674803D01*
X148267914Y-107847233D01*
X147948355Y-108166235D01*
X147941158Y-108183568D01*
X141987516Y-108202409D01*
X141813765Y-108028355D01*
X141396756Y-107855197D01*
X140945225Y-107854803D01*
X140527914Y-108027233D01*
X140458769Y-108096258D01*
X140271890Y-107968569D01*
X140020000Y-107917560D01*
X138820000Y-107917560D01*
X138584683Y-107961838D01*
X138481354Y-108028329D01*
X138479698Y-108026673D01*
X138246309Y-107930000D01*
X137805750Y-107930000D01*
X137647000Y-108088750D01*
X137647000Y-108813000D01*
X137667000Y-108813000D01*
X137667000Y-109067000D01*
X137647000Y-109067000D01*
X137647000Y-109791250D01*
X137805750Y-109950000D01*
X138246309Y-109950000D01*
X138479698Y-109853327D01*
X138481068Y-109851957D01*
X138568110Y-109911431D01*
X138820000Y-109962440D01*
X140020000Y-109962440D01*
X140255317Y-109918162D01*
X140399922Y-109825111D01*
X140526235Y-109951645D01*
X140897366Y-110105753D01*
X140874755Y-110139593D01*
X140832026Y-110354407D01*
X140815000Y-110440000D01*
X140815000Y-110900000D01*
X140874755Y-111200407D01*
X141044921Y-111455079D01*
X144094921Y-114505079D01*
X144349593Y-114675245D01*
X144650000Y-114735000D01*
X144809898Y-114735000D01*
X144986235Y-114911645D01*
X145403244Y-115084803D01*
X145832560Y-115085178D01*
X145832560Y-115235000D01*
X145876838Y-115470317D01*
X146015910Y-115686441D01*
X146228110Y-115831431D01*
X146295000Y-115844977D01*
X146295000Y-115990000D01*
X146324688Y-116139250D01*
X146353944Y-116288440D01*
X146354543Y-116289342D01*
X146354755Y-116290406D01*
X146439267Y-116416888D01*
X146523419Y-116543573D01*
X148133583Y-118162488D01*
X148124753Y-120183560D01*
X148003000Y-120183560D01*
X147767683Y-120227838D01*
X147551559Y-120366910D01*
X147406569Y-120579110D01*
X147355560Y-120831000D01*
X147355560Y-122631000D01*
X147371847Y-122717560D01*
X147070000Y-122717560D01*
X146834683Y-122761838D01*
X146731354Y-122828329D01*
X146729698Y-122826673D01*
X146496309Y-122730000D01*
X146055750Y-122730000D01*
X145897000Y-122888750D01*
X145897000Y-123613000D01*
X145917000Y-123613000D01*
X145917000Y-123867000D01*
X145897000Y-123867000D01*
X145897000Y-124591250D01*
X146055750Y-124750000D01*
X146496309Y-124750000D01*
X146729698Y-124653327D01*
X146731068Y-124651957D01*
X146818110Y-124711431D01*
X147070000Y-124762440D01*
X147411810Y-124762440D01*
X147406569Y-124770110D01*
X147355560Y-125022000D01*
X147355560Y-126445000D01*
X144629909Y-126445000D01*
X144630197Y-126115225D01*
X144457767Y-125697914D01*
X144138765Y-125378355D01*
X143721756Y-125205197D01*
X143470135Y-125204977D01*
X142290908Y-124025750D01*
X144535000Y-124025750D01*
X144535000Y-124241310D01*
X144631673Y-124474699D01*
X144810302Y-124653327D01*
X145043691Y-124750000D01*
X145484250Y-124750000D01*
X145643000Y-124591250D01*
X145643000Y-123867000D01*
X144693750Y-123867000D01*
X144535000Y-124025750D01*
X142290908Y-124025750D01*
X141503848Y-123238690D01*
X144535000Y-123238690D01*
X144535000Y-123454250D01*
X144693750Y-123613000D01*
X145643000Y-123613000D01*
X145643000Y-122888750D01*
X145484250Y-122730000D01*
X145043691Y-122730000D01*
X144810302Y-122826673D01*
X144631673Y-123005301D01*
X144535000Y-123238690D01*
X141503848Y-123238690D01*
X130600079Y-112334921D01*
X130345407Y-112164755D01*
X130045000Y-112105000D01*
X128965233Y-112105000D01*
X128863765Y-112003355D01*
X128446756Y-111830197D01*
X127995225Y-111829803D01*
X127577914Y-112002233D01*
X127258355Y-112321235D01*
X127085197Y-112738244D01*
X127084803Y-113189775D01*
X127257233Y-113607086D01*
X127576235Y-113926645D01*
X127993244Y-114099803D01*
X128444775Y-114100197D01*
X128862086Y-113927767D01*
X129115294Y-113675000D01*
X129719842Y-113675000D01*
X133060000Y-117015158D01*
X133060000Y-117164842D01*
X132594842Y-117630000D01*
X127795005Y-117630000D01*
X127795000Y-117629999D01*
X127794995Y-117630000D01*
X118920000Y-117630000D01*
X118619593Y-117689755D01*
X118364921Y-117859921D01*
X116289921Y-119934921D01*
X116119755Y-120189593D01*
X116099251Y-120292673D01*
X116060000Y-120490000D01*
X116060000Y-121700982D01*
X115943559Y-121775910D01*
X115798569Y-121988110D01*
X115747560Y-122240000D01*
X115747560Y-123440000D01*
X115791838Y-123675317D01*
X115930910Y-123891441D01*
X116000711Y-123939134D01*
X115943559Y-123975910D01*
X115798569Y-124188110D01*
X115747560Y-124440000D01*
X115747560Y-125640000D01*
X115791838Y-125875317D01*
X115930910Y-126091441D01*
X116143110Y-126236431D01*
X116395000Y-126287440D01*
X116510067Y-126287440D01*
X116509929Y-126445000D01*
X109289447Y-126445000D01*
X106027210Y-123182764D01*
X106068244Y-123199803D01*
X106519775Y-123200197D01*
X106937086Y-123027767D01*
X107165251Y-122800000D01*
X107672982Y-122800000D01*
X107605197Y-122963244D01*
X107604803Y-123414775D01*
X107777233Y-123832086D01*
X108096235Y-124151645D01*
X108513244Y-124324803D01*
X108964775Y-124325197D01*
X109382086Y-124152767D01*
X109610251Y-123925000D01*
X113739985Y-123925000D01*
X113966235Y-124151645D01*
X114383244Y-124324803D01*
X114834775Y-124325197D01*
X115252086Y-124152767D01*
X115571645Y-123833765D01*
X115744803Y-123416756D01*
X115745197Y-122965225D01*
X115572767Y-122547914D01*
X115253765Y-122228355D01*
X114836756Y-122055197D01*
X114530010Y-122054929D01*
X114530197Y-121840225D01*
X114357767Y-121422914D01*
X114038765Y-121103355D01*
X113621756Y-120930197D01*
X113170225Y-120929803D01*
X112752914Y-121102233D01*
X112524749Y-121330000D01*
X107165015Y-121330000D01*
X106938765Y-121103355D01*
X106521756Y-120930197D01*
X106070225Y-120929803D01*
X105652914Y-121102233D01*
X105530000Y-121224933D01*
X105530000Y-116504608D01*
X105636518Y-116398090D01*
X105765725Y-116690859D01*
X106465883Y-116959071D01*
X107215384Y-116938928D01*
X107814275Y-116690859D01*
X107943483Y-116398089D01*
X106790000Y-115244605D01*
X106775858Y-115258748D01*
X106596252Y-115079142D01*
X106610395Y-115065000D01*
X106969605Y-115065000D01*
X108123089Y-116218483D01*
X108415859Y-116089275D01*
X108665252Y-115438241D01*
X115064994Y-115438241D01*
X115351314Y-116131191D01*
X115881021Y-116661822D01*
X116573469Y-116949352D01*
X117323241Y-116950006D01*
X118016191Y-116663686D01*
X118546822Y-116133979D01*
X118834352Y-115441531D01*
X118835006Y-114691759D01*
X118548686Y-113998809D01*
X118018979Y-113468178D01*
X117326531Y-113180648D01*
X116576759Y-113179994D01*
X115883809Y-113466314D01*
X115353178Y-113996021D01*
X115065648Y-114688469D01*
X115064994Y-115438241D01*
X108665252Y-115438241D01*
X108684071Y-115389117D01*
X108663928Y-114639616D01*
X108415859Y-114040725D01*
X108123089Y-113911517D01*
X106969605Y-115065000D01*
X106610395Y-115065000D01*
X105456911Y-113911517D01*
X105164141Y-114040725D01*
X105102108Y-114202661D01*
X104631358Y-113731911D01*
X105636517Y-113731911D01*
X106790000Y-114885395D01*
X107943483Y-113731911D01*
X107814275Y-113439141D01*
X107114117Y-113170929D01*
X106364616Y-113191072D01*
X105765725Y-113439141D01*
X105636517Y-113731911D01*
X104631358Y-113731911D01*
X102476652Y-111577205D01*
X102539271Y-111483489D01*
X102653345Y-110910000D01*
X102610535Y-110694775D01*
X110014803Y-110694775D01*
X110187233Y-111112086D01*
X110506235Y-111431645D01*
X110923244Y-111604803D01*
X111374775Y-111605197D01*
X111792086Y-111432767D01*
X112111645Y-111113765D01*
X112284803Y-110696756D01*
X112285197Y-110245225D01*
X112112767Y-109827914D01*
X111793765Y-109508355D01*
X111376756Y-109335197D01*
X110925225Y-109334803D01*
X110507914Y-109507233D01*
X110188355Y-109826235D01*
X110015197Y-110243244D01*
X110014803Y-110694775D01*
X102610535Y-110694775D01*
X102539271Y-110336511D01*
X102214415Y-109850330D01*
X101728234Y-109525474D01*
X101171713Y-109414775D01*
X106094803Y-109414775D01*
X106267233Y-109832086D01*
X106586235Y-110151645D01*
X107003244Y-110324803D01*
X107454775Y-110325197D01*
X107872086Y-110152767D01*
X108191645Y-109833765D01*
X108364803Y-109416756D01*
X108365136Y-109034775D01*
X113354803Y-109034775D01*
X113527233Y-109452086D01*
X113846235Y-109771645D01*
X114263244Y-109944803D01*
X114714775Y-109945197D01*
X115132086Y-109772767D01*
X115451645Y-109453765D01*
X115546325Y-109225750D01*
X136285000Y-109225750D01*
X136285000Y-109441310D01*
X136381673Y-109674699D01*
X136560302Y-109853327D01*
X136793691Y-109950000D01*
X137234250Y-109950000D01*
X137393000Y-109791250D01*
X137393000Y-109067000D01*
X136443750Y-109067000D01*
X136285000Y-109225750D01*
X115546325Y-109225750D01*
X115624803Y-109036756D01*
X115625197Y-108585225D01*
X115564650Y-108438690D01*
X136285000Y-108438690D01*
X136285000Y-108654250D01*
X136443750Y-108813000D01*
X137393000Y-108813000D01*
X137393000Y-108088750D01*
X137234250Y-107930000D01*
X136793691Y-107930000D01*
X136560302Y-108026673D01*
X136381673Y-108205301D01*
X136285000Y-108438690D01*
X115564650Y-108438690D01*
X115452767Y-108167914D01*
X115133765Y-107848355D01*
X114716756Y-107675197D01*
X114265225Y-107674803D01*
X113847914Y-107847233D01*
X113528355Y-108166235D01*
X113355197Y-108583244D01*
X113354803Y-109034775D01*
X108365136Y-109034775D01*
X108365197Y-108965225D01*
X108192767Y-108547914D01*
X107873765Y-108228355D01*
X107456756Y-108055197D01*
X107005225Y-108054803D01*
X106587914Y-108227233D01*
X106268355Y-108546235D01*
X106095197Y-108963244D01*
X106094803Y-109414775D01*
X101171713Y-109414775D01*
X101154745Y-109411400D01*
X100785255Y-109411400D01*
X100211766Y-109525474D01*
X99770000Y-109820653D01*
X99770000Y-108813779D01*
X99954000Y-108851040D01*
X101986000Y-108851040D01*
X102221317Y-108806762D01*
X102437441Y-108667690D01*
X102582431Y-108455490D01*
X102633440Y-108203600D01*
X102633440Y-106476400D01*
X102589162Y-106241083D01*
X102450090Y-106024959D01*
X102237890Y-105879969D01*
X102196561Y-105871600D01*
X102214415Y-105859670D01*
X102535960Y-105378444D01*
X104692999Y-105377711D01*
X104595197Y-105613244D01*
X104594803Y-106064775D01*
X104767233Y-106482086D01*
X105086235Y-106801645D01*
X105503244Y-106974803D01*
X105954775Y-106975197D01*
X106372086Y-106802767D01*
X106691645Y-106483765D01*
X106864803Y-106066756D01*
X106865197Y-105615225D01*
X106766767Y-105377006D01*
X110105082Y-105375872D01*
X110104830Y-105665069D01*
X110254471Y-106027229D01*
X110531314Y-106304555D01*
X110893212Y-106454828D01*
X111285069Y-106455170D01*
X111647229Y-106305529D01*
X111738141Y-106214775D01*
X114764803Y-106214775D01*
X114937233Y-106632086D01*
X115256235Y-106951645D01*
X115673244Y-107124803D01*
X116124775Y-107125197D01*
X116542086Y-106952767D01*
X116861645Y-106633765D01*
X117034803Y-106216756D01*
X117035197Y-105765225D01*
X116862767Y-105347914D01*
X116543765Y-105028355D01*
X116126756Y-104855197D01*
X115675225Y-104854803D01*
X115257914Y-105027233D01*
X114938355Y-105346235D01*
X114765197Y-105763244D01*
X114764803Y-106214775D01*
X111738141Y-106214775D01*
X111924555Y-106028686D01*
X112074828Y-105666788D01*
X112075082Y-105375202D01*
X112670267Y-105375000D01*
X112696373Y-105369798D01*
X112722769Y-105373224D01*
X112845736Y-105340035D01*
X112970653Y-105315143D01*
X112992780Y-105300347D01*
X113018479Y-105293411D01*
X115007465Y-104308042D01*
X115168244Y-104374803D01*
X115619775Y-104375197D01*
X116037086Y-104202767D01*
X116356645Y-103883765D01*
X116529803Y-103466756D01*
X116530171Y-103044803D01*
X116843244Y-103174803D01*
X117294775Y-103175197D01*
X117712086Y-103002767D01*
X118031645Y-102683765D01*
X118204803Y-102266756D01*
X118205197Y-101815225D01*
X118032767Y-101397914D01*
X117713765Y-101078355D01*
X117296756Y-100905197D01*
X116845225Y-100904803D01*
X116427914Y-101077233D01*
X116247737Y-101257096D01*
X113884064Y-101263125D01*
X113944828Y-101116788D01*
X113945170Y-100724931D01*
X113844937Y-100482347D01*
X118822401Y-100497499D01*
X119001235Y-100676645D01*
X119418244Y-100849803D01*
X119869775Y-100850197D01*
X120287086Y-100677767D01*
X120606645Y-100358765D01*
X120779803Y-99941756D01*
X120780197Y-99490225D01*
X120607767Y-99072914D01*
X120288765Y-98753355D01*
X119871756Y-98580197D01*
X119420225Y-98579803D01*
X119002914Y-98752233D01*
X118827333Y-98927508D01*
X103222390Y-98880004D01*
X103220402Y-98880393D01*
X103218414Y-98880002D01*
X102362351Y-98881731D01*
X102214415Y-98660330D01*
X101899634Y-98450000D01*
X102214415Y-98239670D01*
X102431353Y-97915000D01*
X122114872Y-97915000D01*
X122276235Y-98076645D01*
X122693244Y-98249803D01*
X123144775Y-98250197D01*
X123562086Y-98077767D01*
X123881645Y-97758765D01*
X124054803Y-97341756D01*
X124055197Y-96890225D01*
X124003362Y-96764775D01*
X130834803Y-96764775D01*
X131007233Y-97182086D01*
X131326235Y-97501645D01*
X131743244Y-97674803D01*
X132194775Y-97675197D01*
X132612086Y-97502767D01*
X132790163Y-97325000D01*
X134574767Y-97325000D01*
X134676235Y-97426645D01*
X135093244Y-97599803D01*
X135544775Y-97600197D01*
X135962086Y-97427767D01*
X136281645Y-97108765D01*
X136454803Y-96691756D01*
X136455197Y-96240225D01*
X136282767Y-95822914D01*
X135963765Y-95503355D01*
X135546756Y-95330197D01*
X135095225Y-95329803D01*
X134677914Y-95502233D01*
X134424706Y-95755000D01*
X132790102Y-95755000D01*
X132613765Y-95578355D01*
X132196756Y-95405197D01*
X131745225Y-95404803D01*
X131327914Y-95577233D01*
X131008355Y-95896235D01*
X130835197Y-96313244D01*
X130834803Y-96764775D01*
X124003362Y-96764775D01*
X123882767Y-96472914D01*
X123563765Y-96153355D01*
X123146756Y-95980197D01*
X122695225Y-95979803D01*
X122277914Y-96152233D01*
X122084810Y-96345000D01*
X102364535Y-96345000D01*
X102214415Y-96120330D01*
X101728234Y-95795474D01*
X101154745Y-95681400D01*
X100785255Y-95681400D01*
X100211766Y-95795474D01*
X99770000Y-96090653D01*
X99770000Y-94236814D01*
X100020000Y-94287440D01*
X101720000Y-94287440D01*
X101955317Y-94243162D01*
X102171441Y-94104090D01*
X102316431Y-93891890D01*
X102367440Y-93640000D01*
X102367440Y-93530754D01*
X102445407Y-93515245D01*
X102700079Y-93345079D01*
X104195158Y-91850000D01*
X123849898Y-91850000D01*
X124026235Y-92026645D01*
X124443244Y-92199803D01*
X124894775Y-92200197D01*
X125312086Y-92027767D01*
X125631645Y-91708765D01*
X125804803Y-91291756D01*
X125805197Y-90840225D01*
X125632767Y-90422914D01*
X125313765Y-90103355D01*
X124896756Y-89930197D01*
X124445225Y-89929803D01*
X124027914Y-90102233D01*
X123849837Y-90280000D01*
X123735155Y-90280000D01*
X123881645Y-90133765D01*
X124054803Y-89716756D01*
X124055197Y-89265225D01*
X123904289Y-88900000D01*
X127177893Y-88900000D01*
X127418244Y-88999803D01*
X127869775Y-89000197D01*
X128287086Y-88827767D01*
X128606645Y-88508765D01*
X128779803Y-88091756D01*
X128780197Y-87640225D01*
X128607767Y-87222914D01*
X128288765Y-86903355D01*
X127871756Y-86730197D01*
X127420225Y-86729803D01*
X127002914Y-86902233D01*
X126683355Y-87221235D01*
X126638192Y-87330000D01*
X112440102Y-87330000D01*
X112263765Y-87153355D01*
X111846756Y-86980197D01*
X111395225Y-86979803D01*
X110977914Y-87152233D01*
X110658355Y-87471235D01*
X110485197Y-87888244D01*
X110484803Y-88339775D01*
X110657233Y-88757086D01*
X110976235Y-89076645D01*
X111393244Y-89249803D01*
X111844775Y-89250197D01*
X112262086Y-89077767D01*
X112440163Y-88900000D01*
X121936030Y-88900000D01*
X121785197Y-89263244D01*
X121784803Y-89714775D01*
X121957233Y-90132086D01*
X122104889Y-90280000D01*
X103870000Y-90280000D01*
X103569594Y-90339755D01*
X103569592Y-90339756D01*
X103569593Y-90339756D01*
X103314921Y-90509921D01*
X102243679Y-91581163D01*
X102184090Y-91488559D01*
X101971890Y-91343569D01*
X101863893Y-91321699D01*
X102141645Y-91016924D01*
X102311476Y-90606890D01*
X102190155Y-90377000D01*
X100997000Y-90377000D01*
X100997000Y-90397000D01*
X100743000Y-90397000D01*
X100743000Y-90377000D01*
X100723000Y-90377000D01*
X100723000Y-90123000D01*
X100743000Y-90123000D01*
X100743000Y-88929181D01*
X100997000Y-88929181D01*
X100997000Y-90123000D01*
X102190155Y-90123000D01*
X102311476Y-89893110D01*
X102141645Y-89483076D01*
X101751358Y-89054817D01*
X101226892Y-88808514D01*
X100997000Y-88929181D01*
X100743000Y-88929181D01*
X100513108Y-88808514D01*
X99988642Y-89054817D01*
X99770000Y-89294731D01*
X99770000Y-88501304D01*
X99904000Y-88528440D01*
X101936000Y-88528440D01*
X102171317Y-88484162D01*
X102387441Y-88345090D01*
X102532431Y-88132890D01*
X102583440Y-87881000D01*
X102583440Y-85849000D01*
X102539162Y-85613683D01*
X102400090Y-85397559D01*
X102237052Y-85286160D01*
X102326385Y-85189818D01*
X102525975Y-84707944D01*
X102406836Y-84452000D01*
X101047000Y-84452000D01*
X101047000Y-84472000D01*
X100793000Y-84472000D01*
X100793000Y-84452000D01*
X100773000Y-84452000D01*
X100773000Y-84198000D01*
X100793000Y-84198000D01*
X100793000Y-84178000D01*
X101047000Y-84178000D01*
X101047000Y-84198000D01*
X102406836Y-84198000D01*
X102525975Y-83942056D01*
X102326385Y-83460182D01*
X102140766Y-83260000D01*
X170244723Y-83260000D01*
X170168355Y-83336235D01*
G36*
X149268882Y-113850000D02*
X149265750Y-113850000D01*
X149107000Y-114008750D01*
X149107000Y-114733000D01*
X149127000Y-114733000D01*
X149127000Y-114987000D01*
X149107000Y-114987000D01*
X149107000Y-115711250D01*
X149265750Y-115870000D01*
X149706309Y-115870000D01*
X149885000Y-115795984D01*
X149885000Y-120200165D01*
X149803000Y-120183560D01*
X149694769Y-120183560D01*
X149704993Y-117843430D01*
X149704867Y-117842780D01*
X149704998Y-117842128D01*
X149675613Y-117692281D01*
X149646551Y-117542766D01*
X149646185Y-117542213D01*
X149646057Y-117541560D01*
X149561625Y-117414455D01*
X149477499Y-117287352D01*
X149476948Y-117286980D01*
X149476581Y-117286428D01*
X147988992Y-115790753D01*
X148018646Y-115771671D01*
X148020302Y-115773327D01*
X148253691Y-115870000D01*
X148694250Y-115870000D01*
X148853000Y-115711250D01*
X148853000Y-114987000D01*
X148833000Y-114987000D01*
X148833000Y-114733000D01*
X148853000Y-114733000D01*
X148853000Y-114008750D01*
X148694250Y-113850000D01*
X148253691Y-113850000D01*
X148020302Y-113946673D01*
X148018932Y-113948043D01*
X147931890Y-113888569D01*
X147680000Y-113837560D01*
X147167718Y-113837560D01*
X146725079Y-113394921D01*
X146588567Y-113303707D01*
X146273765Y-112988355D01*
X145880369Y-112825002D01*
X148178884Y-112825002D01*
X149268882Y-113850000D01*
X149268882Y-113850000D01*
G37*
X149268882Y-113850000D02*
X149265750Y-113850000D01*
X149107000Y-114008750D01*
X149107000Y-114733000D01*
X149127000Y-114733000D01*
X149127000Y-114987000D01*
X149107000Y-114987000D01*
X149107000Y-115711250D01*
X149265750Y-115870000D01*
X149706309Y-115870000D01*
X149885000Y-115795984D01*
X149885000Y-120200165D01*
X149803000Y-120183560D01*
X149694769Y-120183560D01*
X149704993Y-117843430D01*
X149704867Y-117842780D01*
X149704998Y-117842128D01*
X149675613Y-117692281D01*
X149646551Y-117542766D01*
X149646185Y-117542213D01*
X149646057Y-117541560D01*
X149561625Y-117414455D01*
X149477499Y-117287352D01*
X149476948Y-117286980D01*
X149476581Y-117286428D01*
X147988992Y-115790753D01*
X148018646Y-115771671D01*
X148020302Y-115773327D01*
X148253691Y-115870000D01*
X148694250Y-115870000D01*
X148853000Y-115711250D01*
X148853000Y-114987000D01*
X148833000Y-114987000D01*
X148833000Y-114733000D01*
X148853000Y-114733000D01*
X148853000Y-114008750D01*
X148694250Y-113850000D01*
X148253691Y-113850000D01*
X148020302Y-113946673D01*
X148018932Y-113948043D01*
X147931890Y-113888569D01*
X147680000Y-113837560D01*
X147167718Y-113837560D01*
X146725079Y-113394921D01*
X146588567Y-113303707D01*
X146273765Y-112988355D01*
X145880369Y-112825002D01*
X148178884Y-112825002D01*
X149268882Y-113850000D01*
G36*
X196525258Y-83783319D02*
X196524743Y-84374089D01*
X196750344Y-84920086D01*
X197167717Y-85338188D01*
X197713319Y-85564742D01*
X198304089Y-85565257D01*
X198850086Y-85339656D01*
X199268188Y-84922283D01*
X199494742Y-84376681D01*
X199495257Y-83785911D01*
X199277955Y-83260000D01*
X202490000Y-83260000D01*
X202490000Y-104877870D01*
X202446000Y-104868960D01*
X200414000Y-104868960D01*
X200178683Y-104913238D01*
X199962559Y-105052310D01*
X199817569Y-105264510D01*
X199766560Y-105516400D01*
X199766560Y-107243600D01*
X199810838Y-107478917D01*
X199949910Y-107695041D01*
X200162110Y-107840031D01*
X200256927Y-107859232D01*
X200079268Y-108017964D01*
X199825291Y-108545209D01*
X199822642Y-108560974D01*
X199943783Y-108793000D01*
X201303000Y-108793000D01*
X201303000Y-108773000D01*
X201557000Y-108773000D01*
X201557000Y-108793000D01*
X201577000Y-108793000D01*
X201577000Y-109047000D01*
X201557000Y-109047000D01*
X201557000Y-109067000D01*
X201303000Y-109067000D01*
X201303000Y-109047000D01*
X199943783Y-109047000D01*
X199822642Y-109279026D01*
X199825291Y-109294791D01*
X200079268Y-109822036D01*
X200495069Y-110193539D01*
X200185585Y-110400330D01*
X199937911Y-110771000D01*
X196256000Y-110771000D01*
X195974728Y-110826949D01*
X195736277Y-110986276D01*
X187787554Y-118935000D01*
X175766314Y-118935000D01*
X171404365Y-114535036D01*
X171391974Y-114522536D01*
X171154216Y-114362176D01*
X170873189Y-114305008D01*
X170861627Y-114307256D01*
X170857767Y-114297914D01*
X170538765Y-113978355D01*
X170121756Y-113805197D01*
X169670225Y-113804803D01*
X169252914Y-113977233D01*
X168933355Y-114296235D01*
X168760197Y-114713244D01*
X168760173Y-114740726D01*
X163241812Y-109222365D01*
X188594803Y-109222365D01*
X188767233Y-109639676D01*
X188905000Y-109777684D01*
X188905000Y-111639811D01*
X188778355Y-111766235D01*
X188605197Y-112183244D01*
X188604803Y-112634775D01*
X188777233Y-113052086D01*
X189096235Y-113371645D01*
X189513244Y-113544803D01*
X189964775Y-113545197D01*
X190382086Y-113372767D01*
X190701645Y-113053765D01*
X190874803Y-112636756D01*
X190875197Y-112185225D01*
X190702767Y-111767914D01*
X190575000Y-111639924D01*
X190575000Y-109757797D01*
X190691645Y-109641355D01*
X190864803Y-109224346D01*
X190865197Y-108772815D01*
X190692767Y-108355504D01*
X190373765Y-108035945D01*
X189956756Y-107862787D01*
X189505225Y-107862393D01*
X189087914Y-108034823D01*
X188768355Y-108353825D01*
X188595197Y-108770834D01*
X188594803Y-109222365D01*
X163241812Y-109222365D01*
X157199723Y-103180277D01*
X156961272Y-103020949D01*
X156680000Y-102965000D01*
X153540111Y-102965000D01*
X153570163Y-102935000D01*
X195730000Y-102935000D01*
X196030407Y-102875245D01*
X196285079Y-102705079D01*
X196395179Y-102594979D01*
X196644775Y-102595197D01*
X196864999Y-102504202D01*
X196864999Y-103629688D01*
X196507914Y-103777233D01*
X196188355Y-104096235D01*
X196015197Y-104513244D01*
X196014803Y-104964775D01*
X196187233Y-105382086D01*
X196506235Y-105701645D01*
X196923244Y-105874803D01*
X197374775Y-105875197D01*
X197792086Y-105702767D01*
X198111645Y-105383765D01*
X198284803Y-104966756D01*
X198285057Y-104675382D01*
X198375244Y-104540408D01*
X198434999Y-104240001D01*
X198434999Y-97389999D01*
X198375244Y-97089593D01*
X198205078Y-96834920D01*
X198205075Y-96834918D01*
X193237247Y-91867089D01*
X196524743Y-91867089D01*
X196750344Y-92413086D01*
X197167717Y-92831188D01*
X197713319Y-93057742D01*
X198304089Y-93058257D01*
X198850086Y-92832656D01*
X199268188Y-92415283D01*
X199494742Y-91869681D01*
X199495257Y-91278911D01*
X199269656Y-90732914D01*
X198852283Y-90314812D01*
X198306681Y-90088258D01*
X197715911Y-90087743D01*
X197169914Y-90313344D01*
X196751812Y-90730717D01*
X196525258Y-91276319D01*
X196524743Y-91867089D01*
X193237247Y-91867089D01*
X189520453Y-88150295D01*
X189897716Y-88150295D01*
X190146106Y-88751443D01*
X190605637Y-89211778D01*
X191206352Y-89461216D01*
X191856795Y-89461784D01*
X192457943Y-89213394D01*
X192918278Y-88753863D01*
X193167716Y-88153148D01*
X193167834Y-88017000D01*
X196875000Y-88017000D01*
X196875000Y-88767000D01*
X197009998Y-89191678D01*
X197297237Y-89532368D01*
X197708126Y-89734119D01*
X197883000Y-89607954D01*
X197883000Y-88017000D01*
X198137000Y-88017000D01*
X198137000Y-89607954D01*
X198311874Y-89734119D01*
X198722763Y-89532368D01*
X199010002Y-89191678D01*
X199145000Y-88767000D01*
X199145000Y-88017000D01*
X198137000Y-88017000D01*
X197883000Y-88017000D01*
X196875000Y-88017000D01*
X193167834Y-88017000D01*
X193168284Y-87502705D01*
X192965942Y-87013000D01*
X196875000Y-87013000D01*
X196875000Y-87763000D01*
X197883000Y-87763000D01*
X197883000Y-86172046D01*
X198137000Y-86172046D01*
X198137000Y-87763000D01*
X199145000Y-87763000D01*
X199145000Y-87013000D01*
X199010002Y-86588322D01*
X198722763Y-86247632D01*
X198311874Y-86045881D01*
X198137000Y-86172046D01*
X197883000Y-86172046D01*
X197708126Y-86045881D01*
X197297237Y-86247632D01*
X197009998Y-86588322D01*
X196875000Y-87013000D01*
X192965942Y-87013000D01*
X192919894Y-86901557D01*
X192460363Y-86441222D01*
X191859648Y-86191784D01*
X191209205Y-86191216D01*
X190608057Y-86439606D01*
X190147722Y-86899137D01*
X189898284Y-87499852D01*
X189897716Y-88150295D01*
X189520453Y-88150295D01*
X184795079Y-83424921D01*
X184548257Y-83260000D01*
X196742559Y-83260000D01*
X196525258Y-83783319D01*
X196525258Y-83783319D01*
G37*
X196525258Y-83783319D02*
X196524743Y-84374089D01*
X196750344Y-84920086D01*
X197167717Y-85338188D01*
X197713319Y-85564742D01*
X198304089Y-85565257D01*
X198850086Y-85339656D01*
X199268188Y-84922283D01*
X199494742Y-84376681D01*
X199495257Y-83785911D01*
X199277955Y-83260000D01*
X202490000Y-83260000D01*
X202490000Y-104877870D01*
X202446000Y-104868960D01*
X200414000Y-104868960D01*
X200178683Y-104913238D01*
X199962559Y-105052310D01*
X199817569Y-105264510D01*
X199766560Y-105516400D01*
X199766560Y-107243600D01*
X199810838Y-107478917D01*
X199949910Y-107695041D01*
X200162110Y-107840031D01*
X200256927Y-107859232D01*
X200079268Y-108017964D01*
X199825291Y-108545209D01*
X199822642Y-108560974D01*
X199943783Y-108793000D01*
X201303000Y-108793000D01*
X201303000Y-108773000D01*
X201557000Y-108773000D01*
X201557000Y-108793000D01*
X201577000Y-108793000D01*
X201577000Y-109047000D01*
X201557000Y-109047000D01*
X201557000Y-109067000D01*
X201303000Y-109067000D01*
X201303000Y-109047000D01*
X199943783Y-109047000D01*
X199822642Y-109279026D01*
X199825291Y-109294791D01*
X200079268Y-109822036D01*
X200495069Y-110193539D01*
X200185585Y-110400330D01*
X199937911Y-110771000D01*
X196256000Y-110771000D01*
X195974728Y-110826949D01*
X195736277Y-110986276D01*
X187787554Y-118935000D01*
X175766314Y-118935000D01*
X171404365Y-114535036D01*
X171391974Y-114522536D01*
X171154216Y-114362176D01*
X170873189Y-114305008D01*
X170861627Y-114307256D01*
X170857767Y-114297914D01*
X170538765Y-113978355D01*
X170121756Y-113805197D01*
X169670225Y-113804803D01*
X169252914Y-113977233D01*
X168933355Y-114296235D01*
X168760197Y-114713244D01*
X168760173Y-114740726D01*
X163241812Y-109222365D01*
X188594803Y-109222365D01*
X188767233Y-109639676D01*
X188905000Y-109777684D01*
X188905000Y-111639811D01*
X188778355Y-111766235D01*
X188605197Y-112183244D01*
X188604803Y-112634775D01*
X188777233Y-113052086D01*
X189096235Y-113371645D01*
X189513244Y-113544803D01*
X189964775Y-113545197D01*
X190382086Y-113372767D01*
X190701645Y-113053765D01*
X190874803Y-112636756D01*
X190875197Y-112185225D01*
X190702767Y-111767914D01*
X190575000Y-111639924D01*
X190575000Y-109757797D01*
X190691645Y-109641355D01*
X190864803Y-109224346D01*
X190865197Y-108772815D01*
X190692767Y-108355504D01*
X190373765Y-108035945D01*
X189956756Y-107862787D01*
X189505225Y-107862393D01*
X189087914Y-108034823D01*
X188768355Y-108353825D01*
X188595197Y-108770834D01*
X188594803Y-109222365D01*
X163241812Y-109222365D01*
X157199723Y-103180277D01*
X156961272Y-103020949D01*
X156680000Y-102965000D01*
X153540111Y-102965000D01*
X153570163Y-102935000D01*
X195730000Y-102935000D01*
X196030407Y-102875245D01*
X196285079Y-102705079D01*
X196395179Y-102594979D01*
X196644775Y-102595197D01*
X196864999Y-102504202D01*
X196864999Y-103629688D01*
X196507914Y-103777233D01*
X196188355Y-104096235D01*
X196015197Y-104513244D01*
X196014803Y-104964775D01*
X196187233Y-105382086D01*
X196506235Y-105701645D01*
X196923244Y-105874803D01*
X197374775Y-105875197D01*
X197792086Y-105702767D01*
X198111645Y-105383765D01*
X198284803Y-104966756D01*
X198285057Y-104675382D01*
X198375244Y-104540408D01*
X198434999Y-104240001D01*
X198434999Y-97389999D01*
X198375244Y-97089593D01*
X198205078Y-96834920D01*
X198205075Y-96834918D01*
X193237247Y-91867089D01*
X196524743Y-91867089D01*
X196750344Y-92413086D01*
X197167717Y-92831188D01*
X197713319Y-93057742D01*
X198304089Y-93058257D01*
X198850086Y-92832656D01*
X199268188Y-92415283D01*
X199494742Y-91869681D01*
X199495257Y-91278911D01*
X199269656Y-90732914D01*
X198852283Y-90314812D01*
X198306681Y-90088258D01*
X197715911Y-90087743D01*
X197169914Y-90313344D01*
X196751812Y-90730717D01*
X196525258Y-91276319D01*
X196524743Y-91867089D01*
X193237247Y-91867089D01*
X189520453Y-88150295D01*
X189897716Y-88150295D01*
X190146106Y-88751443D01*
X190605637Y-89211778D01*
X191206352Y-89461216D01*
X191856795Y-89461784D01*
X192457943Y-89213394D01*
X192918278Y-88753863D01*
X193167716Y-88153148D01*
X193167834Y-88017000D01*
X196875000Y-88017000D01*
X196875000Y-88767000D01*
X197009998Y-89191678D01*
X197297237Y-89532368D01*
X197708126Y-89734119D01*
X197883000Y-89607954D01*
X197883000Y-88017000D01*
X198137000Y-88017000D01*
X198137000Y-89607954D01*
X198311874Y-89734119D01*
X198722763Y-89532368D01*
X199010002Y-89191678D01*
X199145000Y-88767000D01*
X199145000Y-88017000D01*
X198137000Y-88017000D01*
X197883000Y-88017000D01*
X196875000Y-88017000D01*
X193167834Y-88017000D01*
X193168284Y-87502705D01*
X192965942Y-87013000D01*
X196875000Y-87013000D01*
X196875000Y-87763000D01*
X197883000Y-87763000D01*
X197883000Y-86172046D01*
X198137000Y-86172046D01*
X198137000Y-87763000D01*
X199145000Y-87763000D01*
X199145000Y-87013000D01*
X199010002Y-86588322D01*
X198722763Y-86247632D01*
X198311874Y-86045881D01*
X198137000Y-86172046D01*
X197883000Y-86172046D01*
X197708126Y-86045881D01*
X197297237Y-86247632D01*
X197009998Y-86588322D01*
X196875000Y-87013000D01*
X192965942Y-87013000D01*
X192919894Y-86901557D01*
X192460363Y-86441222D01*
X191859648Y-86191784D01*
X191209205Y-86191216D01*
X190608057Y-86439606D01*
X190147722Y-86899137D01*
X189898284Y-87499852D01*
X189897716Y-88150295D01*
X189520453Y-88150295D01*
X184795079Y-83424921D01*
X184548257Y-83260000D01*
X196742559Y-83260000D01*
X196525258Y-83783319D01*
G36*
X156807402Y-109437560D02*
X156550000Y-109437560D01*
X156314683Y-109481838D01*
X156211354Y-109548329D01*
X156209698Y-109546673D01*
X155976309Y-109450000D01*
X155535750Y-109450000D01*
X155377000Y-109608750D01*
X155377000Y-110333000D01*
X155397000Y-110333000D01*
X155397000Y-110587000D01*
X155377000Y-110587000D01*
X155377000Y-111311250D01*
X155535750Y-111470000D01*
X155976309Y-111470000D01*
X156209698Y-111373327D01*
X156211068Y-111371957D01*
X156298110Y-111431431D01*
X156550000Y-111482440D01*
X157750000Y-111482440D01*
X157985317Y-111438162D01*
X158160302Y-111325562D01*
X158246235Y-111411645D01*
X158650229Y-111579399D01*
X158424683Y-111621838D01*
X158321354Y-111688329D01*
X158319698Y-111686673D01*
X158086309Y-111590000D01*
X157645750Y-111590000D01*
X157487000Y-111748750D01*
X157487000Y-112473000D01*
X157507000Y-112473000D01*
X157507000Y-112727000D01*
X157487000Y-112727000D01*
X157487000Y-112747000D01*
X157233000Y-112747000D01*
X157233000Y-112727000D01*
X156283750Y-112727000D01*
X156125000Y-112885750D01*
X156125000Y-113101310D01*
X156193863Y-113267560D01*
X156020000Y-113267560D01*
X155784683Y-113311838D01*
X155681354Y-113378329D01*
X155679698Y-113376673D01*
X155446309Y-113280000D01*
X155005750Y-113280000D01*
X154847000Y-113438750D01*
X154847000Y-114163000D01*
X154867000Y-114163000D01*
X154867000Y-114417000D01*
X154847000Y-114417000D01*
X154847000Y-114437000D01*
X154593000Y-114437000D01*
X154593000Y-114417000D01*
X153643750Y-114417000D01*
X153485000Y-114575750D01*
X153485000Y-114791310D01*
X153581673Y-115024699D01*
X153760302Y-115203327D01*
X153993691Y-115300000D01*
X154434250Y-115300000D01*
X154592998Y-115141252D01*
X154592998Y-115266161D01*
X154564921Y-115284921D01*
X153092440Y-116757402D01*
X153092440Y-116740000D01*
X153048162Y-116504683D01*
X152981671Y-116401354D01*
X152983327Y-116399698D01*
X153080000Y-116166309D01*
X153080000Y-115725750D01*
X152921250Y-115567000D01*
X152197000Y-115567000D01*
X152197000Y-115587000D01*
X151943000Y-115587000D01*
X151943000Y-115567000D01*
X151923000Y-115567000D01*
X151923000Y-115313000D01*
X151943000Y-115313000D01*
X151943000Y-114363750D01*
X152197000Y-114363750D01*
X152197000Y-115313000D01*
X152921250Y-115313000D01*
X153080000Y-115154250D01*
X153080000Y-114713691D01*
X152983327Y-114480302D01*
X152804699Y-114301673D01*
X152571310Y-114205000D01*
X152355750Y-114205000D01*
X152197000Y-114363750D01*
X151943000Y-114363750D01*
X151784250Y-114205000D01*
X151568690Y-114205000D01*
X151455000Y-114252092D01*
X151455000Y-114090000D01*
X151452609Y-114077978D01*
X151454630Y-114065886D01*
X151422815Y-113928196D01*
X151395245Y-113789594D01*
X151394642Y-113788690D01*
X153485000Y-113788690D01*
X153485000Y-114004250D01*
X153643750Y-114163000D01*
X154593000Y-114163000D01*
X154593000Y-113438750D01*
X154434250Y-113280000D01*
X153993691Y-113280000D01*
X153760302Y-113376673D01*
X153581673Y-113555301D01*
X153485000Y-113788690D01*
X151394642Y-113788690D01*
X151388434Y-113779400D01*
X151385674Y-113767457D01*
X151303596Y-113652430D01*
X151225079Y-113534921D01*
X151214886Y-113528110D01*
X151207766Y-113518132D01*
X149698311Y-112098690D01*
X156125000Y-112098690D01*
X156125000Y-112314250D01*
X156283750Y-112473000D01*
X157233000Y-112473000D01*
X157233000Y-111748750D01*
X157074250Y-111590000D01*
X156633691Y-111590000D01*
X156400302Y-111686673D01*
X156221673Y-111865301D01*
X156125000Y-112098690D01*
X149698311Y-112098690D01*
X149027768Y-111468134D01*
X148907906Y-111393266D01*
X148790408Y-111314757D01*
X148778386Y-111312366D01*
X148767988Y-111305871D01*
X148628594Y-111282570D01*
X148490002Y-111255002D01*
X145210102Y-111255002D01*
X145033765Y-111078357D01*
X144616756Y-110905199D01*
X144165225Y-110904805D01*
X143747914Y-111077235D01*
X143428355Y-111396237D01*
X143363231Y-111553073D01*
X142555908Y-110745750D01*
X154015000Y-110745750D01*
X154015000Y-110961310D01*
X154111673Y-111194699D01*
X154290302Y-111373327D01*
X154523691Y-111470000D01*
X154964250Y-111470000D01*
X155123000Y-111311250D01*
X155123000Y-110587000D01*
X154173750Y-110587000D01*
X154015000Y-110745750D01*
X142555908Y-110745750D01*
X142480158Y-110670000D01*
X142541079Y-110609079D01*
X142598073Y-110523781D01*
X142665728Y-110446675D01*
X142682419Y-110397547D01*
X142711244Y-110354407D01*
X142731256Y-110253800D01*
X142764258Y-110156664D01*
X142760878Y-110104888D01*
X142771000Y-110054000D01*
X142750986Y-109953387D01*
X142744303Y-109851022D01*
X142721366Y-109804480D01*
X142714531Y-109770116D01*
X148247231Y-109752608D01*
X148266235Y-109771645D01*
X148683244Y-109944803D01*
X148934865Y-109945023D01*
X148964921Y-109975079D01*
X149151526Y-110099764D01*
X149245910Y-110246441D01*
X149458110Y-110391431D01*
X149710000Y-110442440D01*
X150910000Y-110442440D01*
X151145317Y-110398162D01*
X151248646Y-110331671D01*
X151250302Y-110333327D01*
X151483691Y-110430000D01*
X151924250Y-110430000D01*
X152083000Y-110271250D01*
X152083000Y-109547000D01*
X152337000Y-109547000D01*
X152337000Y-110271250D01*
X152495750Y-110430000D01*
X152936309Y-110430000D01*
X153169698Y-110333327D01*
X153348327Y-110154699D01*
X153429516Y-109958690D01*
X154015000Y-109958690D01*
X154015000Y-110174250D01*
X154173750Y-110333000D01*
X155123000Y-110333000D01*
X155123000Y-109608750D01*
X154964250Y-109450000D01*
X154523691Y-109450000D01*
X154290302Y-109546673D01*
X154111673Y-109725301D01*
X154015000Y-109958690D01*
X153429516Y-109958690D01*
X153445000Y-109921310D01*
X153445000Y-109705750D01*
X153286250Y-109547000D01*
X152337000Y-109547000D01*
X152083000Y-109547000D01*
X152063000Y-109547000D01*
X152063000Y-109293000D01*
X152083000Y-109293000D01*
X152083000Y-109273000D01*
X152337000Y-109273000D01*
X152337000Y-109293000D01*
X153286250Y-109293000D01*
X153445000Y-109134250D01*
X153445000Y-108918690D01*
X153348327Y-108685301D01*
X153238025Y-108575000D01*
X155944842Y-108575000D01*
X156807402Y-109437560D01*
X156807402Y-109437560D01*
G37*
X156807402Y-109437560D02*
X156550000Y-109437560D01*
X156314683Y-109481838D01*
X156211354Y-109548329D01*
X156209698Y-109546673D01*
X155976309Y-109450000D01*
X155535750Y-109450000D01*
X155377000Y-109608750D01*
X155377000Y-110333000D01*
X155397000Y-110333000D01*
X155397000Y-110587000D01*
X155377000Y-110587000D01*
X155377000Y-111311250D01*
X155535750Y-111470000D01*
X155976309Y-111470000D01*
X156209698Y-111373327D01*
X156211068Y-111371957D01*
X156298110Y-111431431D01*
X156550000Y-111482440D01*
X157750000Y-111482440D01*
X157985317Y-111438162D01*
X158160302Y-111325562D01*
X158246235Y-111411645D01*
X158650229Y-111579399D01*
X158424683Y-111621838D01*
X158321354Y-111688329D01*
X158319698Y-111686673D01*
X158086309Y-111590000D01*
X157645750Y-111590000D01*
X157487000Y-111748750D01*
X157487000Y-112473000D01*
X157507000Y-112473000D01*
X157507000Y-112727000D01*
X157487000Y-112727000D01*
X157487000Y-112747000D01*
X157233000Y-112747000D01*
X157233000Y-112727000D01*
X156283750Y-112727000D01*
X156125000Y-112885750D01*
X156125000Y-113101310D01*
X156193863Y-113267560D01*
X156020000Y-113267560D01*
X155784683Y-113311838D01*
X155681354Y-113378329D01*
X155679698Y-113376673D01*
X155446309Y-113280000D01*
X155005750Y-113280000D01*
X154847000Y-113438750D01*
X154847000Y-114163000D01*
X154867000Y-114163000D01*
X154867000Y-114417000D01*
X154847000Y-114417000D01*
X154847000Y-114437000D01*
X154593000Y-114437000D01*
X154593000Y-114417000D01*
X153643750Y-114417000D01*
X153485000Y-114575750D01*
X153485000Y-114791310D01*
X153581673Y-115024699D01*
X153760302Y-115203327D01*
X153993691Y-115300000D01*
X154434250Y-115300000D01*
X154592998Y-115141252D01*
X154592998Y-115266161D01*
X154564921Y-115284921D01*
X153092440Y-116757402D01*
X153092440Y-116740000D01*
X153048162Y-116504683D01*
X152981671Y-116401354D01*
X152983327Y-116399698D01*
X153080000Y-116166309D01*
X153080000Y-115725750D01*
X152921250Y-115567000D01*
X152197000Y-115567000D01*
X152197000Y-115587000D01*
X151943000Y-115587000D01*
X151943000Y-115567000D01*
X151923000Y-115567000D01*
X151923000Y-115313000D01*
X151943000Y-115313000D01*
X151943000Y-114363750D01*
X152197000Y-114363750D01*
X152197000Y-115313000D01*
X152921250Y-115313000D01*
X153080000Y-115154250D01*
X153080000Y-114713691D01*
X152983327Y-114480302D01*
X152804699Y-114301673D01*
X152571310Y-114205000D01*
X152355750Y-114205000D01*
X152197000Y-114363750D01*
X151943000Y-114363750D01*
X151784250Y-114205000D01*
X151568690Y-114205000D01*
X151455000Y-114252092D01*
X151455000Y-114090000D01*
X151452609Y-114077978D01*
X151454630Y-114065886D01*
X151422815Y-113928196D01*
X151395245Y-113789594D01*
X151394642Y-113788690D01*
X153485000Y-113788690D01*
X153485000Y-114004250D01*
X153643750Y-114163000D01*
X154593000Y-114163000D01*
X154593000Y-113438750D01*
X154434250Y-113280000D01*
X153993691Y-113280000D01*
X153760302Y-113376673D01*
X153581673Y-113555301D01*
X153485000Y-113788690D01*
X151394642Y-113788690D01*
X151388434Y-113779400D01*
X151385674Y-113767457D01*
X151303596Y-113652430D01*
X151225079Y-113534921D01*
X151214886Y-113528110D01*
X151207766Y-113518132D01*
X149698311Y-112098690D01*
X156125000Y-112098690D01*
X156125000Y-112314250D01*
X156283750Y-112473000D01*
X157233000Y-112473000D01*
X157233000Y-111748750D01*
X157074250Y-111590000D01*
X156633691Y-111590000D01*
X156400302Y-111686673D01*
X156221673Y-111865301D01*
X156125000Y-112098690D01*
X149698311Y-112098690D01*
X149027768Y-111468134D01*
X148907906Y-111393266D01*
X148790408Y-111314757D01*
X148778386Y-111312366D01*
X148767988Y-111305871D01*
X148628594Y-111282570D01*
X148490002Y-111255002D01*
X145210102Y-111255002D01*
X145033765Y-111078357D01*
X144616756Y-110905199D01*
X144165225Y-110904805D01*
X143747914Y-111077235D01*
X143428355Y-111396237D01*
X143363231Y-111553073D01*
X142555908Y-110745750D01*
X154015000Y-110745750D01*
X154015000Y-110961310D01*
X154111673Y-111194699D01*
X154290302Y-111373327D01*
X154523691Y-111470000D01*
X154964250Y-111470000D01*
X155123000Y-111311250D01*
X155123000Y-110587000D01*
X154173750Y-110587000D01*
X154015000Y-110745750D01*
X142555908Y-110745750D01*
X142480158Y-110670000D01*
X142541079Y-110609079D01*
X142598073Y-110523781D01*
X142665728Y-110446675D01*
X142682419Y-110397547D01*
X142711244Y-110354407D01*
X142731256Y-110253800D01*
X142764258Y-110156664D01*
X142760878Y-110104888D01*
X142771000Y-110054000D01*
X142750986Y-109953387D01*
X142744303Y-109851022D01*
X142721366Y-109804480D01*
X142714531Y-109770116D01*
X148247231Y-109752608D01*
X148266235Y-109771645D01*
X148683244Y-109944803D01*
X148934865Y-109945023D01*
X148964921Y-109975079D01*
X149151526Y-110099764D01*
X149245910Y-110246441D01*
X149458110Y-110391431D01*
X149710000Y-110442440D01*
X150910000Y-110442440D01*
X151145317Y-110398162D01*
X151248646Y-110331671D01*
X151250302Y-110333327D01*
X151483691Y-110430000D01*
X151924250Y-110430000D01*
X152083000Y-110271250D01*
X152083000Y-109547000D01*
X152337000Y-109547000D01*
X152337000Y-110271250D01*
X152495750Y-110430000D01*
X152936309Y-110430000D01*
X153169698Y-110333327D01*
X153348327Y-110154699D01*
X153429516Y-109958690D01*
X154015000Y-109958690D01*
X154015000Y-110174250D01*
X154173750Y-110333000D01*
X155123000Y-110333000D01*
X155123000Y-109608750D01*
X154964250Y-109450000D01*
X154523691Y-109450000D01*
X154290302Y-109546673D01*
X154111673Y-109725301D01*
X154015000Y-109958690D01*
X153429516Y-109958690D01*
X153445000Y-109921310D01*
X153445000Y-109705750D01*
X153286250Y-109547000D01*
X152337000Y-109547000D01*
X152083000Y-109547000D01*
X152063000Y-109547000D01*
X152063000Y-109293000D01*
X152083000Y-109293000D01*
X152083000Y-109273000D01*
X152337000Y-109273000D01*
X152337000Y-109293000D01*
X153286250Y-109293000D01*
X153445000Y-109134250D01*
X153445000Y-108918690D01*
X153348327Y-108685301D01*
X153238025Y-108575000D01*
X155944842Y-108575000D01*
X156807402Y-109437560D01*
G36*
X196864999Y-97715156D02*
X196864999Y-100415820D01*
X196646756Y-100325197D01*
X196195225Y-100324803D01*
X195777914Y-100497233D01*
X195458355Y-100816235D01*
X195285197Y-101233244D01*
X195285082Y-101365000D01*
X153570102Y-101365000D01*
X153393765Y-101188355D01*
X152976756Y-101015197D01*
X152525225Y-101014803D01*
X152107914Y-101187233D01*
X151788355Y-101506235D01*
X151615197Y-101923244D01*
X151614803Y-102374775D01*
X151787233Y-102792086D01*
X151959846Y-102965000D01*
X150012475Y-102965000D01*
X150042086Y-102952765D01*
X150361645Y-102633763D01*
X150534803Y-102216754D01*
X150535023Y-101965133D01*
X153614406Y-98885750D01*
X186795000Y-98885750D01*
X186795000Y-99101310D01*
X186891673Y-99334699D01*
X187070302Y-99513327D01*
X187303691Y-99610000D01*
X187744250Y-99610000D01*
X187903000Y-99451250D01*
X187903000Y-98727000D01*
X186953750Y-98727000D01*
X186795000Y-98885750D01*
X153614406Y-98885750D01*
X155024406Y-97475750D01*
X186795000Y-97475750D01*
X186795000Y-97691310D01*
X186879371Y-97895000D01*
X186795000Y-98098690D01*
X186795000Y-98314250D01*
X186953750Y-98473000D01*
X187903000Y-98473000D01*
X187903000Y-97317000D01*
X186953750Y-97317000D01*
X186795000Y-97475750D01*
X155024406Y-97475750D01*
X155811466Y-96688690D01*
X186795000Y-96688690D01*
X186795000Y-96904250D01*
X186953750Y-97063000D01*
X187903000Y-97063000D01*
X187903000Y-96338750D01*
X187744250Y-96180000D01*
X187303691Y-96180000D01*
X187070302Y-96276673D01*
X186891673Y-96455301D01*
X186795000Y-96688690D01*
X155811466Y-96688690D01*
X156325156Y-96175000D01*
X189290460Y-96175000D01*
X189094683Y-96211838D01*
X188991354Y-96278329D01*
X188989698Y-96276673D01*
X188756309Y-96180000D01*
X188315750Y-96180000D01*
X188157000Y-96338750D01*
X188157000Y-97063000D01*
X188177000Y-97063000D01*
X188177000Y-97317000D01*
X188157000Y-97317000D01*
X188157000Y-98473000D01*
X188177000Y-98473000D01*
X188177000Y-98727000D01*
X188157000Y-98727000D01*
X188157000Y-99451250D01*
X188315750Y-99610000D01*
X188756309Y-99610000D01*
X188989698Y-99513327D01*
X188991068Y-99511957D01*
X189078110Y-99571431D01*
X189330000Y-99622440D01*
X190530000Y-99622440D01*
X190765317Y-99578162D01*
X190863474Y-99515000D01*
X191039898Y-99515000D01*
X191216235Y-99691645D01*
X191633244Y-99864803D01*
X192084775Y-99865197D01*
X192502086Y-99692767D01*
X192821645Y-99373765D01*
X192994803Y-98956756D01*
X192995197Y-98505225D01*
X192822767Y-98087914D01*
X192503765Y-97768355D01*
X192086756Y-97595197D01*
X191635225Y-97594803D01*
X191217914Y-97767233D01*
X191140011Y-97845000D01*
X191107224Y-97845000D01*
X191126431Y-97816890D01*
X191177440Y-97565000D01*
X191177440Y-96815000D01*
X191133162Y-96579683D01*
X190994090Y-96363559D01*
X190781890Y-96218569D01*
X190566740Y-96175000D01*
X192799898Y-96175000D01*
X192976235Y-96351645D01*
X193393244Y-96524803D01*
X193844775Y-96525197D01*
X194262086Y-96352767D01*
X194581645Y-96033765D01*
X194754803Y-95616756D01*
X194754813Y-95604970D01*
X196864999Y-97715156D01*
X196864999Y-97715156D01*
G37*
X196864999Y-97715156D02*
X196864999Y-100415820D01*
X196646756Y-100325197D01*
X196195225Y-100324803D01*
X195777914Y-100497233D01*
X195458355Y-100816235D01*
X195285197Y-101233244D01*
X195285082Y-101365000D01*
X153570102Y-101365000D01*
X153393765Y-101188355D01*
X152976756Y-101015197D01*
X152525225Y-101014803D01*
X152107914Y-101187233D01*
X151788355Y-101506235D01*
X151615197Y-101923244D01*
X151614803Y-102374775D01*
X151787233Y-102792086D01*
X151959846Y-102965000D01*
X150012475Y-102965000D01*
X150042086Y-102952765D01*
X150361645Y-102633763D01*
X150534803Y-102216754D01*
X150535023Y-101965133D01*
X153614406Y-98885750D01*
X186795000Y-98885750D01*
X186795000Y-99101310D01*
X186891673Y-99334699D01*
X187070302Y-99513327D01*
X187303691Y-99610000D01*
X187744250Y-99610000D01*
X187903000Y-99451250D01*
X187903000Y-98727000D01*
X186953750Y-98727000D01*
X186795000Y-98885750D01*
X153614406Y-98885750D01*
X155024406Y-97475750D01*
X186795000Y-97475750D01*
X186795000Y-97691310D01*
X186879371Y-97895000D01*
X186795000Y-98098690D01*
X186795000Y-98314250D01*
X186953750Y-98473000D01*
X187903000Y-98473000D01*
X187903000Y-97317000D01*
X186953750Y-97317000D01*
X186795000Y-97475750D01*
X155024406Y-97475750D01*
X155811466Y-96688690D01*
X186795000Y-96688690D01*
X186795000Y-96904250D01*
X186953750Y-97063000D01*
X187903000Y-97063000D01*
X187903000Y-96338750D01*
X187744250Y-96180000D01*
X187303691Y-96180000D01*
X187070302Y-96276673D01*
X186891673Y-96455301D01*
X186795000Y-96688690D01*
X155811466Y-96688690D01*
X156325156Y-96175000D01*
X189290460Y-96175000D01*
X189094683Y-96211838D01*
X188991354Y-96278329D01*
X188989698Y-96276673D01*
X188756309Y-96180000D01*
X188315750Y-96180000D01*
X188157000Y-96338750D01*
X188157000Y-97063000D01*
X188177000Y-97063000D01*
X188177000Y-97317000D01*
X188157000Y-97317000D01*
X188157000Y-98473000D01*
X188177000Y-98473000D01*
X188177000Y-98727000D01*
X188157000Y-98727000D01*
X188157000Y-99451250D01*
X188315750Y-99610000D01*
X188756309Y-99610000D01*
X188989698Y-99513327D01*
X188991068Y-99511957D01*
X189078110Y-99571431D01*
X189330000Y-99622440D01*
X190530000Y-99622440D01*
X190765317Y-99578162D01*
X190863474Y-99515000D01*
X191039898Y-99515000D01*
X191216235Y-99691645D01*
X191633244Y-99864803D01*
X192084775Y-99865197D01*
X192502086Y-99692767D01*
X192821645Y-99373765D01*
X192994803Y-98956756D01*
X192995197Y-98505225D01*
X192822767Y-98087914D01*
X192503765Y-97768355D01*
X192086756Y-97595197D01*
X191635225Y-97594803D01*
X191217914Y-97767233D01*
X191140011Y-97845000D01*
X191107224Y-97845000D01*
X191126431Y-97816890D01*
X191177440Y-97565000D01*
X191177440Y-96815000D01*
X191133162Y-96579683D01*
X190994090Y-96363559D01*
X190781890Y-96218569D01*
X190566740Y-96175000D01*
X192799898Y-96175000D01*
X192976235Y-96351645D01*
X193393244Y-96524803D01*
X193844775Y-96525197D01*
X194262086Y-96352767D01*
X194581645Y-96033765D01*
X194754803Y-95616756D01*
X194754813Y-95604970D01*
X196864999Y-97715156D01*
G36*
X106719281Y-100460656D02*
X106635172Y-100663212D01*
X106634830Y-101055069D01*
X106727382Y-101279061D01*
X102261868Y-101271349D01*
X102214415Y-101200330D01*
X101899634Y-100990000D01*
X102214415Y-100779670D01*
X102433631Y-100451590D01*
X103219591Y-100450002D01*
X106719281Y-100460656D01*
X106719281Y-100460656D01*
G37*
X106719281Y-100460656D02*
X106635172Y-100663212D01*
X106634830Y-101055069D01*
X106727382Y-101279061D01*
X102261868Y-101271349D01*
X102214415Y-101200330D01*
X101899634Y-100990000D01*
X102214415Y-100779670D01*
X102433631Y-100451590D01*
X103219591Y-100450002D01*
X106719281Y-100460656D01*
G36*
X112077422Y-100476967D02*
X111975172Y-100723212D01*
X111974830Y-101115069D01*
X112037951Y-101267835D01*
X108513460Y-101276826D01*
X108604828Y-101056788D01*
X108605170Y-100664931D01*
X108523034Y-100466146D01*
X112077422Y-100476967D01*
X112077422Y-100476967D01*
G37*
X112077422Y-100476967D02*
X111975172Y-100723212D01*
X111974830Y-101115069D01*
X112037951Y-101267835D01*
X108513460Y-101276826D01*
X108604828Y-101056788D01*
X108605170Y-100664931D01*
X108523034Y-100466146D01*
X112077422Y-100476967D01*
M02*
