%TF.GenerationSoftware,KiCad,Pcbnew,4.0.7*%
%TF.CreationDate,2018-08-29T22:41:10+01:00*%
%TF.ProjectId,RGBToComposite,524742546F436F6D706F736974652E6B,rev?*%
%TF.FileFunction,Copper,L1,Top,Signal*%
%FSLAX46Y46*%
G04 Gerber Fmt 4.6, Leading zero omitted, Abs format (unit mm)*
G04 Created by KiCad (PCBNEW 4.0.7) date 08/29/18 22:41:10*
%MOMM*%
%LPD*%
G01*
G04 APERTURE LIST*
%ADD10C,0.150000*%
%ADD11C,0.700000*%
%ADD12C,2.499360*%
%ADD13C,1.000000*%
%ADD14R,1.727200X2.032000*%
%ADD15O,1.727200X2.032000*%
%ADD16R,1.500000X0.600000*%
%ADD17R,0.750000X1.200000*%
%ADD18R,1.200000X0.750000*%
%ADD19R,2.032000X1.727200*%
%ADD20O,2.032000X1.727200*%
%ADD21R,0.900000X1.200000*%
%ADD22R,1.200000X0.900000*%
%ADD23R,2.000000X3.800000*%
%ADD24R,2.000000X1.500000*%
%ADD25R,0.800000X0.600000*%
%ADD26R,5.600700X2.100580*%
%ADD27O,2.500000X1.000000*%
%ADD28O,1.000000X2.500000*%
%ADD29R,2.032000X2.032000*%
%ADD30O,2.032000X2.032000*%
%ADD31R,1.250000X1.500000*%
%ADD32R,0.600000X0.800000*%
%ADD33R,0.800000X0.900000*%
%ADD34R,1.700000X1.700000*%
%ADD35O,1.700000X1.700000*%
%ADD36C,0.300000*%
%ADD37C,0.200000*%
%ADD38C,0.400000*%
%ADD39C,0.152400*%
%ADD40C,0.254000*%
G04 APERTURE END LIST*
D10*
X99060000Y-82550000D02*
X99060000Y-133350000D01*
X203200000Y-82550000D02*
X99060000Y-82550000D01*
X203200000Y-133350000D02*
X203200000Y-82550000D01*
X99060000Y-133350000D02*
X203200000Y-133350000D01*
D11*
X107620000Y-100860000D03*
X104170000Y-100860000D03*
D12*
X116950000Y-115065000D03*
X106790000Y-115065000D03*
D13*
X107230000Y-109190000D03*
X111150000Y-110470000D03*
X114490000Y-108810000D03*
X115900000Y-105990000D03*
X105730000Y-105840000D03*
D11*
X111090000Y-105470000D03*
X112960000Y-100920000D03*
X136670000Y-105215000D03*
X130520000Y-105215000D03*
X201005000Y-87225000D03*
X192930000Y-84800000D03*
X192895000Y-120065000D03*
X185005000Y-116465000D03*
X187330000Y-115265000D03*
X186880000Y-118490000D03*
X173505000Y-120215000D03*
X110140000Y-100890000D03*
X108350000Y-98410000D03*
X104945000Y-98315000D03*
X104945000Y-98315000D03*
X107495000Y-89065000D03*
X107495000Y-89065000D03*
X104770000Y-94790000D03*
X103670000Y-89140000D03*
X111220000Y-95540000D03*
X104770000Y-94790000D03*
X108320000Y-95465000D03*
X126495000Y-98440000D03*
X129620000Y-95565000D03*
X123920000Y-95365000D03*
X121345000Y-98440000D03*
X124920000Y-89765000D03*
X123995000Y-93715000D03*
X154820000Y-112390000D03*
X153745000Y-119340000D03*
X154495000Y-118540000D03*
X145070000Y-89565000D03*
X166640000Y-92665000D03*
X159390000Y-89440000D03*
X132895000Y-111540000D03*
X136870000Y-115190000D03*
X139320000Y-112965000D03*
X140645000Y-90690000D03*
X116620000Y-111640000D03*
X109220000Y-117765000D03*
X108545000Y-111715000D03*
X112895000Y-114865000D03*
X121845000Y-115765000D03*
X123345000Y-111565000D03*
X151120000Y-111640000D03*
X152245000Y-106615000D03*
X153420000Y-110665000D03*
X153545000Y-115665000D03*
X192420000Y-112840000D03*
X185370000Y-111890000D03*
X199670000Y-121990000D03*
D10*
G36*
X142518373Y-114328478D02*
X142306241Y-114116346D01*
X143366901Y-113055686D01*
X143579033Y-113267818D01*
X142518373Y-114328478D01*
X142518373Y-114328478D01*
G37*
G36*
X142871926Y-114682031D02*
X142659794Y-114469899D01*
X143720454Y-113409239D01*
X143932586Y-113621371D01*
X142871926Y-114682031D01*
X142871926Y-114682031D01*
G37*
G36*
X143225480Y-115035584D02*
X143013348Y-114823452D01*
X144074008Y-113762792D01*
X144286140Y-113974924D01*
X143225480Y-115035584D01*
X143225480Y-115035584D01*
G37*
G36*
X143579033Y-115389138D02*
X143366901Y-115177006D01*
X144427561Y-114116346D01*
X144639693Y-114328478D01*
X143579033Y-115389138D01*
X143579033Y-115389138D01*
G37*
G36*
X143932587Y-115742691D02*
X143720455Y-115530559D01*
X144781115Y-114469899D01*
X144993247Y-114682031D01*
X143932587Y-115742691D01*
X143932587Y-115742691D01*
G37*
G36*
X144286140Y-116096244D02*
X144074008Y-115884112D01*
X145134668Y-114823452D01*
X145346800Y-115035584D01*
X144286140Y-116096244D01*
X144286140Y-116096244D01*
G37*
G36*
X144639693Y-116449798D02*
X144427561Y-116237666D01*
X145488221Y-115177006D01*
X145700353Y-115389138D01*
X144639693Y-116449798D01*
X144639693Y-116449798D01*
G37*
G36*
X144993247Y-116803351D02*
X144781115Y-116591219D01*
X145841775Y-115530559D01*
X146053907Y-115742691D01*
X144993247Y-116803351D01*
X144993247Y-116803351D01*
G37*
G36*
X145346800Y-117156905D02*
X145134668Y-116944773D01*
X146195328Y-115884113D01*
X146407460Y-116096245D01*
X145346800Y-117156905D01*
X145346800Y-117156905D01*
G37*
G36*
X145700354Y-117510458D02*
X145488222Y-117298326D01*
X146548882Y-116237666D01*
X146761014Y-116449798D01*
X145700354Y-117510458D01*
X145700354Y-117510458D01*
G37*
G36*
X146053907Y-117864011D02*
X145841775Y-117651879D01*
X146902435Y-116591219D01*
X147114567Y-116803351D01*
X146053907Y-117864011D01*
X146053907Y-117864011D01*
G37*
G36*
X146407460Y-118217565D02*
X146195328Y-118005433D01*
X147255988Y-116944773D01*
X147468120Y-117156905D01*
X146407460Y-118217565D01*
X146407460Y-118217565D01*
G37*
G36*
X146761014Y-118571118D02*
X146548882Y-118358986D01*
X147609542Y-117298326D01*
X147821674Y-117510458D01*
X146761014Y-118571118D01*
X146761014Y-118571118D01*
G37*
G36*
X147114567Y-118924672D02*
X146902435Y-118712540D01*
X147963095Y-117651880D01*
X148175227Y-117864012D01*
X147114567Y-118924672D01*
X147114567Y-118924672D01*
G37*
G36*
X147468121Y-119278225D02*
X147255989Y-119066093D01*
X148316649Y-118005433D01*
X148528781Y-118217565D01*
X147468121Y-119278225D01*
X147468121Y-119278225D01*
G37*
G36*
X147821674Y-119631778D02*
X147609542Y-119419646D01*
X148670202Y-118358986D01*
X148882334Y-118571118D01*
X147821674Y-119631778D01*
X147821674Y-119631778D01*
G37*
G36*
X148175227Y-119985332D02*
X147963095Y-119773200D01*
X149023755Y-118712540D01*
X149235887Y-118924672D01*
X148175227Y-119985332D01*
X148175227Y-119985332D01*
G37*
G36*
X148528781Y-120338885D02*
X148316649Y-120126753D01*
X149377309Y-119066093D01*
X149589441Y-119278225D01*
X148528781Y-120338885D01*
X148528781Y-120338885D01*
G37*
G36*
X148882334Y-120692439D02*
X148670202Y-120480307D01*
X149730862Y-119419647D01*
X149942994Y-119631779D01*
X148882334Y-120692439D01*
X148882334Y-120692439D01*
G37*
G36*
X149235888Y-121045992D02*
X149023756Y-120833860D01*
X150084416Y-119773200D01*
X150296548Y-119985332D01*
X149235888Y-121045992D01*
X149235888Y-121045992D01*
G37*
G36*
X149589441Y-121399545D02*
X149377309Y-121187413D01*
X150437969Y-120126753D01*
X150650101Y-120338885D01*
X149589441Y-121399545D01*
X149589441Y-121399545D01*
G37*
G36*
X149942994Y-121753099D02*
X149730862Y-121540967D01*
X150791522Y-120480307D01*
X151003654Y-120692439D01*
X149942994Y-121753099D01*
X149942994Y-121753099D01*
G37*
G36*
X150296548Y-122106652D02*
X150084416Y-121894520D01*
X151145076Y-120833860D01*
X151357208Y-121045992D01*
X150296548Y-122106652D01*
X150296548Y-122106652D01*
G37*
G36*
X150650101Y-122460206D02*
X150437969Y-122248074D01*
X151498629Y-121187414D01*
X151710761Y-121399546D01*
X150650101Y-122460206D01*
X150650101Y-122460206D01*
G37*
G36*
X151003654Y-122813759D02*
X150791522Y-122601627D01*
X151852182Y-121540967D01*
X152064314Y-121753099D01*
X151003654Y-122813759D01*
X151003654Y-122813759D01*
G37*
G36*
X154468478Y-122601627D02*
X154256346Y-122813759D01*
X153195686Y-121753099D01*
X153407818Y-121540967D01*
X154468478Y-122601627D01*
X154468478Y-122601627D01*
G37*
G36*
X154822031Y-122248074D02*
X154609899Y-122460206D01*
X153549239Y-121399546D01*
X153761371Y-121187414D01*
X154822031Y-122248074D01*
X154822031Y-122248074D01*
G37*
G36*
X155175584Y-121894520D02*
X154963452Y-122106652D01*
X153902792Y-121045992D01*
X154114924Y-120833860D01*
X155175584Y-121894520D01*
X155175584Y-121894520D01*
G37*
G36*
X155529138Y-121540967D02*
X155317006Y-121753099D01*
X154256346Y-120692439D01*
X154468478Y-120480307D01*
X155529138Y-121540967D01*
X155529138Y-121540967D01*
G37*
G36*
X155882691Y-121187413D02*
X155670559Y-121399545D01*
X154609899Y-120338885D01*
X154822031Y-120126753D01*
X155882691Y-121187413D01*
X155882691Y-121187413D01*
G37*
G36*
X156236244Y-120833860D02*
X156024112Y-121045992D01*
X154963452Y-119985332D01*
X155175584Y-119773200D01*
X156236244Y-120833860D01*
X156236244Y-120833860D01*
G37*
G36*
X156589798Y-120480307D02*
X156377666Y-120692439D01*
X155317006Y-119631779D01*
X155529138Y-119419647D01*
X156589798Y-120480307D01*
X156589798Y-120480307D01*
G37*
G36*
X156943351Y-120126753D02*
X156731219Y-120338885D01*
X155670559Y-119278225D01*
X155882691Y-119066093D01*
X156943351Y-120126753D01*
X156943351Y-120126753D01*
G37*
G36*
X157296905Y-119773200D02*
X157084773Y-119985332D01*
X156024113Y-118924672D01*
X156236245Y-118712540D01*
X157296905Y-119773200D01*
X157296905Y-119773200D01*
G37*
G36*
X157650458Y-119419646D02*
X157438326Y-119631778D01*
X156377666Y-118571118D01*
X156589798Y-118358986D01*
X157650458Y-119419646D01*
X157650458Y-119419646D01*
G37*
G36*
X158004011Y-119066093D02*
X157791879Y-119278225D01*
X156731219Y-118217565D01*
X156943351Y-118005433D01*
X158004011Y-119066093D01*
X158004011Y-119066093D01*
G37*
G36*
X158357565Y-118712540D02*
X158145433Y-118924672D01*
X157084773Y-117864012D01*
X157296905Y-117651880D01*
X158357565Y-118712540D01*
X158357565Y-118712540D01*
G37*
G36*
X158711118Y-118358986D02*
X158498986Y-118571118D01*
X157438326Y-117510458D01*
X157650458Y-117298326D01*
X158711118Y-118358986D01*
X158711118Y-118358986D01*
G37*
G36*
X159064672Y-118005433D02*
X158852540Y-118217565D01*
X157791880Y-117156905D01*
X158004012Y-116944773D01*
X159064672Y-118005433D01*
X159064672Y-118005433D01*
G37*
G36*
X159418225Y-117651879D02*
X159206093Y-117864011D01*
X158145433Y-116803351D01*
X158357565Y-116591219D01*
X159418225Y-117651879D01*
X159418225Y-117651879D01*
G37*
G36*
X159771778Y-117298326D02*
X159559646Y-117510458D01*
X158498986Y-116449798D01*
X158711118Y-116237666D01*
X159771778Y-117298326D01*
X159771778Y-117298326D01*
G37*
G36*
X160125332Y-116944773D02*
X159913200Y-117156905D01*
X158852540Y-116096245D01*
X159064672Y-115884113D01*
X160125332Y-116944773D01*
X160125332Y-116944773D01*
G37*
G36*
X160478885Y-116591219D02*
X160266753Y-116803351D01*
X159206093Y-115742691D01*
X159418225Y-115530559D01*
X160478885Y-116591219D01*
X160478885Y-116591219D01*
G37*
G36*
X160832439Y-116237666D02*
X160620307Y-116449798D01*
X159559647Y-115389138D01*
X159771779Y-115177006D01*
X160832439Y-116237666D01*
X160832439Y-116237666D01*
G37*
G36*
X161185992Y-115884112D02*
X160973860Y-116096244D01*
X159913200Y-115035584D01*
X160125332Y-114823452D01*
X161185992Y-115884112D01*
X161185992Y-115884112D01*
G37*
G36*
X161539545Y-115530559D02*
X161327413Y-115742691D01*
X160266753Y-114682031D01*
X160478885Y-114469899D01*
X161539545Y-115530559D01*
X161539545Y-115530559D01*
G37*
G36*
X161893099Y-115177006D02*
X161680967Y-115389138D01*
X160620307Y-114328478D01*
X160832439Y-114116346D01*
X161893099Y-115177006D01*
X161893099Y-115177006D01*
G37*
G36*
X162246652Y-114823452D02*
X162034520Y-115035584D01*
X160973860Y-113974924D01*
X161185992Y-113762792D01*
X162246652Y-114823452D01*
X162246652Y-114823452D01*
G37*
G36*
X162600206Y-114469899D02*
X162388074Y-114682031D01*
X161327414Y-113621371D01*
X161539546Y-113409239D01*
X162600206Y-114469899D01*
X162600206Y-114469899D01*
G37*
G36*
X162953759Y-114116346D02*
X162741627Y-114328478D01*
X161680967Y-113267818D01*
X161893099Y-113055686D01*
X162953759Y-114116346D01*
X162953759Y-114116346D01*
G37*
G36*
X161893099Y-111924314D02*
X161680967Y-111712182D01*
X162741627Y-110651522D01*
X162953759Y-110863654D01*
X161893099Y-111924314D01*
X161893099Y-111924314D01*
G37*
G36*
X161539546Y-111570761D02*
X161327414Y-111358629D01*
X162388074Y-110297969D01*
X162600206Y-110510101D01*
X161539546Y-111570761D01*
X161539546Y-111570761D01*
G37*
G36*
X161185992Y-111217208D02*
X160973860Y-111005076D01*
X162034520Y-109944416D01*
X162246652Y-110156548D01*
X161185992Y-111217208D01*
X161185992Y-111217208D01*
G37*
G36*
X160832439Y-110863654D02*
X160620307Y-110651522D01*
X161680967Y-109590862D01*
X161893099Y-109802994D01*
X160832439Y-110863654D01*
X160832439Y-110863654D01*
G37*
G36*
X160478885Y-110510101D02*
X160266753Y-110297969D01*
X161327413Y-109237309D01*
X161539545Y-109449441D01*
X160478885Y-110510101D01*
X160478885Y-110510101D01*
G37*
G36*
X160125332Y-110156548D02*
X159913200Y-109944416D01*
X160973860Y-108883756D01*
X161185992Y-109095888D01*
X160125332Y-110156548D01*
X160125332Y-110156548D01*
G37*
G36*
X159771779Y-109802994D02*
X159559647Y-109590862D01*
X160620307Y-108530202D01*
X160832439Y-108742334D01*
X159771779Y-109802994D01*
X159771779Y-109802994D01*
G37*
G36*
X159418225Y-109449441D02*
X159206093Y-109237309D01*
X160266753Y-108176649D01*
X160478885Y-108388781D01*
X159418225Y-109449441D01*
X159418225Y-109449441D01*
G37*
G36*
X159064672Y-109095887D02*
X158852540Y-108883755D01*
X159913200Y-107823095D01*
X160125332Y-108035227D01*
X159064672Y-109095887D01*
X159064672Y-109095887D01*
G37*
G36*
X158711118Y-108742334D02*
X158498986Y-108530202D01*
X159559646Y-107469542D01*
X159771778Y-107681674D01*
X158711118Y-108742334D01*
X158711118Y-108742334D01*
G37*
G36*
X158357565Y-108388781D02*
X158145433Y-108176649D01*
X159206093Y-107115989D01*
X159418225Y-107328121D01*
X158357565Y-108388781D01*
X158357565Y-108388781D01*
G37*
G36*
X158004012Y-108035227D02*
X157791880Y-107823095D01*
X158852540Y-106762435D01*
X159064672Y-106974567D01*
X158004012Y-108035227D01*
X158004012Y-108035227D01*
G37*
G36*
X157650458Y-107681674D02*
X157438326Y-107469542D01*
X158498986Y-106408882D01*
X158711118Y-106621014D01*
X157650458Y-107681674D01*
X157650458Y-107681674D01*
G37*
G36*
X157296905Y-107328120D02*
X157084773Y-107115988D01*
X158145433Y-106055328D01*
X158357565Y-106267460D01*
X157296905Y-107328120D01*
X157296905Y-107328120D01*
G37*
G36*
X156943351Y-106974567D02*
X156731219Y-106762435D01*
X157791879Y-105701775D01*
X158004011Y-105913907D01*
X156943351Y-106974567D01*
X156943351Y-106974567D01*
G37*
G36*
X156589798Y-106621014D02*
X156377666Y-106408882D01*
X157438326Y-105348222D01*
X157650458Y-105560354D01*
X156589798Y-106621014D01*
X156589798Y-106621014D01*
G37*
G36*
X156236245Y-106267460D02*
X156024113Y-106055328D01*
X157084773Y-104994668D01*
X157296905Y-105206800D01*
X156236245Y-106267460D01*
X156236245Y-106267460D01*
G37*
G36*
X155882691Y-105913907D02*
X155670559Y-105701775D01*
X156731219Y-104641115D01*
X156943351Y-104853247D01*
X155882691Y-105913907D01*
X155882691Y-105913907D01*
G37*
G36*
X155529138Y-105560353D02*
X155317006Y-105348221D01*
X156377666Y-104287561D01*
X156589798Y-104499693D01*
X155529138Y-105560353D01*
X155529138Y-105560353D01*
G37*
G36*
X155175584Y-105206800D02*
X154963452Y-104994668D01*
X156024112Y-103934008D01*
X156236244Y-104146140D01*
X155175584Y-105206800D01*
X155175584Y-105206800D01*
G37*
G36*
X154822031Y-104853247D02*
X154609899Y-104641115D01*
X155670559Y-103580455D01*
X155882691Y-103792587D01*
X154822031Y-104853247D01*
X154822031Y-104853247D01*
G37*
G36*
X154468478Y-104499693D02*
X154256346Y-104287561D01*
X155317006Y-103226901D01*
X155529138Y-103439033D01*
X154468478Y-104499693D01*
X154468478Y-104499693D01*
G37*
G36*
X154114924Y-104146140D02*
X153902792Y-103934008D01*
X154963452Y-102873348D01*
X155175584Y-103085480D01*
X154114924Y-104146140D01*
X154114924Y-104146140D01*
G37*
G36*
X153761371Y-103792586D02*
X153549239Y-103580454D01*
X154609899Y-102519794D01*
X154822031Y-102731926D01*
X153761371Y-103792586D01*
X153761371Y-103792586D01*
G37*
G36*
X153407818Y-103439033D02*
X153195686Y-103226901D01*
X154256346Y-102166241D01*
X154468478Y-102378373D01*
X153407818Y-103439033D01*
X153407818Y-103439033D01*
G37*
G36*
X152064314Y-103226901D02*
X151852182Y-103439033D01*
X150791522Y-102378373D01*
X151003654Y-102166241D01*
X152064314Y-103226901D01*
X152064314Y-103226901D01*
G37*
G36*
X151710761Y-103580454D02*
X151498629Y-103792586D01*
X150437969Y-102731926D01*
X150650101Y-102519794D01*
X151710761Y-103580454D01*
X151710761Y-103580454D01*
G37*
G36*
X151357208Y-103934008D02*
X151145076Y-104146140D01*
X150084416Y-103085480D01*
X150296548Y-102873348D01*
X151357208Y-103934008D01*
X151357208Y-103934008D01*
G37*
G36*
X151003654Y-104287561D02*
X150791522Y-104499693D01*
X149730862Y-103439033D01*
X149942994Y-103226901D01*
X151003654Y-104287561D01*
X151003654Y-104287561D01*
G37*
G36*
X150650101Y-104641115D02*
X150437969Y-104853247D01*
X149377309Y-103792587D01*
X149589441Y-103580455D01*
X150650101Y-104641115D01*
X150650101Y-104641115D01*
G37*
G36*
X150296548Y-104994668D02*
X150084416Y-105206800D01*
X149023756Y-104146140D01*
X149235888Y-103934008D01*
X150296548Y-104994668D01*
X150296548Y-104994668D01*
G37*
G36*
X149942994Y-105348221D02*
X149730862Y-105560353D01*
X148670202Y-104499693D01*
X148882334Y-104287561D01*
X149942994Y-105348221D01*
X149942994Y-105348221D01*
G37*
G36*
X149589441Y-105701775D02*
X149377309Y-105913907D01*
X148316649Y-104853247D01*
X148528781Y-104641115D01*
X149589441Y-105701775D01*
X149589441Y-105701775D01*
G37*
G36*
X149235887Y-106055328D02*
X149023755Y-106267460D01*
X147963095Y-105206800D01*
X148175227Y-104994668D01*
X149235887Y-106055328D01*
X149235887Y-106055328D01*
G37*
G36*
X148882334Y-106408882D02*
X148670202Y-106621014D01*
X147609542Y-105560354D01*
X147821674Y-105348222D01*
X148882334Y-106408882D01*
X148882334Y-106408882D01*
G37*
G36*
X148528781Y-106762435D02*
X148316649Y-106974567D01*
X147255989Y-105913907D01*
X147468121Y-105701775D01*
X148528781Y-106762435D01*
X148528781Y-106762435D01*
G37*
G36*
X148175227Y-107115988D02*
X147963095Y-107328120D01*
X146902435Y-106267460D01*
X147114567Y-106055328D01*
X148175227Y-107115988D01*
X148175227Y-107115988D01*
G37*
G36*
X147821674Y-107469542D02*
X147609542Y-107681674D01*
X146548882Y-106621014D01*
X146761014Y-106408882D01*
X147821674Y-107469542D01*
X147821674Y-107469542D01*
G37*
G36*
X147468120Y-107823095D02*
X147255988Y-108035227D01*
X146195328Y-106974567D01*
X146407460Y-106762435D01*
X147468120Y-107823095D01*
X147468120Y-107823095D01*
G37*
G36*
X147114567Y-108176649D02*
X146902435Y-108388781D01*
X145841775Y-107328121D01*
X146053907Y-107115989D01*
X147114567Y-108176649D01*
X147114567Y-108176649D01*
G37*
G36*
X146761014Y-108530202D02*
X146548882Y-108742334D01*
X145488222Y-107681674D01*
X145700354Y-107469542D01*
X146761014Y-108530202D01*
X146761014Y-108530202D01*
G37*
G36*
X146407460Y-108883755D02*
X146195328Y-109095887D01*
X145134668Y-108035227D01*
X145346800Y-107823095D01*
X146407460Y-108883755D01*
X146407460Y-108883755D01*
G37*
G36*
X146053907Y-109237309D02*
X145841775Y-109449441D01*
X144781115Y-108388781D01*
X144993247Y-108176649D01*
X146053907Y-109237309D01*
X146053907Y-109237309D01*
G37*
G36*
X145700353Y-109590862D02*
X145488221Y-109802994D01*
X144427561Y-108742334D01*
X144639693Y-108530202D01*
X145700353Y-109590862D01*
X145700353Y-109590862D01*
G37*
G36*
X145346800Y-109944416D02*
X145134668Y-110156548D01*
X144074008Y-109095888D01*
X144286140Y-108883756D01*
X145346800Y-109944416D01*
X145346800Y-109944416D01*
G37*
G36*
X144993247Y-110297969D02*
X144781115Y-110510101D01*
X143720455Y-109449441D01*
X143932587Y-109237309D01*
X144993247Y-110297969D01*
X144993247Y-110297969D01*
G37*
G36*
X144639693Y-110651522D02*
X144427561Y-110863654D01*
X143366901Y-109802994D01*
X143579033Y-109590862D01*
X144639693Y-110651522D01*
X144639693Y-110651522D01*
G37*
G36*
X144286140Y-111005076D02*
X144074008Y-111217208D01*
X143013348Y-110156548D01*
X143225480Y-109944416D01*
X144286140Y-111005076D01*
X144286140Y-111005076D01*
G37*
G36*
X143932586Y-111358629D02*
X143720454Y-111570761D01*
X142659794Y-110510101D01*
X142871926Y-110297969D01*
X143932586Y-111358629D01*
X143932586Y-111358629D01*
G37*
G36*
X143579033Y-111712182D02*
X143366901Y-111924314D01*
X142306241Y-110863654D01*
X142518373Y-110651522D01*
X143579033Y-111712182D01*
X143579033Y-111712182D01*
G37*
D11*
X110595000Y-83740000D03*
X168820000Y-85530000D03*
X178545000Y-87140000D03*
X175980000Y-116890000D03*
X197720000Y-109390000D03*
X199370000Y-98590000D03*
X172120000Y-105040000D03*
X169320000Y-104980000D03*
X178040000Y-98560000D03*
X168930000Y-98440000D03*
X174470000Y-111190000D03*
X164350000Y-106210000D03*
X192570000Y-108110000D03*
X191790000Y-103580000D03*
X194580000Y-90450000D03*
X187150000Y-84080000D03*
X148840000Y-87265000D03*
X130320000Y-97340000D03*
X147770000Y-113290000D03*
X149320000Y-116390000D03*
X153190000Y-105540000D03*
X147570000Y-110700000D03*
X152570000Y-113465000D03*
X154545000Y-106490000D03*
X150445000Y-106565000D03*
X130270000Y-115840000D03*
X105045000Y-110090000D03*
D14*
X200650000Y-131640000D03*
D15*
X198110000Y-131640000D03*
X195570000Y-131640000D03*
X193030000Y-131640000D03*
X190490000Y-131640000D03*
X187950000Y-131640000D03*
X185410000Y-131640000D03*
X182870000Y-131640000D03*
X180330000Y-131640000D03*
X177790000Y-131640000D03*
X175250000Y-131640000D03*
X172710000Y-131640000D03*
X170170000Y-131640000D03*
X167630000Y-131640000D03*
X165090000Y-131640000D03*
X162550000Y-131640000D03*
X160010000Y-131640000D03*
X157470000Y-131640000D03*
X154930000Y-131640000D03*
X152390000Y-131640000D03*
X149850000Y-131640000D03*
X147310000Y-131640000D03*
X144770000Y-131640000D03*
X142230000Y-131640000D03*
X139690000Y-131640000D03*
X137150000Y-131640000D03*
X134610000Y-131640000D03*
X132070000Y-131640000D03*
X129530000Y-131640000D03*
X126990000Y-131640000D03*
X124450000Y-131640000D03*
X121910000Y-131640000D03*
X119370000Y-131640000D03*
X116830000Y-131640000D03*
X114290000Y-131640000D03*
X111750000Y-131640000D03*
X109210000Y-131640000D03*
X106670000Y-131640000D03*
X104130000Y-131640000D03*
X101590000Y-131640000D03*
D16*
X185220000Y-97095000D03*
X185220000Y-98365000D03*
X185220000Y-99635000D03*
X185220000Y-100905000D03*
X185220000Y-102175000D03*
X185220000Y-103445000D03*
X185220000Y-104715000D03*
X185220000Y-105985000D03*
X194520000Y-105985000D03*
X194520000Y-104715000D03*
X194520000Y-103445000D03*
X194520000Y-102175000D03*
X194520000Y-100905000D03*
X194520000Y-99635000D03*
X194520000Y-98365000D03*
X194520000Y-97095000D03*
D17*
X179890000Y-118110000D03*
X179890000Y-120010000D03*
D18*
X165540000Y-85990000D03*
X163640000Y-85990000D03*
X180160000Y-106330000D03*
X182060000Y-106330000D03*
X180160000Y-104790000D03*
X182060000Y-104790000D03*
D19*
X201430000Y-106380000D03*
D20*
X201430000Y-108920000D03*
X201430000Y-111460000D03*
X201430000Y-114000000D03*
X201430000Y-116540000D03*
X201430000Y-119080000D03*
D21*
X201500000Y-98900000D03*
X201500000Y-101100000D03*
X158665000Y-95835000D03*
X158665000Y-98035000D03*
X156975000Y-95845000D03*
X156975000Y-98045000D03*
X155275000Y-95835000D03*
X155275000Y-98035000D03*
X153525000Y-95835000D03*
X153525000Y-98035000D03*
X151700000Y-95810000D03*
X151700000Y-98010000D03*
X149915000Y-95815000D03*
X149915000Y-98015000D03*
X148225000Y-95815000D03*
X148225000Y-98015000D03*
X146545000Y-95805000D03*
X146545000Y-98005000D03*
X144880000Y-95810000D03*
X144880000Y-98010000D03*
X143210000Y-95810000D03*
X143210000Y-98010000D03*
D22*
X176560000Y-107370000D03*
X174360000Y-107370000D03*
X176560000Y-104910000D03*
X174360000Y-104910000D03*
X176500000Y-102030000D03*
X174300000Y-102030000D03*
X165580000Y-84280000D03*
X163380000Y-84280000D03*
X182470000Y-85940000D03*
X184670000Y-85940000D03*
D23*
X189350000Y-115850000D03*
D24*
X183050000Y-115850000D03*
X183050000Y-118150000D03*
X183050000Y-113550000D03*
D18*
X180160000Y-103270000D03*
X182060000Y-103270000D03*
X173370000Y-84010000D03*
X175270000Y-84010000D03*
D25*
X201550000Y-94370000D03*
X201550000Y-96070000D03*
D26*
X174081140Y-92430000D03*
X183778860Y-92430000D03*
D27*
X190009000Y-93160500D03*
D28*
X198010000Y-87890000D03*
D21*
X162070000Y-95840000D03*
X162070000Y-98040000D03*
X160350000Y-95840000D03*
X160350000Y-98040000D03*
D19*
X100970000Y-128690000D03*
D20*
X100970000Y-126150000D03*
X100970000Y-123610000D03*
X100970000Y-121070000D03*
X100970000Y-118530000D03*
X100970000Y-115990000D03*
X100970000Y-113450000D03*
X100970000Y-110910000D03*
D19*
X100970000Y-107340000D03*
D20*
X100970000Y-104800000D03*
X100970000Y-102260000D03*
X100970000Y-99720000D03*
X100970000Y-97180000D03*
D21*
X122920000Y-87040000D03*
X122920000Y-84840000D03*
X120895000Y-87015000D03*
X120895000Y-84815000D03*
X118745000Y-87015000D03*
X118745000Y-84815000D03*
X116445000Y-87015000D03*
X116445000Y-84815000D03*
X114070000Y-87015000D03*
X114070000Y-84815000D03*
D17*
X107445000Y-84765000D03*
X107445000Y-86665000D03*
D29*
X100920000Y-86865000D03*
D30*
X100920000Y-84325000D03*
D22*
X151270000Y-128390000D03*
X149070000Y-128390000D03*
D31*
X178730000Y-115690000D03*
X178730000Y-113190000D03*
D32*
X134689000Y-85139000D03*
X132989000Y-85139000D03*
D22*
X131129000Y-85139000D03*
X128929000Y-85139000D03*
D25*
X111620000Y-84965000D03*
X111620000Y-86665000D03*
X109620000Y-86665000D03*
X109620000Y-84965000D03*
D32*
X131820000Y-106365000D03*
X133520000Y-106365000D03*
D21*
X105345000Y-86965000D03*
X105345000Y-84765000D03*
D18*
X173210000Y-86060000D03*
X175110000Y-86060000D03*
D33*
X129145000Y-106365000D03*
X127245000Y-106365000D03*
X128195000Y-108365000D03*
D18*
X125295000Y-92790000D03*
X127195000Y-92790000D03*
X125295000Y-94715000D03*
X127195000Y-94715000D03*
D22*
X125120000Y-96465000D03*
X127320000Y-96465000D03*
D34*
X100870000Y-92790000D03*
D35*
X100870000Y-90250000D03*
D13*
X141170000Y-108990000D03*
X148910000Y-108810000D03*
X161070000Y-112600000D03*
X158890000Y-110450000D03*
X145630000Y-113950000D03*
X152420000Y-120790000D03*
X156370000Y-115840000D03*
X143520000Y-130465000D03*
X156195000Y-130415000D03*
X143495000Y-126340000D03*
X128220000Y-112965000D03*
X158470000Y-126340000D03*
X170370000Y-118090000D03*
X189740000Y-112410000D03*
X189730000Y-108997590D03*
X191860000Y-98730000D03*
X199160000Y-126870000D03*
X196660000Y-126800000D03*
X193720000Y-126890000D03*
X190960000Y-126810000D03*
X188240000Y-126710000D03*
X185520000Y-126520000D03*
X183450000Y-126730000D03*
X180810000Y-126640000D03*
X152420000Y-122490000D03*
X144390000Y-112040002D03*
X134795000Y-126315000D03*
X132970000Y-126365000D03*
X130370000Y-126365000D03*
X127845000Y-126340000D03*
X125320000Y-126365000D03*
X122770000Y-126390000D03*
X120220000Y-126390000D03*
X117645000Y-126365000D03*
X108740000Y-123190000D03*
X114610000Y-123190000D03*
X113395000Y-122065000D03*
X106295000Y-122065000D03*
X167020000Y-115440000D03*
X163645000Y-116065000D03*
X169895000Y-114940000D03*
X147260000Y-103700000D03*
X162515802Y-117784198D03*
X164679615Y-117770385D03*
X155370000Y-123440000D03*
X152750000Y-102150000D03*
X196420000Y-101460000D03*
X149400000Y-101989998D03*
X193620000Y-95390000D03*
X171130000Y-83980000D03*
X197150000Y-104740000D03*
X115395000Y-103240000D03*
X117070000Y-102040000D03*
X119645000Y-99715000D03*
X122920000Y-89490000D03*
X122920000Y-97115000D03*
X127645000Y-87865000D03*
X111620000Y-88115000D03*
X155920000Y-125090000D03*
X153420000Y-124340000D03*
X151270000Y-124340000D03*
X156020000Y-117640000D03*
X162845000Y-112890000D03*
X172120000Y-120390000D03*
X135320000Y-96465000D03*
X131970000Y-96540000D03*
X124670000Y-91065000D03*
D36*
X147185278Y-107045278D02*
X147185278Y-107005278D01*
X147185278Y-107005278D02*
X130145000Y-89965000D01*
X122899000Y-84879000D02*
X127970000Y-89965000D01*
X130145000Y-89965000D02*
X127970000Y-89965000D01*
X111620000Y-84965000D02*
X113959000Y-84926000D01*
X113959000Y-84926000D02*
X114070000Y-84815000D01*
D37*
X143649744Y-110580812D02*
X143610812Y-110580812D01*
X143610812Y-110580812D02*
X142020000Y-108990000D01*
D38*
X142020000Y-108990000D02*
X141170000Y-108990000D01*
D36*
X122920000Y-84840000D02*
X122899000Y-84879000D01*
X146510025Y-106460025D02*
X146532724Y-106460025D01*
X146532724Y-106460025D02*
X147117977Y-107045278D01*
X147117977Y-107045278D02*
X147185278Y-107045278D01*
D38*
X196834000Y-106426000D02*
X201384000Y-106426000D01*
X180990000Y-111510000D02*
X180990000Y-115840000D01*
X182300000Y-110200000D02*
X180990000Y-111510000D01*
X193060000Y-110200000D02*
X182300000Y-110200000D01*
X196834000Y-106426000D02*
X193060000Y-110200000D01*
D37*
X201384000Y-106426000D02*
X201430000Y-106380000D01*
D36*
X201552000Y-106046000D02*
X201552000Y-101222000D01*
X201552000Y-101222000D02*
X201520000Y-101190000D01*
X201520000Y-101340000D02*
X201520000Y-101190000D01*
D38*
X180990000Y-115840000D02*
X178880000Y-115840000D01*
D36*
X178880000Y-115840000D02*
X178730000Y-115690000D01*
X147185278Y-107045278D02*
X147185278Y-107085278D01*
X147185278Y-107085278D02*
X148910000Y-108810000D01*
X162317363Y-111287918D02*
X162317363Y-111352637D01*
X162317363Y-111352637D02*
X161070000Y-112600000D01*
D38*
X178730000Y-115690000D02*
X173060000Y-115690000D01*
X173060000Y-115690000D02*
X168180000Y-110810000D01*
X168180000Y-110810000D02*
X165370000Y-110810000D01*
X165370000Y-110810000D02*
X163445000Y-111640000D01*
X163445000Y-111640000D02*
X161070000Y-112600000D01*
D36*
X162317363Y-111287918D02*
X162262082Y-111287918D01*
D37*
X162317363Y-111287918D02*
X162270082Y-111287918D01*
D36*
X189350000Y-115850000D02*
X190260000Y-115850000D01*
D38*
X180990000Y-115840000D02*
X180990000Y-115900000D01*
X180990000Y-115900000D02*
X183000000Y-115900000D01*
D36*
X114070000Y-84815000D02*
X116445000Y-84815000D01*
X116445000Y-84815000D02*
X118745000Y-84815000D01*
X118745000Y-84815000D02*
X120895000Y-84815000D01*
X120895000Y-84815000D02*
X122920000Y-84840000D01*
X122920000Y-84840000D02*
X122963000Y-84797000D01*
X183000000Y-115900000D02*
X183050000Y-115850000D01*
D37*
X160173402Y-109166598D02*
X158890000Y-110450000D01*
X145630000Y-113950000D02*
X145513146Y-113950000D01*
X145513146Y-113950000D02*
X144356851Y-115106295D01*
D36*
X160196043Y-109166598D02*
X160173402Y-109166598D01*
D37*
X160196043Y-109166598D02*
X160196043Y-109243957D01*
D36*
X152420000Y-120790000D02*
X153760000Y-122080000D01*
D37*
X156370000Y-115840000D02*
X158098722Y-117966722D01*
D36*
X143632812Y-110612812D02*
X143673744Y-110612812D01*
X150013705Y-120763149D02*
X150021851Y-120763149D01*
X150021851Y-120763149D02*
X150795000Y-119990000D01*
X150795000Y-119990000D02*
X150795000Y-119165000D01*
D37*
X148599491Y-105631064D02*
X148599491Y-105639491D01*
X148599491Y-105639491D02*
X149670000Y-106710000D01*
X153832082Y-102802637D02*
X153832082Y-102817918D01*
X153832082Y-102817918D02*
X153090000Y-103560000D01*
X153090000Y-103560000D02*
X153090000Y-104210000D01*
X155953402Y-104923957D02*
X155953402Y-104946598D01*
X155953402Y-104946598D02*
X154720000Y-106180000D01*
X158428276Y-107398831D02*
X158411169Y-107398831D01*
X158411169Y-107398831D02*
X157380000Y-108430000D01*
X160196043Y-115813402D02*
X160196043Y-115786043D01*
X160196043Y-115786043D02*
X159110000Y-114700000D01*
X155599848Y-120409596D02*
X155589596Y-120409596D01*
X155589596Y-120409596D02*
X154550000Y-119370000D01*
X150013705Y-120763149D02*
X150016851Y-120763149D01*
X142942637Y-111287918D02*
X142942082Y-111287918D01*
X142942082Y-111287918D02*
X142680000Y-111550000D01*
X148599491Y-105631064D02*
X148599491Y-105649491D01*
X153832082Y-102802637D02*
X153827363Y-102802637D01*
X155953402Y-104923957D02*
X155953402Y-104926598D01*
X158428276Y-107398831D02*
X158428276Y-107411724D01*
X155599848Y-120409596D02*
X155599848Y-120389848D01*
X150013705Y-120763149D02*
X150013705Y-120666295D01*
D36*
X150013705Y-120763149D02*
X150036851Y-120763149D01*
X185220000Y-97095000D02*
X185240000Y-97075000D01*
X143495000Y-126340000D02*
X143495000Y-130440000D01*
X143495000Y-130440000D02*
X143520000Y-130465000D01*
X156195000Y-130415000D02*
X156395000Y-130215000D01*
X156395000Y-130215000D02*
X157470000Y-130215000D01*
X128220000Y-112965000D02*
X128245593Y-108415593D01*
X128245593Y-108415593D02*
X128195000Y-108365000D01*
X128219407Y-113014745D02*
X128219745Y-113014407D01*
X128219745Y-112964745D02*
X128219745Y-113014407D01*
X128219745Y-112964745D02*
X128220000Y-112965000D01*
D38*
X157470000Y-131640000D02*
X157470000Y-130215000D01*
X157470000Y-130215000D02*
X157470000Y-127340000D01*
X157470000Y-127340000D02*
X158470000Y-126340000D01*
X170390000Y-118110000D02*
X179890000Y-118110000D01*
X170370000Y-118090000D02*
X170390000Y-118110000D01*
X189730000Y-102010000D02*
X189730000Y-108997590D01*
X189240001Y-112909999D02*
X187020001Y-112909999D01*
X189740000Y-112410000D02*
X189240001Y-112909999D01*
X187020001Y-112909999D02*
X186150000Y-113780000D01*
X186150000Y-113780000D02*
X186150000Y-117340000D01*
X185340000Y-118150000D02*
X183050000Y-118150000D01*
X186150000Y-117340000D02*
X185340000Y-118150000D01*
X189710000Y-101990000D02*
X189730000Y-102010000D01*
X179890000Y-118110000D02*
X183010000Y-118110000D01*
D36*
X183010000Y-118110000D02*
X183050000Y-118150000D01*
D38*
X191890000Y-99635000D02*
X191890000Y-98760000D01*
X191890000Y-98760000D02*
X191860000Y-98730000D01*
X185220000Y-102175000D02*
X189525000Y-102175000D01*
X189525000Y-102175000D02*
X189710000Y-101990000D01*
X185220000Y-100905000D02*
X189535000Y-100905000D01*
X189535000Y-100905000D02*
X189710000Y-100730000D01*
X194520000Y-99635000D02*
X191890000Y-99635000D01*
X191890000Y-99635000D02*
X190345000Y-99635000D01*
X190345000Y-99635000D02*
X189710000Y-100270000D01*
X189710000Y-100270000D02*
X189710000Y-100730000D01*
X189710000Y-100730000D02*
X189710000Y-101990000D01*
D37*
X199925000Y-126105000D02*
X199925000Y-126015000D01*
X199160000Y-126870000D02*
X199925000Y-126105000D01*
X200650000Y-126740000D02*
X199925000Y-126015000D01*
X162994082Y-113724082D02*
X170440000Y-121170000D01*
X200650000Y-131640000D02*
X200650000Y-126740000D01*
X195080000Y-121170000D02*
X199925000Y-126015000D01*
X162341363Y-113724082D02*
X162994082Y-113724082D01*
X170440000Y-121170000D02*
X195080000Y-121170000D01*
X101600000Y-129540000D02*
X101590000Y-129550000D01*
X197285000Y-126145000D02*
X197285000Y-126175000D01*
X197285000Y-126175000D02*
X196660000Y-126800000D01*
X198110000Y-126970000D02*
X197285000Y-126145000D01*
X192762411Y-121622411D02*
X197285000Y-126145000D01*
X170303996Y-121622411D02*
X192762411Y-121622411D01*
X198110000Y-131640000D02*
X198110000Y-126970000D01*
X162857765Y-114947590D02*
X163629175Y-114947590D01*
X161987810Y-114077635D02*
X162857765Y-114947590D01*
X163629175Y-114947590D02*
X170303996Y-121622411D01*
X194460001Y-126220001D02*
X194389999Y-126220001D01*
X194389999Y-126220001D02*
X193720000Y-126890000D01*
X195570000Y-127330000D02*
X194460001Y-126220001D01*
X195570000Y-131640000D02*
X195570000Y-127330000D01*
X190314822Y-122074822D02*
X194460001Y-126220001D01*
X160983455Y-115138295D02*
X167919982Y-122074822D01*
X160927149Y-115138295D02*
X160983455Y-115138295D01*
X167919982Y-122074822D02*
X190314822Y-122074822D01*
X191610000Y-126140000D02*
X191610000Y-126160000D01*
X191610000Y-126160000D02*
X190960000Y-126810000D01*
X187997233Y-122527233D02*
X191610000Y-126140000D01*
X191610000Y-126140000D02*
X193030000Y-127560000D01*
X166194767Y-122527233D02*
X187997233Y-122527233D01*
X159866489Y-116198955D02*
X166194767Y-122527233D01*
X193030000Y-131640000D02*
X193030000Y-127560000D01*
X188825000Y-126125000D02*
X188825000Y-126095000D01*
X188240000Y-126710000D02*
X188825000Y-126125000D01*
X188825000Y-126095000D02*
X190490000Y-127760000D01*
X190490000Y-131640000D02*
X190490000Y-127760000D01*
X185709644Y-122979644D02*
X188825000Y-126095000D01*
X165940071Y-122979644D02*
X185709644Y-122979644D01*
X159512936Y-116552509D02*
X165940071Y-122979644D01*
X186100000Y-125940000D02*
X186100000Y-125910000D01*
X185520000Y-126520000D02*
X186100000Y-125940000D01*
X159159382Y-116906062D02*
X165685375Y-123432055D01*
X183622055Y-123432055D02*
X186100000Y-125910000D01*
X165685375Y-123432055D02*
X183622055Y-123432055D01*
X186100000Y-125910000D02*
X187950000Y-127760000D01*
X187950000Y-127760000D02*
X187950000Y-131640000D01*
X183990000Y-126190000D02*
X183990000Y-126150000D01*
X183450000Y-126730000D02*
X183990000Y-126190000D01*
X181730000Y-123890000D02*
X183990000Y-126150000D01*
X165436214Y-123890000D02*
X181730000Y-123890000D01*
X158805829Y-117259615D02*
X165436214Y-123890000D01*
X183990000Y-126150000D02*
X185420000Y-127580000D01*
X185420000Y-127580000D02*
X185420000Y-131630000D01*
X185420000Y-131630000D02*
X185410000Y-131640000D01*
X181400000Y-126050000D02*
X181400000Y-125814503D01*
X180810000Y-126640000D02*
X181400000Y-126050000D01*
X158452276Y-117613169D02*
X165184641Y-124345534D01*
X182870000Y-131640000D02*
X182870000Y-127284503D01*
X182870000Y-127284503D02*
X181400000Y-125814503D01*
X165184641Y-124345534D02*
X179931031Y-124345534D01*
X179931031Y-124345534D02*
X181400000Y-125814503D01*
X157745169Y-118320276D02*
X164222838Y-124797945D01*
X164222838Y-124797945D02*
X169717165Y-124797945D01*
X169717165Y-124797945D02*
X169719576Y-124800356D01*
X169719576Y-124800356D02*
X177580356Y-124800356D01*
X177580356Y-124800356D02*
X180330000Y-127550000D01*
X180330000Y-127550000D02*
X180330000Y-131640000D01*
X157391615Y-118673829D02*
X163968142Y-125250356D01*
X169529771Y-125250356D02*
X169532182Y-125252767D01*
X169532182Y-125252767D02*
X175342767Y-125252767D01*
X163968142Y-125250356D02*
X169529771Y-125250356D01*
X175342767Y-125252767D02*
X177800000Y-127710000D01*
X177800000Y-127710000D02*
X177800000Y-131630000D01*
X177800000Y-131630000D02*
X177790000Y-131640000D01*
X157038062Y-119027382D02*
X163713447Y-125702767D01*
X163713447Y-125702767D02*
X169342377Y-125702767D01*
X169342377Y-125702767D02*
X169344788Y-125705178D01*
X169344788Y-125705178D02*
X173245178Y-125705178D01*
X173245178Y-125705178D02*
X175260000Y-127720000D01*
X175260000Y-127720000D02*
X175260000Y-131630000D01*
X175260000Y-131630000D02*
X175250000Y-131640000D01*
X156684509Y-119380936D02*
X163458751Y-126155178D01*
X163458751Y-126155178D02*
X169154983Y-126155178D01*
X169154983Y-126155178D02*
X169157394Y-126157589D01*
X172720000Y-127700000D02*
X172720000Y-131630000D01*
X172720000Y-131630000D02*
X172710000Y-131640000D01*
X171177589Y-126157589D02*
X172720000Y-127700000D01*
X169157394Y-126157589D02*
X171177589Y-126157589D01*
X156330955Y-119734489D02*
X163204055Y-126607589D01*
X163204055Y-126607589D02*
X168967589Y-126607589D01*
X168967589Y-126607589D02*
X170180000Y-127820000D01*
X170180000Y-127820000D02*
X170180000Y-131630000D01*
X170180000Y-131630000D02*
X170170000Y-131640000D01*
X155977402Y-120088043D02*
X162949359Y-127060000D01*
X162949359Y-127060000D02*
X166720000Y-127060000D01*
X166720000Y-127060000D02*
X167640000Y-127980000D01*
X167640000Y-127980000D02*
X167640000Y-131630000D01*
X167640000Y-131630000D02*
X167630000Y-131640000D01*
X165100000Y-129540000D02*
X165090000Y-129550000D01*
X165090000Y-129550000D02*
X165090000Y-131640000D01*
X165100000Y-129540000D02*
X165100000Y-128080000D01*
X162102446Y-127560000D02*
X155337595Y-120795149D01*
X165100000Y-128080000D02*
X164580000Y-127560000D01*
X164580000Y-127560000D02*
X162102446Y-127560000D01*
X155337595Y-120795149D02*
X155270295Y-120795149D01*
X154916742Y-121148703D02*
X162560000Y-128791961D01*
X162560000Y-128791961D02*
X162560000Y-131630000D01*
X162560000Y-131630000D02*
X162550000Y-131640000D01*
X114290000Y-131640000D02*
X114290000Y-125270000D01*
X141909957Y-118967402D02*
X145063957Y-115813402D01*
X120592598Y-118967402D02*
X141909957Y-118967402D01*
X114290000Y-125270000D02*
X120592598Y-118967402D01*
X154563188Y-121502256D02*
X156700000Y-123639068D01*
X156700000Y-123639068D02*
X156700000Y-126464000D01*
X156700000Y-126464000D02*
X154940000Y-128224000D01*
X154940000Y-128224000D02*
X154940000Y-131630000D01*
X154940000Y-131630000D02*
X154930000Y-131640000D01*
D36*
X152420000Y-122490000D02*
X152400000Y-122510000D01*
X143320190Y-110970192D02*
X144390000Y-112040002D01*
X152400000Y-122510000D02*
X152400000Y-131630000D01*
D37*
X152400000Y-131630000D02*
X152390000Y-131640000D01*
X143320190Y-110966365D02*
X143320190Y-110970192D01*
D36*
X149850000Y-131640000D02*
X149850000Y-129170000D01*
X149850000Y-129170000D02*
X149070000Y-128390000D01*
D37*
X147320000Y-129540000D02*
X147310000Y-129550000D01*
X147310000Y-129550000D02*
X147310000Y-131640000D01*
X147320000Y-129540000D02*
X147320000Y-122805748D01*
X147320000Y-122805748D02*
X149684152Y-120441596D01*
X144780000Y-129540000D02*
X144770000Y-129550000D01*
X144770000Y-129550000D02*
X144770000Y-131640000D01*
X144780000Y-129540000D02*
X144780000Y-124638641D01*
X144780000Y-124638641D02*
X149330598Y-120088043D01*
X142240000Y-129540000D02*
X142230000Y-129550000D01*
X142230000Y-129550000D02*
X142230000Y-131640000D01*
X142240000Y-126471534D02*
X148977045Y-119734489D01*
X142240000Y-129540000D02*
X142240000Y-126471534D01*
X148599491Y-119348936D02*
X148586064Y-119348936D01*
X148586064Y-119348936D02*
X144970000Y-122965000D01*
X139690000Y-125295000D02*
X139690000Y-131640000D01*
X142020000Y-122965000D02*
X139690000Y-125295000D01*
X144970000Y-122965000D02*
X142020000Y-122965000D01*
X148245938Y-118995382D02*
X148214618Y-118995382D01*
X148214618Y-118995382D02*
X144645000Y-122565000D01*
X144645000Y-122565000D02*
X139120000Y-122565000D01*
X139120000Y-122565000D02*
X137150000Y-124535000D01*
X137150000Y-124535000D02*
X137150000Y-131640000D01*
X147892385Y-118641829D02*
X147892385Y-118642615D01*
X147892385Y-118642615D02*
X144370000Y-122165000D01*
X144370000Y-122165000D02*
X138945000Y-122165000D01*
X138945000Y-122165000D02*
X134795000Y-126315000D01*
X134610000Y-126500000D02*
X134610000Y-129900000D01*
X134795000Y-126315000D02*
X134610000Y-126500000D01*
X134610000Y-129915000D02*
X134610000Y-131640000D01*
X147907787Y-118673829D02*
X147916385Y-118673829D01*
X132945000Y-126390000D02*
X132070000Y-126390000D01*
X132970000Y-126365000D02*
X132945000Y-126390000D01*
X147538831Y-118288276D02*
X147521724Y-118288276D01*
X147521724Y-118288276D02*
X144070000Y-121740000D01*
X144070000Y-121740000D02*
X133170000Y-121740000D01*
X133170000Y-121740000D02*
X132070000Y-122840000D01*
X132070000Y-122840000D02*
X132070000Y-126390000D01*
X132070000Y-126390000D02*
X132070000Y-131640000D01*
X132120000Y-131590000D02*
X132070000Y-131640000D01*
X147541340Y-118320276D02*
X147562831Y-118320276D01*
X130370000Y-126365000D02*
X129530000Y-126365000D01*
X129530000Y-126365000D02*
X129520000Y-126365000D01*
X129520000Y-126365000D02*
X129530000Y-126365000D01*
X129530000Y-131640000D02*
X129530000Y-126365000D01*
X129530000Y-126365000D02*
X129530000Y-122307402D01*
X143805000Y-121315000D02*
X147185278Y-117934722D01*
X130522402Y-121315000D02*
X143805000Y-121315000D01*
X129530000Y-122307402D02*
X130522402Y-121315000D01*
X129545000Y-131625000D02*
X129530000Y-131640000D01*
X127845000Y-126340000D02*
X127820000Y-126315000D01*
X127820000Y-126315000D02*
X126990000Y-126315000D01*
X126990000Y-131640000D02*
X126990000Y-126315000D01*
X126990000Y-126315000D02*
X126990000Y-121745000D01*
X143497893Y-120915000D02*
X146831724Y-117581169D01*
X127820000Y-120915000D02*
X143497893Y-120915000D01*
X126990000Y-121745000D02*
X127820000Y-120915000D01*
X127020000Y-131610000D02*
X126990000Y-131640000D01*
X127000000Y-131630000D02*
X126990000Y-131640000D01*
X146855724Y-117613169D02*
X146834911Y-117613169D01*
X125320000Y-126365000D02*
X124450000Y-126365000D01*
X124450000Y-126365000D02*
X124445000Y-126365000D01*
X124445000Y-126365000D02*
X124450000Y-126365000D01*
X124450000Y-131640000D02*
X124450000Y-126365000D01*
X124450000Y-126365000D02*
X124450000Y-121285000D01*
X143190786Y-120515000D02*
X146478171Y-117227615D01*
X125220000Y-120515000D02*
X143190786Y-120515000D01*
X124450000Y-121285000D02*
X125220000Y-120515000D01*
X124542500Y-131547500D02*
X124450000Y-131640000D01*
X124460000Y-131630000D02*
X124450000Y-131640000D01*
X122695000Y-126315000D02*
X121910000Y-126315000D01*
X122770000Y-126390000D02*
X122695000Y-126315000D01*
X121910000Y-131640000D02*
X121910000Y-126315000D01*
X121910000Y-126315000D02*
X121910000Y-121225000D01*
X142883680Y-120115000D02*
X146124618Y-116874062D01*
X123020000Y-120115000D02*
X142883680Y-120115000D01*
X121910000Y-121225000D02*
X123020000Y-120115000D01*
X121920000Y-131630000D02*
X121910000Y-131640000D01*
X121920000Y-131630000D02*
X121910000Y-131640000D01*
X120195000Y-126365000D02*
X119370000Y-126365000D01*
X120220000Y-126390000D02*
X120195000Y-126365000D01*
X119370000Y-131640000D02*
X119370000Y-126365000D01*
X119370000Y-126365000D02*
X119370000Y-121242402D01*
X142576573Y-119715000D02*
X145771064Y-116520509D01*
X120897402Y-119715000D02*
X142576573Y-119715000D01*
X119370000Y-121242402D02*
X120897402Y-119715000D01*
X117645000Y-126365000D02*
X117620000Y-126390000D01*
X117620000Y-126390000D02*
X116830000Y-126390000D01*
X116830000Y-131640000D02*
X116830000Y-126390000D01*
X116830000Y-126390000D02*
X116830000Y-123259804D01*
X142244466Y-119340000D02*
X145417511Y-116166955D01*
X120749804Y-119340000D02*
X142244466Y-119340000D01*
X116830000Y-123259804D02*
X120749804Y-119340000D01*
X116882500Y-131587500D02*
X116830000Y-131640000D01*
X120395000Y-118615000D02*
X141555252Y-118615000D01*
X116742739Y-122262739D02*
X116747261Y-122262739D01*
X141555252Y-118615000D02*
X144710404Y-115459848D01*
X116747261Y-122262739D02*
X120395000Y-118615000D01*
X111750000Y-131640000D02*
X111750000Y-127255478D01*
X111750000Y-127255478D02*
X116742739Y-122262739D01*
X116742739Y-122262739D02*
X116790478Y-122215000D01*
X144734404Y-115491848D02*
X144734404Y-115495596D01*
X109210000Y-131640000D02*
X109210000Y-125150000D01*
X139876825Y-117465000D02*
X143296190Y-114045635D01*
X116895000Y-117465000D02*
X139876825Y-117465000D01*
X109210000Y-125150000D02*
X116895000Y-117465000D01*
X106670000Y-131640000D02*
X106670000Y-127190000D01*
X139544719Y-117090000D02*
X142942637Y-113692082D01*
X116770000Y-117090000D02*
X139544719Y-117090000D01*
X106670000Y-127190000D02*
X116770000Y-117090000D01*
X114610000Y-123190000D02*
X114610000Y-121350000D01*
X104130000Y-127800000D02*
X108740000Y-123190000D01*
X104130000Y-131640000D02*
X104130000Y-127800000D01*
X140516039Y-118240000D02*
X144003297Y-114752742D01*
X117720000Y-118240000D02*
X140516039Y-118240000D01*
X114610000Y-121350000D02*
X117720000Y-118240000D01*
X143649744Y-114399188D02*
X143635812Y-114399188D01*
X143635812Y-114399188D02*
X140217598Y-117817402D01*
X140217598Y-117817402D02*
X117642598Y-117817402D01*
X117642598Y-117817402D02*
X113395000Y-122065000D01*
X106295000Y-122065000D02*
X103120000Y-125240000D01*
X103120000Y-125240000D02*
X103120000Y-130110000D01*
X103120000Y-130110000D02*
X101590000Y-131640000D01*
X167020000Y-115440000D02*
X169395000Y-115440000D01*
X169395000Y-115440000D02*
X169895000Y-114940000D01*
X169570000Y-115265000D02*
X169895000Y-114940000D01*
X161610256Y-114399188D02*
X163288037Y-116065000D01*
X163288037Y-116065000D02*
X163645000Y-116065000D01*
X169895000Y-114970000D02*
X169895000Y-114940000D01*
X147260000Y-103700000D02*
X148837511Y-105277511D01*
X148837511Y-105277511D02*
X148953045Y-105277511D01*
X160549848Y-115459848D02*
X161520000Y-116430000D01*
X161520000Y-116430000D02*
X161520000Y-116800000D01*
X161520000Y-116800000D02*
X162504198Y-117784198D01*
X162504198Y-117784198D02*
X162515802Y-117784198D01*
X160549596Y-115459848D02*
X160549848Y-115459848D01*
X163774347Y-117270386D02*
X161256703Y-114752742D01*
X164179616Y-117270386D02*
X164679615Y-117770385D01*
X163774347Y-117270386D02*
X164179616Y-117270386D01*
D36*
X155010000Y-122600000D02*
X154233810Y-121823810D01*
X155370000Y-123440000D02*
X155010000Y-122600000D01*
X154233810Y-121823810D02*
X154185635Y-121823810D01*
D39*
X158665000Y-105747893D02*
X157721169Y-106691724D01*
X158665000Y-98035000D02*
X158665000Y-105747893D01*
X156975000Y-98045000D02*
X156975000Y-100095000D01*
X156975000Y-100095000D02*
X158260000Y-101380000D01*
X158260000Y-101380000D02*
X158260000Y-105445786D01*
X158260000Y-105445786D02*
X157367615Y-106338171D01*
X156975000Y-98045000D02*
X157213518Y-98045000D01*
X155275000Y-98035000D02*
X155275000Y-98835000D01*
X155275000Y-98835000D02*
X157710000Y-101270000D01*
X157710000Y-101270000D02*
X157710000Y-105288680D01*
X157710000Y-105288680D02*
X157014062Y-105984618D01*
X153530000Y-98190000D02*
X153530000Y-99170000D01*
X153530000Y-99170000D02*
X153790378Y-99430378D01*
X153790378Y-99430378D02*
X155439312Y-99430378D01*
X157405189Y-101396255D02*
X157405189Y-104886384D01*
X157405189Y-104886384D02*
X156660509Y-105631064D01*
X155439312Y-99430378D02*
X157405189Y-101396255D01*
X153525000Y-98035000D02*
X153525000Y-98185000D01*
D37*
X153530000Y-98190000D02*
X153525000Y-98185000D01*
D39*
X151700000Y-98010000D02*
X151700000Y-99190000D01*
X151700000Y-99190000D02*
X152245189Y-99735189D01*
X152245189Y-99735189D02*
X155313055Y-99735189D01*
X155313055Y-99735189D02*
X157100378Y-101522511D01*
X157100378Y-101522511D02*
X157100378Y-104484088D01*
X157100378Y-104484088D02*
X156306955Y-105277511D01*
X149915000Y-98015000D02*
X149915000Y-99205000D01*
X150750000Y-100040000D02*
X155186801Y-100040000D01*
X149915000Y-99205000D02*
X150750000Y-100040000D01*
X155186801Y-100040000D02*
X156795567Y-101648767D01*
X156795567Y-101648767D02*
X156795567Y-103374685D01*
X156795567Y-103374685D02*
X155599848Y-104570404D01*
X148225000Y-98015000D02*
X148225000Y-99245000D01*
X148225000Y-99245000D02*
X149324811Y-100344811D01*
X149324811Y-100344811D02*
X155060546Y-100344811D01*
X155060546Y-100344811D02*
X156490756Y-101775022D01*
X156490756Y-101775022D02*
X156490756Y-102972390D01*
X156490756Y-102972390D02*
X155246295Y-104216851D01*
X146545000Y-98005000D02*
X146545000Y-99145000D01*
X146545000Y-99145000D02*
X148049622Y-100649622D01*
X148049622Y-100649622D02*
X154934290Y-100649622D01*
X154934290Y-100649622D02*
X156185945Y-101901278D01*
X156185945Y-101901278D02*
X156185945Y-102570094D01*
X156185945Y-102570094D02*
X154892742Y-103863297D01*
X144880000Y-98010000D02*
X144880000Y-99110000D01*
X144880000Y-99110000D02*
X146724433Y-100954433D01*
X155474811Y-101663744D02*
X155474811Y-102574121D01*
X146724433Y-100954433D02*
X154765500Y-100954433D01*
X154765500Y-100954433D02*
X155474811Y-101663744D01*
X155474811Y-102574121D02*
X154539188Y-103509744D01*
X145379244Y-101259244D02*
X154639244Y-101259244D01*
X155170000Y-101790000D02*
X155170000Y-102171825D01*
X143210000Y-98010000D02*
X143210000Y-99090000D01*
X143210000Y-99090000D02*
X145379244Y-101259244D01*
X154639244Y-101259244D02*
X155170000Y-101790000D01*
X155170000Y-102171825D02*
X154185635Y-103156190D01*
D36*
X194520000Y-98365000D02*
X195725000Y-98365000D01*
D37*
X150924731Y-105171444D02*
X152750000Y-103346175D01*
X152750000Y-103346175D02*
X152750000Y-102150000D01*
D36*
X150261192Y-105171444D02*
X150924731Y-105171444D01*
X149660152Y-104570404D02*
X150261192Y-105171444D01*
X196420000Y-99060000D02*
X196420000Y-101460000D01*
X195725000Y-98365000D02*
X196420000Y-99060000D01*
X194520000Y-97095000D02*
X194520000Y-96290000D01*
X148705558Y-102684440D02*
X149400000Y-101989998D01*
X148705558Y-104322917D02*
X148705558Y-102684440D01*
X149306598Y-104923957D02*
X148705558Y-104322917D01*
X193620000Y-95390000D02*
X194520000Y-96290000D01*
D37*
X176560000Y-104910000D02*
X176560000Y-104100000D01*
X155275000Y-94285000D02*
X155275000Y-95835000D01*
X155340000Y-94220000D02*
X155275000Y-94285000D01*
X162640000Y-94220000D02*
X155340000Y-94220000D01*
X163790000Y-95370000D02*
X162640000Y-94220000D01*
X163790000Y-100850000D02*
X163790000Y-95370000D01*
X166525814Y-103585814D02*
X163790000Y-100850000D01*
X176045814Y-103585814D02*
X166525814Y-103585814D01*
X176560000Y-104100000D02*
X176045814Y-103585814D01*
X180160000Y-104790000D02*
X176680000Y-104790000D01*
X176680000Y-104790000D02*
X176560000Y-104910000D01*
X151625000Y-95815000D02*
X153505000Y-95815000D01*
X153505000Y-95815000D02*
X153525000Y-95835000D01*
X149915000Y-95815000D02*
X151625000Y-95815000D01*
X153525000Y-95835000D02*
X155275000Y-95835000D01*
X176590000Y-102520000D02*
X176590000Y-102980000D01*
X179485000Y-102020000D02*
X177090000Y-102020000D01*
X177090000Y-102020000D02*
X176590000Y-102520000D01*
X180160000Y-103270000D02*
X180160000Y-102695000D01*
X180160000Y-102695000D02*
X179485000Y-102020000D01*
X148225000Y-93615000D02*
X148225000Y-95815000D01*
X148300000Y-93540000D02*
X148225000Y-93615000D01*
X162770000Y-93540000D02*
X148300000Y-93540000D01*
X164290000Y-95060000D02*
X162770000Y-93540000D01*
X164290000Y-100760000D02*
X164290000Y-95060000D01*
X166763412Y-103233412D02*
X164290000Y-100760000D01*
X176336588Y-103233412D02*
X166763412Y-103233412D01*
X176590000Y-102980000D02*
X176336588Y-103233412D01*
X144635000Y-95835000D02*
X146515000Y-95835000D01*
X146515000Y-95835000D02*
X146545000Y-95805000D01*
X142915000Y-95835000D02*
X144635000Y-95835000D01*
X143255000Y-95785000D02*
X143235000Y-95805000D01*
X148225000Y-95815000D02*
X146555000Y-95815000D01*
X146555000Y-95815000D02*
X146545000Y-95805000D01*
X182060000Y-103430000D02*
X185205000Y-103430000D01*
X185205000Y-103430000D02*
X185220000Y-103445000D01*
X185185000Y-103410000D02*
X185220000Y-103445000D01*
D36*
X173370000Y-84010000D02*
X171160000Y-84010000D01*
X171160000Y-84010000D02*
X171130000Y-83980000D01*
X194520000Y-104715000D02*
X197125000Y-104715000D01*
X197125000Y-104715000D02*
X197150000Y-104740000D01*
X173250000Y-84100000D02*
X173250000Y-85970000D01*
X182470000Y-85940000D02*
X175240000Y-85940000D01*
D37*
X175240000Y-85940000D02*
X175210000Y-85970000D01*
D36*
X175270000Y-84010000D02*
X175270000Y-85910000D01*
D37*
X175270000Y-85910000D02*
X175210000Y-85970000D01*
D36*
X175270000Y-85910000D02*
X175210000Y-85970000D01*
X201515000Y-98855000D02*
X201515000Y-95885000D01*
X201515000Y-95885000D02*
X201555000Y-95845000D01*
X165540000Y-85990000D02*
X165540000Y-84320000D01*
D37*
X165540000Y-84320000D02*
X165580000Y-84280000D01*
D36*
X183778860Y-92430000D02*
X183778860Y-90968860D01*
X183778860Y-90968860D02*
X181160000Y-88350000D01*
X181160000Y-88350000D02*
X166490000Y-88350000D01*
X166490000Y-88350000D02*
X165540000Y-87400000D01*
X165540000Y-87400000D02*
X165540000Y-85990000D01*
X185220000Y-99635000D02*
X184125000Y-99635000D01*
X184125000Y-99635000D02*
X183400000Y-98910000D01*
X183400000Y-98910000D02*
X183400000Y-94990000D01*
X183400000Y-94990000D02*
X183778860Y-94611140D01*
X183778860Y-94611140D02*
X183778860Y-92430000D01*
D37*
X175950000Y-106110000D02*
X168410000Y-106110000D01*
X168410000Y-106110000D02*
X163220000Y-100920000D01*
X176560000Y-107370000D02*
X176560000Y-106720000D01*
X176560000Y-106720000D02*
X175950000Y-106110000D01*
X180160000Y-106330000D02*
X180160000Y-106905000D01*
X180160000Y-106905000D02*
X179695000Y-107370000D01*
X179695000Y-107370000D02*
X176560000Y-107370000D01*
X163120000Y-95840000D02*
X162070000Y-95840000D01*
X163220000Y-95940000D02*
X163120000Y-95840000D01*
X163220000Y-100920000D02*
X163220000Y-95940000D01*
X180145000Y-106225000D02*
X180370000Y-106000000D01*
X160350000Y-95750000D02*
X162260000Y-95750000D01*
X162260000Y-95750000D02*
X162270000Y-95760000D01*
X158255000Y-95835000D02*
X160265000Y-95835000D01*
X160265000Y-95835000D02*
X160350000Y-95750000D01*
X156975000Y-95845000D02*
X156985000Y-95835000D01*
X156985000Y-95835000D02*
X158665000Y-95835000D01*
X182060000Y-106150000D02*
X185055000Y-106150000D01*
X185055000Y-106150000D02*
X185220000Y-105985000D01*
X185205000Y-106000000D02*
X185220000Y-105985000D01*
X182060000Y-104790000D02*
X185145000Y-104790000D01*
X185145000Y-104790000D02*
X185220000Y-104715000D01*
X185205000Y-104700000D02*
X185220000Y-104715000D01*
D39*
X162070000Y-98040000D02*
X162070000Y-99280000D01*
X162070000Y-99280000D02*
X161720000Y-99630000D01*
X161720000Y-99630000D02*
X160330000Y-99630000D01*
X160330000Y-99630000D02*
X159460000Y-100500000D01*
X159460000Y-100500000D02*
X159460000Y-107074214D01*
X159460000Y-107074214D02*
X158781829Y-107752385D01*
X158797615Y-107752385D02*
X158781829Y-107752385D01*
X160350000Y-98040000D02*
X160350000Y-99170000D01*
X160350000Y-99170000D02*
X159080000Y-100440000D01*
X159080000Y-100440000D02*
X159080000Y-106040000D01*
X159080000Y-106040000D02*
X158074722Y-107045278D01*
D37*
X162015635Y-110934365D02*
X161963810Y-110934365D01*
D36*
X113946010Y-104092126D02*
X113946010Y-104563990D01*
X111220000Y-107290000D02*
X100745000Y-107290000D01*
X113946010Y-104563990D02*
X111220000Y-107290000D01*
X114070000Y-87015000D02*
X114070000Y-98215000D01*
X114070000Y-98215000D02*
X113946010Y-104092126D01*
X113946010Y-104092126D02*
X113945000Y-104140000D01*
D37*
X100901000Y-107134000D02*
X100745000Y-107290000D01*
X114107000Y-87052000D02*
X114070000Y-87015000D01*
D36*
X113945000Y-104140000D02*
X138620000Y-104165000D01*
X138620000Y-104165000D02*
X144356851Y-109873705D01*
X116445000Y-87015000D02*
X116445000Y-88640000D01*
X115445000Y-89640000D02*
X115395000Y-103240000D01*
X116445000Y-88640000D02*
X115445000Y-89640000D01*
X115395000Y-103240000D02*
X115396000Y-103240000D01*
X138470000Y-103265000D02*
X144710404Y-109520152D01*
X115396000Y-103240000D02*
X138470000Y-103265000D01*
X115395000Y-103240000D02*
X115395000Y-103240000D01*
D37*
X116446000Y-87016000D02*
X116445000Y-87015000D01*
D36*
X118745000Y-87015000D02*
X118745000Y-87965000D01*
X117095000Y-89615000D02*
X117070000Y-102040000D01*
X118745000Y-87965000D02*
X117095000Y-89615000D01*
X117070000Y-102040000D02*
X117070000Y-102040000D01*
D37*
X118752000Y-87022000D02*
X118745000Y-87015000D01*
D36*
X117070000Y-102040000D02*
X137945000Y-102040000D01*
X137945000Y-102040000D02*
X145063957Y-109166598D01*
X145417511Y-108813045D02*
X145393045Y-108813045D01*
X145393045Y-108813045D02*
X136295000Y-99715000D01*
X136295000Y-99715000D02*
X119645000Y-99715000D01*
X120895000Y-87015000D02*
X120895000Y-91090000D01*
X119645000Y-92340000D02*
X119645000Y-99715000D01*
X120895000Y-91090000D02*
X119645000Y-92340000D01*
D37*
X120894999Y-87015001D02*
X120895000Y-87015000D01*
D36*
X122920000Y-89490000D02*
X122920000Y-87040000D01*
X122920000Y-97115000D02*
X122920000Y-89490000D01*
X145771064Y-108459491D02*
X145739491Y-108459491D01*
X145739491Y-108459491D02*
X124320000Y-87040000D01*
X124320000Y-87040000D02*
X122920000Y-87040000D01*
X105695000Y-84715000D02*
X107645000Y-84715000D01*
X131129000Y-85139000D02*
X132989000Y-85139000D01*
X148245938Y-105984618D02*
X148189618Y-105984618D01*
X148189618Y-105984618D02*
X128929000Y-86724000D01*
X128929000Y-86724000D02*
X128929000Y-85139000D01*
D37*
X148245938Y-105984618D02*
X148245938Y-105965938D01*
X148245938Y-105984618D02*
X148107928Y-105984618D01*
D36*
X147892385Y-106338171D02*
X147868171Y-106338171D01*
X147868171Y-106338171D02*
X129395000Y-87865000D01*
X111620000Y-88115000D02*
X111620000Y-86665000D01*
X129395000Y-87865000D02*
X127645000Y-87865000D01*
X109620000Y-86665000D02*
X111370000Y-86615000D01*
X107645000Y-86615000D02*
X109370000Y-86615000D01*
D39*
X109370000Y-86615000D02*
X109620000Y-86865000D01*
D36*
X131820000Y-106365000D02*
X129145000Y-106365000D01*
X144003297Y-110227258D02*
X144003297Y-110223297D01*
X144003297Y-110223297D02*
X140145000Y-106340000D01*
X140145000Y-106340000D02*
X133520000Y-106365000D01*
D37*
X144003297Y-110227258D02*
X144007258Y-110227258D01*
D36*
X127245000Y-106365000D02*
X125650000Y-106365000D01*
X125650000Y-106365000D02*
X116950000Y-115065000D01*
X100740000Y-86870000D02*
X105675000Y-86895000D01*
D39*
X105675000Y-86895000D02*
X105695000Y-86915000D01*
X105715000Y-86895000D02*
X105795000Y-86815000D01*
D37*
X101100000Y-87230000D02*
X100740000Y-86870000D01*
D36*
X155920000Y-125090000D02*
X155220000Y-124340000D01*
X155220000Y-124340000D02*
X153420000Y-124340000D01*
X151270000Y-124340000D02*
X151270000Y-128390000D01*
X153820000Y-117640000D02*
X156020000Y-117640000D01*
X172120000Y-120390000D02*
X170345000Y-120390000D01*
X153820000Y-117640000D02*
X150367258Y-121092742D01*
X170345000Y-120390000D02*
X162845000Y-112890000D01*
X172120000Y-120340000D02*
X172120000Y-120390000D01*
X150367258Y-121116703D02*
X150367258Y-121092742D01*
X190009000Y-93160500D02*
X190009000Y-91279000D01*
X190009000Y-91279000D02*
X184670000Y-85940000D01*
X146124618Y-108105938D02*
X146085938Y-108105938D01*
X146085938Y-108105938D02*
X144920000Y-106940000D01*
X144920000Y-106940000D02*
X144920000Y-106065000D01*
X144920000Y-106065000D02*
X135320000Y-96465000D01*
X131970000Y-96540000D02*
X131895000Y-96465000D01*
X131895000Y-96465000D02*
X127320000Y-96465000D01*
X125295000Y-92790000D02*
X125295000Y-91690000D01*
X125295000Y-91690000D02*
X124670000Y-91065000D01*
X127195000Y-94715000D02*
X126870000Y-94715000D01*
X126870000Y-94715000D02*
X125120000Y-96465000D01*
X127195000Y-92790000D02*
X127195000Y-94715000D01*
D40*
G36*
X199810838Y-107478917D02*
X199949910Y-107695041D01*
X200162110Y-107840031D01*
X200256927Y-107859232D01*
X200079268Y-108017964D01*
X199825291Y-108545209D01*
X199822642Y-108560974D01*
X199943783Y-108793000D01*
X201303000Y-108793000D01*
X201303000Y-108773000D01*
X201557000Y-108773000D01*
X201557000Y-108793000D01*
X201577000Y-108793000D01*
X201577000Y-109047000D01*
X201557000Y-109047000D01*
X201557000Y-109067000D01*
X201303000Y-109067000D01*
X201303000Y-109047000D01*
X199943783Y-109047000D01*
X199822642Y-109279026D01*
X199825291Y-109294791D01*
X200079268Y-109822036D01*
X200495069Y-110193539D01*
X200185585Y-110400330D01*
X199860729Y-110886511D01*
X199746655Y-111460000D01*
X199860729Y-112033489D01*
X200185585Y-112519670D01*
X200500366Y-112730000D01*
X200185585Y-112940330D01*
X199860729Y-113426511D01*
X199746655Y-114000000D01*
X199860729Y-114573489D01*
X200185585Y-115059670D01*
X200500366Y-115270000D01*
X200185585Y-115480330D01*
X199860729Y-115966511D01*
X199746655Y-116540000D01*
X199860729Y-117113489D01*
X200185585Y-117599670D01*
X200500366Y-117810000D01*
X200185585Y-118020330D01*
X199860729Y-118506511D01*
X199746655Y-119080000D01*
X199860729Y-119653489D01*
X200185585Y-120139670D01*
X200671766Y-120464526D01*
X201245255Y-120578600D01*
X201614745Y-120578600D01*
X202188234Y-120464526D01*
X202490000Y-120262892D01*
X202490000Y-132640000D01*
X202161040Y-132640000D01*
X202161040Y-130624000D01*
X202116762Y-130388683D01*
X201977690Y-130172559D01*
X201765490Y-130027569D01*
X201513600Y-129976560D01*
X201385000Y-129976560D01*
X201385000Y-126740000D01*
X201329051Y-126458728D01*
X201314165Y-126436450D01*
X201169724Y-126220277D01*
X200444726Y-125495280D01*
X200444724Y-125495277D01*
X195599723Y-120650277D01*
X195361272Y-120490949D01*
X195352736Y-120489251D01*
X195080000Y-120435000D01*
X180900000Y-120435000D01*
X180900000Y-120295750D01*
X180741250Y-120137000D01*
X180017000Y-120137000D01*
X180017000Y-120157000D01*
X179763000Y-120157000D01*
X179763000Y-120137000D01*
X179038750Y-120137000D01*
X178880000Y-120295750D01*
X178880000Y-120435000D01*
X173254962Y-120435000D01*
X173255197Y-120165225D01*
X173082767Y-119747914D01*
X172763765Y-119428355D01*
X172346756Y-119255197D01*
X171895225Y-119254803D01*
X171477914Y-119427233D01*
X171299837Y-119605000D01*
X170670158Y-119605000D01*
X170290089Y-119224931D01*
X170594775Y-119225197D01*
X171012086Y-119052767D01*
X171120041Y-118945000D01*
X178911778Y-118945000D01*
X178911838Y-118945317D01*
X178978329Y-119048646D01*
X178976673Y-119050302D01*
X178880000Y-119283691D01*
X178880000Y-119724250D01*
X179038750Y-119883000D01*
X179763000Y-119883000D01*
X179763000Y-119863000D01*
X180017000Y-119863000D01*
X180017000Y-119883000D01*
X180741250Y-119883000D01*
X180900000Y-119724250D01*
X180900000Y-119283691D01*
X180803327Y-119050302D01*
X180801957Y-119048932D01*
X180861431Y-118961890D01*
X180864851Y-118945000D01*
X181411027Y-118945000D01*
X181446838Y-119135317D01*
X181585910Y-119351441D01*
X181798110Y-119496431D01*
X182050000Y-119547440D01*
X184050000Y-119547440D01*
X184285317Y-119503162D01*
X184501441Y-119364090D01*
X184646431Y-119151890D01*
X184680227Y-118985000D01*
X185340000Y-118985000D01*
X185659541Y-118921439D01*
X185930434Y-118740434D01*
X186740434Y-117930434D01*
X186774133Y-117880000D01*
X186921439Y-117659541D01*
X186985000Y-117340000D01*
X186985000Y-114125868D01*
X187365869Y-113744999D01*
X187744074Y-113744999D01*
X187702560Y-113950000D01*
X187702560Y-117750000D01*
X187746838Y-117985317D01*
X187885910Y-118201441D01*
X188098110Y-118346431D01*
X188350000Y-118397440D01*
X190350000Y-118397440D01*
X190585317Y-118353162D01*
X190801441Y-118214090D01*
X190946431Y-118001890D01*
X190997440Y-117750000D01*
X190997440Y-116089098D01*
X191045000Y-115850000D01*
X190997440Y-115610902D01*
X190997440Y-113950000D01*
X190953162Y-113714683D01*
X190814090Y-113498559D01*
X190601890Y-113353569D01*
X190435143Y-113319802D01*
X190701645Y-113053765D01*
X190874803Y-112636756D01*
X190875197Y-112185225D01*
X190702767Y-111767914D01*
X190383765Y-111448355D01*
X189966756Y-111275197D01*
X189515225Y-111274803D01*
X189097914Y-111447233D01*
X188778355Y-111766235D01*
X188650144Y-112074999D01*
X187020001Y-112074999D01*
X186700460Y-112138560D01*
X186459457Y-112299593D01*
X186429567Y-112319565D01*
X185559566Y-113189566D01*
X185378561Y-113460459D01*
X185315000Y-113780000D01*
X185315000Y-116994132D01*
X184994132Y-117315000D01*
X184681446Y-117315000D01*
X184653162Y-117164683D01*
X184546241Y-116998523D01*
X184646431Y-116851890D01*
X184697440Y-116600000D01*
X184697440Y-115100000D01*
X184653162Y-114864683D01*
X184547518Y-114700508D01*
X184588327Y-114659699D01*
X184685000Y-114426310D01*
X184685000Y-113835750D01*
X184526250Y-113677000D01*
X183177000Y-113677000D01*
X183177000Y-113697000D01*
X182923000Y-113697000D01*
X182923000Y-113677000D01*
X182903000Y-113677000D01*
X182903000Y-113423000D01*
X182923000Y-113423000D01*
X182923000Y-112323750D01*
X183177000Y-112323750D01*
X183177000Y-113423000D01*
X184526250Y-113423000D01*
X184685000Y-113264250D01*
X184685000Y-112673690D01*
X184588327Y-112440301D01*
X184409698Y-112261673D01*
X184176309Y-112165000D01*
X183335750Y-112165000D01*
X183177000Y-112323750D01*
X182923000Y-112323750D01*
X182764250Y-112165000D01*
X181923691Y-112165000D01*
X181825000Y-112205879D01*
X181825000Y-111855868D01*
X182645868Y-111035000D01*
X193060000Y-111035000D01*
X193379541Y-110971439D01*
X193650434Y-110790434D01*
X197179868Y-107261000D01*
X199769834Y-107261000D01*
X199810838Y-107478917D01*
X199810838Y-107478917D01*
G37*
X199810838Y-107478917D02*
X199949910Y-107695041D01*
X200162110Y-107840031D01*
X200256927Y-107859232D01*
X200079268Y-108017964D01*
X199825291Y-108545209D01*
X199822642Y-108560974D01*
X199943783Y-108793000D01*
X201303000Y-108793000D01*
X201303000Y-108773000D01*
X201557000Y-108773000D01*
X201557000Y-108793000D01*
X201577000Y-108793000D01*
X201577000Y-109047000D01*
X201557000Y-109047000D01*
X201557000Y-109067000D01*
X201303000Y-109067000D01*
X201303000Y-109047000D01*
X199943783Y-109047000D01*
X199822642Y-109279026D01*
X199825291Y-109294791D01*
X200079268Y-109822036D01*
X200495069Y-110193539D01*
X200185585Y-110400330D01*
X199860729Y-110886511D01*
X199746655Y-111460000D01*
X199860729Y-112033489D01*
X200185585Y-112519670D01*
X200500366Y-112730000D01*
X200185585Y-112940330D01*
X199860729Y-113426511D01*
X199746655Y-114000000D01*
X199860729Y-114573489D01*
X200185585Y-115059670D01*
X200500366Y-115270000D01*
X200185585Y-115480330D01*
X199860729Y-115966511D01*
X199746655Y-116540000D01*
X199860729Y-117113489D01*
X200185585Y-117599670D01*
X200500366Y-117810000D01*
X200185585Y-118020330D01*
X199860729Y-118506511D01*
X199746655Y-119080000D01*
X199860729Y-119653489D01*
X200185585Y-120139670D01*
X200671766Y-120464526D01*
X201245255Y-120578600D01*
X201614745Y-120578600D01*
X202188234Y-120464526D01*
X202490000Y-120262892D01*
X202490000Y-132640000D01*
X202161040Y-132640000D01*
X202161040Y-130624000D01*
X202116762Y-130388683D01*
X201977690Y-130172559D01*
X201765490Y-130027569D01*
X201513600Y-129976560D01*
X201385000Y-129976560D01*
X201385000Y-126740000D01*
X201329051Y-126458728D01*
X201314165Y-126436450D01*
X201169724Y-126220277D01*
X200444726Y-125495280D01*
X200444724Y-125495277D01*
X195599723Y-120650277D01*
X195361272Y-120490949D01*
X195352736Y-120489251D01*
X195080000Y-120435000D01*
X180900000Y-120435000D01*
X180900000Y-120295750D01*
X180741250Y-120137000D01*
X180017000Y-120137000D01*
X180017000Y-120157000D01*
X179763000Y-120157000D01*
X179763000Y-120137000D01*
X179038750Y-120137000D01*
X178880000Y-120295750D01*
X178880000Y-120435000D01*
X173254962Y-120435000D01*
X173255197Y-120165225D01*
X173082767Y-119747914D01*
X172763765Y-119428355D01*
X172346756Y-119255197D01*
X171895225Y-119254803D01*
X171477914Y-119427233D01*
X171299837Y-119605000D01*
X170670158Y-119605000D01*
X170290089Y-119224931D01*
X170594775Y-119225197D01*
X171012086Y-119052767D01*
X171120041Y-118945000D01*
X178911778Y-118945000D01*
X178911838Y-118945317D01*
X178978329Y-119048646D01*
X178976673Y-119050302D01*
X178880000Y-119283691D01*
X178880000Y-119724250D01*
X179038750Y-119883000D01*
X179763000Y-119883000D01*
X179763000Y-119863000D01*
X180017000Y-119863000D01*
X180017000Y-119883000D01*
X180741250Y-119883000D01*
X180900000Y-119724250D01*
X180900000Y-119283691D01*
X180803327Y-119050302D01*
X180801957Y-119048932D01*
X180861431Y-118961890D01*
X180864851Y-118945000D01*
X181411027Y-118945000D01*
X181446838Y-119135317D01*
X181585910Y-119351441D01*
X181798110Y-119496431D01*
X182050000Y-119547440D01*
X184050000Y-119547440D01*
X184285317Y-119503162D01*
X184501441Y-119364090D01*
X184646431Y-119151890D01*
X184680227Y-118985000D01*
X185340000Y-118985000D01*
X185659541Y-118921439D01*
X185930434Y-118740434D01*
X186740434Y-117930434D01*
X186774133Y-117880000D01*
X186921439Y-117659541D01*
X186985000Y-117340000D01*
X186985000Y-114125868D01*
X187365869Y-113744999D01*
X187744074Y-113744999D01*
X187702560Y-113950000D01*
X187702560Y-117750000D01*
X187746838Y-117985317D01*
X187885910Y-118201441D01*
X188098110Y-118346431D01*
X188350000Y-118397440D01*
X190350000Y-118397440D01*
X190585317Y-118353162D01*
X190801441Y-118214090D01*
X190946431Y-118001890D01*
X190997440Y-117750000D01*
X190997440Y-116089098D01*
X191045000Y-115850000D01*
X190997440Y-115610902D01*
X190997440Y-113950000D01*
X190953162Y-113714683D01*
X190814090Y-113498559D01*
X190601890Y-113353569D01*
X190435143Y-113319802D01*
X190701645Y-113053765D01*
X190874803Y-112636756D01*
X190875197Y-112185225D01*
X190702767Y-111767914D01*
X190383765Y-111448355D01*
X189966756Y-111275197D01*
X189515225Y-111274803D01*
X189097914Y-111447233D01*
X188778355Y-111766235D01*
X188650144Y-112074999D01*
X187020001Y-112074999D01*
X186700460Y-112138560D01*
X186459457Y-112299593D01*
X186429567Y-112319565D01*
X185559566Y-113189566D01*
X185378561Y-113460459D01*
X185315000Y-113780000D01*
X185315000Y-116994132D01*
X184994132Y-117315000D01*
X184681446Y-117315000D01*
X184653162Y-117164683D01*
X184546241Y-116998523D01*
X184646431Y-116851890D01*
X184697440Y-116600000D01*
X184697440Y-115100000D01*
X184653162Y-114864683D01*
X184547518Y-114700508D01*
X184588327Y-114659699D01*
X184685000Y-114426310D01*
X184685000Y-113835750D01*
X184526250Y-113677000D01*
X183177000Y-113677000D01*
X183177000Y-113697000D01*
X182923000Y-113697000D01*
X182923000Y-113677000D01*
X182903000Y-113677000D01*
X182903000Y-113423000D01*
X182923000Y-113423000D01*
X182923000Y-112323750D01*
X183177000Y-112323750D01*
X183177000Y-113423000D01*
X184526250Y-113423000D01*
X184685000Y-113264250D01*
X184685000Y-112673690D01*
X184588327Y-112440301D01*
X184409698Y-112261673D01*
X184176309Y-112165000D01*
X183335750Y-112165000D01*
X183177000Y-112323750D01*
X182923000Y-112323750D01*
X182764250Y-112165000D01*
X181923691Y-112165000D01*
X181825000Y-112205879D01*
X181825000Y-111855868D01*
X182645868Y-111035000D01*
X193060000Y-111035000D01*
X193379541Y-110971439D01*
X193650434Y-110790434D01*
X197179868Y-107261000D01*
X199769834Y-107261000D01*
X199810838Y-107478917D01*
G36*
X161825000Y-129096408D02*
X161825000Y-130171965D01*
X161490330Y-130395585D01*
X161283539Y-130705069D01*
X160912036Y-130289268D01*
X160384791Y-130035291D01*
X160369026Y-130032642D01*
X160137000Y-130153783D01*
X160137000Y-131513000D01*
X160157000Y-131513000D01*
X160157000Y-131767000D01*
X160137000Y-131767000D01*
X160137000Y-131787000D01*
X159883000Y-131787000D01*
X159883000Y-131767000D01*
X159863000Y-131767000D01*
X159863000Y-131513000D01*
X159883000Y-131513000D01*
X159883000Y-130153783D01*
X159650974Y-130032642D01*
X159635209Y-130035291D01*
X159107964Y-130289268D01*
X158736461Y-130705069D01*
X158529670Y-130395585D01*
X158305000Y-130245465D01*
X158305000Y-127685868D01*
X158515827Y-127475041D01*
X158694775Y-127475197D01*
X159112086Y-127302767D01*
X159431645Y-126983765D01*
X159514007Y-126785415D01*
X161825000Y-129096408D01*
X161825000Y-129096408D01*
G37*
X161825000Y-129096408D02*
X161825000Y-130171965D01*
X161490330Y-130395585D01*
X161283539Y-130705069D01*
X160912036Y-130289268D01*
X160384791Y-130035291D01*
X160369026Y-130032642D01*
X160137000Y-130153783D01*
X160137000Y-131513000D01*
X160157000Y-131513000D01*
X160157000Y-131767000D01*
X160137000Y-131767000D01*
X160137000Y-131787000D01*
X159883000Y-131787000D01*
X159883000Y-131767000D01*
X159863000Y-131767000D01*
X159863000Y-131513000D01*
X159883000Y-131513000D01*
X159883000Y-130153783D01*
X159650974Y-130032642D01*
X159635209Y-130035291D01*
X159107964Y-130289268D01*
X158736461Y-130705069D01*
X158529670Y-130395585D01*
X158305000Y-130245465D01*
X158305000Y-127685868D01*
X158515827Y-127475041D01*
X158694775Y-127475197D01*
X159112086Y-127302767D01*
X159431645Y-126983765D01*
X159514007Y-126785415D01*
X161825000Y-129096408D01*
G36*
X115501517Y-104926578D02*
X115257914Y-105027233D01*
X114938355Y-105346235D01*
X114765197Y-105763244D01*
X114764803Y-106214775D01*
X114937233Y-106632086D01*
X115256235Y-106951645D01*
X115673244Y-107124803D01*
X116124775Y-107125197D01*
X116542086Y-106952767D01*
X116861645Y-106633765D01*
X117034803Y-106216756D01*
X117035197Y-105765225D01*
X116862767Y-105347914D01*
X116543765Y-105028355D01*
X116300609Y-104927387D01*
X138295643Y-104949672D01*
X138908639Y-105559660D01*
X134324886Y-105576958D01*
X134284090Y-105513559D01*
X134071890Y-105368569D01*
X133820000Y-105317560D01*
X133220000Y-105317560D01*
X132984683Y-105361838D01*
X132768559Y-105500910D01*
X132669367Y-105646083D01*
X132584090Y-105513559D01*
X132371890Y-105368569D01*
X132120000Y-105317560D01*
X131520000Y-105317560D01*
X131284683Y-105361838D01*
X131068559Y-105500910D01*
X131014519Y-105580000D01*
X130084018Y-105580000D01*
X130009090Y-105463559D01*
X129796890Y-105318569D01*
X129545000Y-105267560D01*
X128745000Y-105267560D01*
X128509683Y-105311838D01*
X128293559Y-105450910D01*
X128194367Y-105596083D01*
X128109090Y-105463559D01*
X127896890Y-105318569D01*
X127645000Y-105267560D01*
X126845000Y-105267560D01*
X126609683Y-105311838D01*
X126393559Y-105450910D01*
X126305356Y-105580000D01*
X125650000Y-105580000D01*
X125349593Y-105639755D01*
X125094921Y-105809921D01*
X117607518Y-113297324D01*
X117326531Y-113180648D01*
X116576759Y-113179994D01*
X115883809Y-113466314D01*
X115353178Y-113996021D01*
X115065648Y-114688469D01*
X115064994Y-115438241D01*
X115351314Y-116131191D01*
X115881021Y-116661822D01*
X116077250Y-116743304D01*
X109869388Y-122951166D01*
X109702767Y-122547914D01*
X109383765Y-122228355D01*
X108966756Y-122055197D01*
X108515225Y-122054803D01*
X108097914Y-122227233D01*
X107778355Y-122546235D01*
X107605197Y-122963244D01*
X107604916Y-123285637D01*
X103855000Y-127035554D01*
X103855000Y-125544446D01*
X106199529Y-123199918D01*
X106519775Y-123200197D01*
X106937086Y-123027767D01*
X107256645Y-122708765D01*
X107429803Y-122291756D01*
X107430197Y-121840225D01*
X107257767Y-121422914D01*
X106938765Y-121103355D01*
X106521756Y-120930197D01*
X106070225Y-120929803D01*
X105652914Y-121102233D01*
X105333355Y-121421235D01*
X105160197Y-121838244D01*
X105159916Y-122160638D01*
X102600277Y-124720277D01*
X102440949Y-124958728D01*
X102385000Y-125240000D01*
X102385000Y-125345628D01*
X102214415Y-125090330D01*
X101899634Y-124880000D01*
X102214415Y-124669670D01*
X102539271Y-124183489D01*
X102653345Y-123610000D01*
X102539271Y-123036511D01*
X102214415Y-122550330D01*
X101899634Y-122340000D01*
X102214415Y-122129670D01*
X102539271Y-121643489D01*
X102653345Y-121070000D01*
X102539271Y-120496511D01*
X102214415Y-120010330D01*
X101899634Y-119800000D01*
X102214415Y-119589670D01*
X102539271Y-119103489D01*
X102653345Y-118530000D01*
X102539271Y-117956511D01*
X102214415Y-117470330D01*
X101899634Y-117260000D01*
X102214415Y-117049670D01*
X102539271Y-116563489D01*
X102572171Y-116398089D01*
X105636517Y-116398089D01*
X105765725Y-116690859D01*
X106465883Y-116959071D01*
X107215384Y-116938928D01*
X107814275Y-116690859D01*
X107943483Y-116398089D01*
X106790000Y-115244605D01*
X105636517Y-116398089D01*
X102572171Y-116398089D01*
X102653345Y-115990000D01*
X102539271Y-115416511D01*
X102214415Y-114930330D01*
X101930888Y-114740883D01*
X104895929Y-114740883D01*
X104916072Y-115490384D01*
X105164141Y-116089275D01*
X105456911Y-116218483D01*
X106610395Y-115065000D01*
X106969605Y-115065000D01*
X108123089Y-116218483D01*
X108415859Y-116089275D01*
X108684071Y-115389117D01*
X108663928Y-114639616D01*
X108415859Y-114040725D01*
X108123089Y-113911517D01*
X106969605Y-115065000D01*
X106610395Y-115065000D01*
X105456911Y-113911517D01*
X105164141Y-114040725D01*
X104895929Y-114740883D01*
X101930888Y-114740883D01*
X101899634Y-114720000D01*
X102214415Y-114509670D01*
X102539271Y-114023489D01*
X102597269Y-113731911D01*
X105636517Y-113731911D01*
X106790000Y-114885395D01*
X107943483Y-113731911D01*
X107814275Y-113439141D01*
X107114117Y-113170929D01*
X106364616Y-113191072D01*
X105765725Y-113439141D01*
X105636517Y-113731911D01*
X102597269Y-113731911D01*
X102653345Y-113450000D01*
X102539271Y-112876511D01*
X102214415Y-112390330D01*
X101899634Y-112180000D01*
X102214415Y-111969670D01*
X102539271Y-111483489D01*
X102653345Y-110910000D01*
X102610535Y-110694775D01*
X110014803Y-110694775D01*
X110187233Y-111112086D01*
X110506235Y-111431645D01*
X110923244Y-111604803D01*
X111374775Y-111605197D01*
X111792086Y-111432767D01*
X112111645Y-111113765D01*
X112284803Y-110696756D01*
X112285197Y-110245225D01*
X112112767Y-109827914D01*
X111793765Y-109508355D01*
X111376756Y-109335197D01*
X110925225Y-109334803D01*
X110507914Y-109507233D01*
X110188355Y-109826235D01*
X110015197Y-110243244D01*
X110014803Y-110694775D01*
X102610535Y-110694775D01*
X102539271Y-110336511D01*
X102214415Y-109850330D01*
X101728234Y-109525474D01*
X101154745Y-109411400D01*
X100785255Y-109411400D01*
X100211766Y-109525474D01*
X99770000Y-109820653D01*
X99770000Y-108813779D01*
X99954000Y-108851040D01*
X101986000Y-108851040D01*
X102221317Y-108806762D01*
X102437441Y-108667690D01*
X102582431Y-108455490D01*
X102633440Y-108203600D01*
X102633440Y-108075000D01*
X106956345Y-108075000D01*
X106587914Y-108227233D01*
X106268355Y-108546235D01*
X106095197Y-108963244D01*
X106094803Y-109414775D01*
X106267233Y-109832086D01*
X106586235Y-110151645D01*
X107003244Y-110324803D01*
X107454775Y-110325197D01*
X107872086Y-110152767D01*
X108191645Y-109833765D01*
X108364803Y-109416756D01*
X108365136Y-109034775D01*
X113354803Y-109034775D01*
X113527233Y-109452086D01*
X113846235Y-109771645D01*
X114263244Y-109944803D01*
X114714775Y-109945197D01*
X115132086Y-109772767D01*
X115451645Y-109453765D01*
X115624803Y-109036756D01*
X115625197Y-108585225D01*
X115452767Y-108167914D01*
X115133765Y-107848355D01*
X114716756Y-107675197D01*
X114265225Y-107674803D01*
X113847914Y-107847233D01*
X113528355Y-108166235D01*
X113355197Y-108583244D01*
X113354803Y-109034775D01*
X108365136Y-109034775D01*
X108365197Y-108965225D01*
X108192767Y-108547914D01*
X107873765Y-108228355D01*
X107504447Y-108075000D01*
X111220000Y-108075000D01*
X111520407Y-108015245D01*
X111775079Y-107845079D01*
X114501089Y-105119069D01*
X114630297Y-104925695D01*
X115501517Y-104926578D01*
X115501517Y-104926578D01*
G37*
X115501517Y-104926578D02*
X115257914Y-105027233D01*
X114938355Y-105346235D01*
X114765197Y-105763244D01*
X114764803Y-106214775D01*
X114937233Y-106632086D01*
X115256235Y-106951645D01*
X115673244Y-107124803D01*
X116124775Y-107125197D01*
X116542086Y-106952767D01*
X116861645Y-106633765D01*
X117034803Y-106216756D01*
X117035197Y-105765225D01*
X116862767Y-105347914D01*
X116543765Y-105028355D01*
X116300609Y-104927387D01*
X138295643Y-104949672D01*
X138908639Y-105559660D01*
X134324886Y-105576958D01*
X134284090Y-105513559D01*
X134071890Y-105368569D01*
X133820000Y-105317560D01*
X133220000Y-105317560D01*
X132984683Y-105361838D01*
X132768559Y-105500910D01*
X132669367Y-105646083D01*
X132584090Y-105513559D01*
X132371890Y-105368569D01*
X132120000Y-105317560D01*
X131520000Y-105317560D01*
X131284683Y-105361838D01*
X131068559Y-105500910D01*
X131014519Y-105580000D01*
X130084018Y-105580000D01*
X130009090Y-105463559D01*
X129796890Y-105318569D01*
X129545000Y-105267560D01*
X128745000Y-105267560D01*
X128509683Y-105311838D01*
X128293559Y-105450910D01*
X128194367Y-105596083D01*
X128109090Y-105463559D01*
X127896890Y-105318569D01*
X127645000Y-105267560D01*
X126845000Y-105267560D01*
X126609683Y-105311838D01*
X126393559Y-105450910D01*
X126305356Y-105580000D01*
X125650000Y-105580000D01*
X125349593Y-105639755D01*
X125094921Y-105809921D01*
X117607518Y-113297324D01*
X117326531Y-113180648D01*
X116576759Y-113179994D01*
X115883809Y-113466314D01*
X115353178Y-113996021D01*
X115065648Y-114688469D01*
X115064994Y-115438241D01*
X115351314Y-116131191D01*
X115881021Y-116661822D01*
X116077250Y-116743304D01*
X109869388Y-122951166D01*
X109702767Y-122547914D01*
X109383765Y-122228355D01*
X108966756Y-122055197D01*
X108515225Y-122054803D01*
X108097914Y-122227233D01*
X107778355Y-122546235D01*
X107605197Y-122963244D01*
X107604916Y-123285637D01*
X103855000Y-127035554D01*
X103855000Y-125544446D01*
X106199529Y-123199918D01*
X106519775Y-123200197D01*
X106937086Y-123027767D01*
X107256645Y-122708765D01*
X107429803Y-122291756D01*
X107430197Y-121840225D01*
X107257767Y-121422914D01*
X106938765Y-121103355D01*
X106521756Y-120930197D01*
X106070225Y-120929803D01*
X105652914Y-121102233D01*
X105333355Y-121421235D01*
X105160197Y-121838244D01*
X105159916Y-122160638D01*
X102600277Y-124720277D01*
X102440949Y-124958728D01*
X102385000Y-125240000D01*
X102385000Y-125345628D01*
X102214415Y-125090330D01*
X101899634Y-124880000D01*
X102214415Y-124669670D01*
X102539271Y-124183489D01*
X102653345Y-123610000D01*
X102539271Y-123036511D01*
X102214415Y-122550330D01*
X101899634Y-122340000D01*
X102214415Y-122129670D01*
X102539271Y-121643489D01*
X102653345Y-121070000D01*
X102539271Y-120496511D01*
X102214415Y-120010330D01*
X101899634Y-119800000D01*
X102214415Y-119589670D01*
X102539271Y-119103489D01*
X102653345Y-118530000D01*
X102539271Y-117956511D01*
X102214415Y-117470330D01*
X101899634Y-117260000D01*
X102214415Y-117049670D01*
X102539271Y-116563489D01*
X102572171Y-116398089D01*
X105636517Y-116398089D01*
X105765725Y-116690859D01*
X106465883Y-116959071D01*
X107215384Y-116938928D01*
X107814275Y-116690859D01*
X107943483Y-116398089D01*
X106790000Y-115244605D01*
X105636517Y-116398089D01*
X102572171Y-116398089D01*
X102653345Y-115990000D01*
X102539271Y-115416511D01*
X102214415Y-114930330D01*
X101930888Y-114740883D01*
X104895929Y-114740883D01*
X104916072Y-115490384D01*
X105164141Y-116089275D01*
X105456911Y-116218483D01*
X106610395Y-115065000D01*
X106969605Y-115065000D01*
X108123089Y-116218483D01*
X108415859Y-116089275D01*
X108684071Y-115389117D01*
X108663928Y-114639616D01*
X108415859Y-114040725D01*
X108123089Y-113911517D01*
X106969605Y-115065000D01*
X106610395Y-115065000D01*
X105456911Y-113911517D01*
X105164141Y-114040725D01*
X104895929Y-114740883D01*
X101930888Y-114740883D01*
X101899634Y-114720000D01*
X102214415Y-114509670D01*
X102539271Y-114023489D01*
X102597269Y-113731911D01*
X105636517Y-113731911D01*
X106790000Y-114885395D01*
X107943483Y-113731911D01*
X107814275Y-113439141D01*
X107114117Y-113170929D01*
X106364616Y-113191072D01*
X105765725Y-113439141D01*
X105636517Y-113731911D01*
X102597269Y-113731911D01*
X102653345Y-113450000D01*
X102539271Y-112876511D01*
X102214415Y-112390330D01*
X101899634Y-112180000D01*
X102214415Y-111969670D01*
X102539271Y-111483489D01*
X102653345Y-110910000D01*
X102610535Y-110694775D01*
X110014803Y-110694775D01*
X110187233Y-111112086D01*
X110506235Y-111431645D01*
X110923244Y-111604803D01*
X111374775Y-111605197D01*
X111792086Y-111432767D01*
X112111645Y-111113765D01*
X112284803Y-110696756D01*
X112285197Y-110245225D01*
X112112767Y-109827914D01*
X111793765Y-109508355D01*
X111376756Y-109335197D01*
X110925225Y-109334803D01*
X110507914Y-109507233D01*
X110188355Y-109826235D01*
X110015197Y-110243244D01*
X110014803Y-110694775D01*
X102610535Y-110694775D01*
X102539271Y-110336511D01*
X102214415Y-109850330D01*
X101728234Y-109525474D01*
X101154745Y-109411400D01*
X100785255Y-109411400D01*
X100211766Y-109525474D01*
X99770000Y-109820653D01*
X99770000Y-108813779D01*
X99954000Y-108851040D01*
X101986000Y-108851040D01*
X102221317Y-108806762D01*
X102437441Y-108667690D01*
X102582431Y-108455490D01*
X102633440Y-108203600D01*
X102633440Y-108075000D01*
X106956345Y-108075000D01*
X106587914Y-108227233D01*
X106268355Y-108546235D01*
X106095197Y-108963244D01*
X106094803Y-109414775D01*
X106267233Y-109832086D01*
X106586235Y-110151645D01*
X107003244Y-110324803D01*
X107454775Y-110325197D01*
X107872086Y-110152767D01*
X108191645Y-109833765D01*
X108364803Y-109416756D01*
X108365136Y-109034775D01*
X113354803Y-109034775D01*
X113527233Y-109452086D01*
X113846235Y-109771645D01*
X114263244Y-109944803D01*
X114714775Y-109945197D01*
X115132086Y-109772767D01*
X115451645Y-109453765D01*
X115624803Y-109036756D01*
X115625197Y-108585225D01*
X115452767Y-108167914D01*
X115133765Y-107848355D01*
X114716756Y-107675197D01*
X114265225Y-107674803D01*
X113847914Y-107847233D01*
X113528355Y-108166235D01*
X113355197Y-108583244D01*
X113354803Y-109034775D01*
X108365136Y-109034775D01*
X108365197Y-108965225D01*
X108192767Y-108547914D01*
X107873765Y-108228355D01*
X107504447Y-108075000D01*
X111220000Y-108075000D01*
X111520407Y-108015245D01*
X111775079Y-107845079D01*
X114501089Y-105119069D01*
X114630297Y-104925695D01*
X115501517Y-104926578D01*
G36*
X155376235Y-118601645D02*
X155415300Y-118617866D01*
X155212750Y-118820416D01*
X155153236Y-118907518D01*
X155071329Y-118961838D01*
X154859197Y-119173970D01*
X154818255Y-119233891D01*
X154815886Y-119234872D01*
X154785791Y-119264967D01*
X154785791Y-119281403D01*
X154724112Y-119371673D01*
X154695207Y-119504921D01*
X154578404Y-119526899D01*
X154474905Y-119595539D01*
X154455219Y-119595539D01*
X154425124Y-119625634D01*
X154423456Y-119629660D01*
X154364222Y-119668944D01*
X154152090Y-119881076D01*
X154092576Y-119968178D01*
X154010669Y-120022498D01*
X153798537Y-120234630D01*
X153739025Y-120321728D01*
X153657115Y-120376051D01*
X153529685Y-120503481D01*
X153382767Y-120147914D01*
X153063765Y-119828355D01*
X152836268Y-119733890D01*
X154145158Y-118425000D01*
X155199898Y-118425000D01*
X155376235Y-118601645D01*
X155376235Y-118601645D01*
G37*
X155376235Y-118601645D02*
X155415300Y-118617866D01*
X155212750Y-118820416D01*
X155153236Y-118907518D01*
X155071329Y-118961838D01*
X154859197Y-119173970D01*
X154818255Y-119233891D01*
X154815886Y-119234872D01*
X154785791Y-119264967D01*
X154785791Y-119281403D01*
X154724112Y-119371673D01*
X154695207Y-119504921D01*
X154578404Y-119526899D01*
X154474905Y-119595539D01*
X154455219Y-119595539D01*
X154425124Y-119625634D01*
X154423456Y-119629660D01*
X154364222Y-119668944D01*
X154152090Y-119881076D01*
X154092576Y-119968178D01*
X154010669Y-120022498D01*
X153798537Y-120234630D01*
X153739025Y-120321728D01*
X153657115Y-120376051D01*
X153529685Y-120503481D01*
X153382767Y-120147914D01*
X153063765Y-119828355D01*
X152836268Y-119733890D01*
X154145158Y-118425000D01*
X155199898Y-118425000D01*
X155376235Y-118601645D01*
G36*
X153303562Y-104250395D02*
X153390660Y-104309907D01*
X153444983Y-104391817D01*
X153657115Y-104603949D01*
X153744217Y-104663463D01*
X153798537Y-104745370D01*
X154010669Y-104957502D01*
X154097767Y-105017014D01*
X154152090Y-105098924D01*
X154364222Y-105311056D01*
X154451322Y-105370569D01*
X154505643Y-105452477D01*
X154717775Y-105664609D01*
X154777698Y-105705553D01*
X154778678Y-105707919D01*
X154808773Y-105738014D01*
X154825207Y-105738014D01*
X154915478Y-105799694D01*
X155048727Y-105828599D01*
X155070705Y-105945402D01*
X155139345Y-106048901D01*
X155139345Y-106068586D01*
X155169440Y-106098681D01*
X155173465Y-106100348D01*
X155212750Y-106159584D01*
X155424882Y-106371716D01*
X155511984Y-106431230D01*
X155566304Y-106513137D01*
X155778436Y-106725269D01*
X155865534Y-106784781D01*
X155919857Y-106866691D01*
X156131989Y-107078823D01*
X156219089Y-107138336D01*
X156273410Y-107220244D01*
X156485542Y-107432376D01*
X156572644Y-107491890D01*
X156626964Y-107573797D01*
X156839096Y-107785929D01*
X156926194Y-107845441D01*
X156980517Y-107927351D01*
X157192649Y-108139483D01*
X157252572Y-108180427D01*
X157253552Y-108182793D01*
X157283647Y-108212888D01*
X157300081Y-108212888D01*
X157390352Y-108274568D01*
X157523601Y-108303473D01*
X157545579Y-108420276D01*
X157614219Y-108523775D01*
X157614219Y-108543460D01*
X157644314Y-108573555D01*
X157648339Y-108575222D01*
X157687624Y-108634458D01*
X157899756Y-108846590D01*
X157986856Y-108906103D01*
X158041177Y-108988011D01*
X158253309Y-109200143D01*
X158340411Y-109259657D01*
X158394731Y-109341564D01*
X158454882Y-109401715D01*
X158247914Y-109487233D01*
X157928355Y-109806235D01*
X157755197Y-110223244D01*
X157754803Y-110674775D01*
X157927233Y-111092086D01*
X158246235Y-111411645D01*
X158663244Y-111584803D01*
X159114775Y-111585197D01*
X159532086Y-111412767D01*
X159851645Y-111093765D01*
X159938283Y-110885117D01*
X160021076Y-110967910D01*
X160108178Y-111027424D01*
X160162498Y-111109331D01*
X160374630Y-111321463D01*
X160461728Y-111380975D01*
X160516051Y-111462885D01*
X160613653Y-111560487D01*
X160427914Y-111637233D01*
X160108355Y-111956235D01*
X159935197Y-112373244D01*
X159934803Y-112824775D01*
X160107233Y-113242086D01*
X160426235Y-113561645D01*
X160472499Y-113580856D01*
X160456537Y-113604217D01*
X160374630Y-113658537D01*
X160162498Y-113870669D01*
X160102986Y-113957767D01*
X160021076Y-114012090D01*
X159808944Y-114224222D01*
X159749431Y-114311322D01*
X159667523Y-114365643D01*
X159455391Y-114577775D01*
X159414447Y-114637698D01*
X159412081Y-114638678D01*
X159381986Y-114668773D01*
X159381986Y-114685207D01*
X159320306Y-114775478D01*
X159291401Y-114908727D01*
X159174598Y-114930705D01*
X159071099Y-114999345D01*
X159051414Y-114999345D01*
X159021319Y-115029440D01*
X159019652Y-115033465D01*
X158960416Y-115072750D01*
X158748284Y-115284882D01*
X158688770Y-115371984D01*
X158606863Y-115426304D01*
X158394731Y-115638436D01*
X158335219Y-115725534D01*
X158253309Y-115779857D01*
X158041177Y-115991989D01*
X157981664Y-116079089D01*
X157899756Y-116133410D01*
X157709965Y-116323201D01*
X157503690Y-116069436D01*
X157504803Y-116066756D01*
X157505197Y-115615225D01*
X157332767Y-115197914D01*
X157013765Y-114878355D01*
X156596756Y-114705197D01*
X156145225Y-114704803D01*
X155727914Y-114877233D01*
X155408355Y-115196235D01*
X155235197Y-115613244D01*
X155234803Y-116064775D01*
X155407233Y-116482086D01*
X155536590Y-116611669D01*
X155377914Y-116677233D01*
X155199837Y-116855000D01*
X153820005Y-116855000D01*
X153820000Y-116854999D01*
X153519594Y-116914755D01*
X153264921Y-117084921D01*
X150781457Y-119568385D01*
X150754357Y-119527523D01*
X150542225Y-119315391D01*
X150455123Y-119255877D01*
X150400803Y-119173970D01*
X150188671Y-118961838D01*
X150101573Y-118902326D01*
X150047250Y-118820416D01*
X149835118Y-118608284D01*
X149748016Y-118548770D01*
X149693696Y-118466863D01*
X149481564Y-118254731D01*
X149394466Y-118195219D01*
X149340143Y-118113309D01*
X149128011Y-117901177D01*
X149040911Y-117841664D01*
X148986590Y-117759756D01*
X148774458Y-117547624D01*
X148687356Y-117488110D01*
X148633036Y-117406203D01*
X148420904Y-117194071D01*
X148333806Y-117134559D01*
X148279483Y-117052649D01*
X148067351Y-116840517D01*
X147980249Y-116781003D01*
X147925929Y-116699096D01*
X147713797Y-116486964D01*
X147626699Y-116427452D01*
X147572376Y-116345542D01*
X147360244Y-116133410D01*
X147273144Y-116073897D01*
X147218823Y-115991989D01*
X147006691Y-115779857D01*
X146919589Y-115720343D01*
X146865269Y-115638436D01*
X146653137Y-115426304D01*
X146566039Y-115366792D01*
X146511716Y-115284882D01*
X146299584Y-115072750D01*
X146212482Y-115013236D01*
X146173003Y-114953707D01*
X146272086Y-114912767D01*
X146591645Y-114593765D01*
X146764803Y-114176756D01*
X146765197Y-113725225D01*
X146592767Y-113307914D01*
X146273765Y-112988355D01*
X145856756Y-112815197D01*
X145405225Y-112814803D01*
X145089836Y-112945119D01*
X145351645Y-112683767D01*
X145524803Y-112266758D01*
X145525197Y-111815227D01*
X145352767Y-111397916D01*
X145081079Y-111125754D01*
X145097502Y-111109331D01*
X145157014Y-111022233D01*
X145238924Y-110967910D01*
X145451056Y-110755778D01*
X145510569Y-110668678D01*
X145592477Y-110614357D01*
X145804609Y-110402225D01*
X145864123Y-110315123D01*
X145946030Y-110260803D01*
X146158162Y-110048671D01*
X146217674Y-109961573D01*
X146299584Y-109907250D01*
X146511716Y-109695118D01*
X146571230Y-109608016D01*
X146653137Y-109553696D01*
X146865269Y-109341564D01*
X146924781Y-109254466D01*
X147006691Y-109200143D01*
X147218823Y-108988011D01*
X147278336Y-108900911D01*
X147360244Y-108846590D01*
X147572376Y-108634458D01*
X147593453Y-108603611D01*
X147775021Y-108785179D01*
X147774803Y-109034775D01*
X147947233Y-109452086D01*
X148266235Y-109771645D01*
X148683244Y-109944803D01*
X149134775Y-109945197D01*
X149552086Y-109772767D01*
X149871645Y-109453765D01*
X150044803Y-109036756D01*
X150045197Y-108585225D01*
X149872767Y-108167914D01*
X149553765Y-107848355D01*
X149136756Y-107675197D01*
X148885135Y-107674977D01*
X148695139Y-107484981D01*
X148774458Y-107432376D01*
X148986590Y-107220244D01*
X149046103Y-107133144D01*
X149128011Y-107078823D01*
X149340143Y-106866691D01*
X149381087Y-106806768D01*
X149383453Y-106805788D01*
X149413548Y-106775693D01*
X149413548Y-106759259D01*
X149475228Y-106668988D01*
X149504133Y-106535739D01*
X149620936Y-106513761D01*
X149724435Y-106445121D01*
X149744120Y-106445121D01*
X149774215Y-106415026D01*
X149775882Y-106411001D01*
X149835118Y-106371716D01*
X150047250Y-106159584D01*
X150106764Y-106072482D01*
X150188671Y-106018162D01*
X150252181Y-105954652D01*
X150261192Y-105956444D01*
X150924731Y-105956444D01*
X151225137Y-105896689D01*
X151479810Y-105726523D01*
X151622198Y-105513423D01*
X153094394Y-104041227D01*
X153303562Y-104250395D01*
X153303562Y-104250395D01*
G37*
X153303562Y-104250395D02*
X153390660Y-104309907D01*
X153444983Y-104391817D01*
X153657115Y-104603949D01*
X153744217Y-104663463D01*
X153798537Y-104745370D01*
X154010669Y-104957502D01*
X154097767Y-105017014D01*
X154152090Y-105098924D01*
X154364222Y-105311056D01*
X154451322Y-105370569D01*
X154505643Y-105452477D01*
X154717775Y-105664609D01*
X154777698Y-105705553D01*
X154778678Y-105707919D01*
X154808773Y-105738014D01*
X154825207Y-105738014D01*
X154915478Y-105799694D01*
X155048727Y-105828599D01*
X155070705Y-105945402D01*
X155139345Y-106048901D01*
X155139345Y-106068586D01*
X155169440Y-106098681D01*
X155173465Y-106100348D01*
X155212750Y-106159584D01*
X155424882Y-106371716D01*
X155511984Y-106431230D01*
X155566304Y-106513137D01*
X155778436Y-106725269D01*
X155865534Y-106784781D01*
X155919857Y-106866691D01*
X156131989Y-107078823D01*
X156219089Y-107138336D01*
X156273410Y-107220244D01*
X156485542Y-107432376D01*
X156572644Y-107491890D01*
X156626964Y-107573797D01*
X156839096Y-107785929D01*
X156926194Y-107845441D01*
X156980517Y-107927351D01*
X157192649Y-108139483D01*
X157252572Y-108180427D01*
X157253552Y-108182793D01*
X157283647Y-108212888D01*
X157300081Y-108212888D01*
X157390352Y-108274568D01*
X157523601Y-108303473D01*
X157545579Y-108420276D01*
X157614219Y-108523775D01*
X157614219Y-108543460D01*
X157644314Y-108573555D01*
X157648339Y-108575222D01*
X157687624Y-108634458D01*
X157899756Y-108846590D01*
X157986856Y-108906103D01*
X158041177Y-108988011D01*
X158253309Y-109200143D01*
X158340411Y-109259657D01*
X158394731Y-109341564D01*
X158454882Y-109401715D01*
X158247914Y-109487233D01*
X157928355Y-109806235D01*
X157755197Y-110223244D01*
X157754803Y-110674775D01*
X157927233Y-111092086D01*
X158246235Y-111411645D01*
X158663244Y-111584803D01*
X159114775Y-111585197D01*
X159532086Y-111412767D01*
X159851645Y-111093765D01*
X159938283Y-110885117D01*
X160021076Y-110967910D01*
X160108178Y-111027424D01*
X160162498Y-111109331D01*
X160374630Y-111321463D01*
X160461728Y-111380975D01*
X160516051Y-111462885D01*
X160613653Y-111560487D01*
X160427914Y-111637233D01*
X160108355Y-111956235D01*
X159935197Y-112373244D01*
X159934803Y-112824775D01*
X160107233Y-113242086D01*
X160426235Y-113561645D01*
X160472499Y-113580856D01*
X160456537Y-113604217D01*
X160374630Y-113658537D01*
X160162498Y-113870669D01*
X160102986Y-113957767D01*
X160021076Y-114012090D01*
X159808944Y-114224222D01*
X159749431Y-114311322D01*
X159667523Y-114365643D01*
X159455391Y-114577775D01*
X159414447Y-114637698D01*
X159412081Y-114638678D01*
X159381986Y-114668773D01*
X159381986Y-114685207D01*
X159320306Y-114775478D01*
X159291401Y-114908727D01*
X159174598Y-114930705D01*
X159071099Y-114999345D01*
X159051414Y-114999345D01*
X159021319Y-115029440D01*
X159019652Y-115033465D01*
X158960416Y-115072750D01*
X158748284Y-115284882D01*
X158688770Y-115371984D01*
X158606863Y-115426304D01*
X158394731Y-115638436D01*
X158335219Y-115725534D01*
X158253309Y-115779857D01*
X158041177Y-115991989D01*
X157981664Y-116079089D01*
X157899756Y-116133410D01*
X157709965Y-116323201D01*
X157503690Y-116069436D01*
X157504803Y-116066756D01*
X157505197Y-115615225D01*
X157332767Y-115197914D01*
X157013765Y-114878355D01*
X156596756Y-114705197D01*
X156145225Y-114704803D01*
X155727914Y-114877233D01*
X155408355Y-115196235D01*
X155235197Y-115613244D01*
X155234803Y-116064775D01*
X155407233Y-116482086D01*
X155536590Y-116611669D01*
X155377914Y-116677233D01*
X155199837Y-116855000D01*
X153820005Y-116855000D01*
X153820000Y-116854999D01*
X153519594Y-116914755D01*
X153264921Y-117084921D01*
X150781457Y-119568385D01*
X150754357Y-119527523D01*
X150542225Y-119315391D01*
X150455123Y-119255877D01*
X150400803Y-119173970D01*
X150188671Y-118961838D01*
X150101573Y-118902326D01*
X150047250Y-118820416D01*
X149835118Y-118608284D01*
X149748016Y-118548770D01*
X149693696Y-118466863D01*
X149481564Y-118254731D01*
X149394466Y-118195219D01*
X149340143Y-118113309D01*
X149128011Y-117901177D01*
X149040911Y-117841664D01*
X148986590Y-117759756D01*
X148774458Y-117547624D01*
X148687356Y-117488110D01*
X148633036Y-117406203D01*
X148420904Y-117194071D01*
X148333806Y-117134559D01*
X148279483Y-117052649D01*
X148067351Y-116840517D01*
X147980249Y-116781003D01*
X147925929Y-116699096D01*
X147713797Y-116486964D01*
X147626699Y-116427452D01*
X147572376Y-116345542D01*
X147360244Y-116133410D01*
X147273144Y-116073897D01*
X147218823Y-115991989D01*
X147006691Y-115779857D01*
X146919589Y-115720343D01*
X146865269Y-115638436D01*
X146653137Y-115426304D01*
X146566039Y-115366792D01*
X146511716Y-115284882D01*
X146299584Y-115072750D01*
X146212482Y-115013236D01*
X146173003Y-114953707D01*
X146272086Y-114912767D01*
X146591645Y-114593765D01*
X146764803Y-114176756D01*
X146765197Y-113725225D01*
X146592767Y-113307914D01*
X146273765Y-112988355D01*
X145856756Y-112815197D01*
X145405225Y-112814803D01*
X145089836Y-112945119D01*
X145351645Y-112683767D01*
X145524803Y-112266758D01*
X145525197Y-111815227D01*
X145352767Y-111397916D01*
X145081079Y-111125754D01*
X145097502Y-111109331D01*
X145157014Y-111022233D01*
X145238924Y-110967910D01*
X145451056Y-110755778D01*
X145510569Y-110668678D01*
X145592477Y-110614357D01*
X145804609Y-110402225D01*
X145864123Y-110315123D01*
X145946030Y-110260803D01*
X146158162Y-110048671D01*
X146217674Y-109961573D01*
X146299584Y-109907250D01*
X146511716Y-109695118D01*
X146571230Y-109608016D01*
X146653137Y-109553696D01*
X146865269Y-109341564D01*
X146924781Y-109254466D01*
X147006691Y-109200143D01*
X147218823Y-108988011D01*
X147278336Y-108900911D01*
X147360244Y-108846590D01*
X147572376Y-108634458D01*
X147593453Y-108603611D01*
X147775021Y-108785179D01*
X147774803Y-109034775D01*
X147947233Y-109452086D01*
X148266235Y-109771645D01*
X148683244Y-109944803D01*
X149134775Y-109945197D01*
X149552086Y-109772767D01*
X149871645Y-109453765D01*
X150044803Y-109036756D01*
X150045197Y-108585225D01*
X149872767Y-108167914D01*
X149553765Y-107848355D01*
X149136756Y-107675197D01*
X148885135Y-107674977D01*
X148695139Y-107484981D01*
X148774458Y-107432376D01*
X148986590Y-107220244D01*
X149046103Y-107133144D01*
X149128011Y-107078823D01*
X149340143Y-106866691D01*
X149381087Y-106806768D01*
X149383453Y-106805788D01*
X149413548Y-106775693D01*
X149413548Y-106759259D01*
X149475228Y-106668988D01*
X149504133Y-106535739D01*
X149620936Y-106513761D01*
X149724435Y-106445121D01*
X149744120Y-106445121D01*
X149774215Y-106415026D01*
X149775882Y-106411001D01*
X149835118Y-106371716D01*
X150047250Y-106159584D01*
X150106764Y-106072482D01*
X150188671Y-106018162D01*
X150252181Y-105954652D01*
X150261192Y-105956444D01*
X150924731Y-105956444D01*
X151225137Y-105896689D01*
X151479810Y-105726523D01*
X151622198Y-105513423D01*
X153094394Y-104041227D01*
X153303562Y-104250395D01*
G36*
X172469566Y-116280434D02*
X172740459Y-116461439D01*
X173060000Y-116525000D01*
X177473554Y-116525000D01*
X177501838Y-116675317D01*
X177640910Y-116891441D01*
X177853110Y-117036431D01*
X178105000Y-117087440D01*
X179035183Y-117087440D01*
X178918569Y-117258110D01*
X178915149Y-117275000D01*
X171160154Y-117275000D01*
X171013765Y-117128355D01*
X170596756Y-116955197D01*
X170145225Y-116954803D01*
X169727914Y-117127233D01*
X169408355Y-117446235D01*
X169235197Y-117863244D01*
X169234930Y-118169772D01*
X167524694Y-116459536D01*
X167662086Y-116402767D01*
X167890251Y-116175000D01*
X169395000Y-116175000D01*
X169676272Y-116119051D01*
X169742397Y-116074868D01*
X170119775Y-116075197D01*
X170537086Y-115902767D01*
X170856645Y-115583765D01*
X171029803Y-115166756D01*
X171030087Y-114840955D01*
X172469566Y-116280434D01*
X172469566Y-116280434D01*
G37*
X172469566Y-116280434D02*
X172740459Y-116461439D01*
X173060000Y-116525000D01*
X177473554Y-116525000D01*
X177501838Y-116675317D01*
X177640910Y-116891441D01*
X177853110Y-117036431D01*
X178105000Y-117087440D01*
X179035183Y-117087440D01*
X178918569Y-117258110D01*
X178915149Y-117275000D01*
X171160154Y-117275000D01*
X171013765Y-117128355D01*
X170596756Y-116955197D01*
X170145225Y-116954803D01*
X169727914Y-117127233D01*
X169408355Y-117446235D01*
X169235197Y-117863244D01*
X169234930Y-118169772D01*
X167524694Y-116459536D01*
X167662086Y-116402767D01*
X167890251Y-116175000D01*
X169395000Y-116175000D01*
X169676272Y-116119051D01*
X169742397Y-116074868D01*
X170119775Y-116075197D01*
X170537086Y-115902767D01*
X170856645Y-115583765D01*
X171029803Y-115166756D01*
X171030087Y-114840955D01*
X172469566Y-116280434D01*
G36*
X132755910Y-107216441D02*
X132968110Y-107361431D01*
X133220000Y-107412440D01*
X133820000Y-107412440D01*
X134055317Y-107368162D01*
X134271441Y-107229090D01*
X134327560Y-107146958D01*
X139819582Y-107126233D01*
X140660394Y-107972493D01*
X140527914Y-108027233D01*
X140208355Y-108346235D01*
X140035197Y-108763244D01*
X140034803Y-109214775D01*
X140207233Y-109632086D01*
X140526235Y-109951645D01*
X140943244Y-110124803D01*
X141394775Y-110125197D01*
X141812086Y-109952767D01*
X141877761Y-109887207D01*
X142131211Y-110140658D01*
X142128580Y-110143289D01*
X142128580Y-110159724D01*
X142066900Y-110249995D01*
X142018337Y-110473861D01*
X141798008Y-110473861D01*
X141767913Y-110503956D01*
X141671241Y-110737345D01*
X141671241Y-110989964D01*
X141767914Y-111223353D01*
X142185502Y-111640941D01*
X142410009Y-111640941D01*
X142642512Y-111408437D01*
X142822118Y-111588043D01*
X142589614Y-111820546D01*
X142589614Y-112045053D01*
X143007202Y-112462641D01*
X143072330Y-112489618D01*
X142909092Y-112597877D01*
X141848432Y-113658537D01*
X141713347Y-113856240D01*
X141706232Y-113889041D01*
X139240273Y-116355000D01*
X118325415Y-116355000D01*
X118546822Y-116133979D01*
X118834352Y-115441531D01*
X118835006Y-114691759D01*
X118717584Y-114407574D01*
X125975158Y-107150000D01*
X126305982Y-107150000D01*
X126380910Y-107266441D01*
X126593110Y-107411431D01*
X126845000Y-107462440D01*
X127335681Y-107462440D01*
X127198569Y-107663110D01*
X127147560Y-107915000D01*
X127147560Y-108815000D01*
X127191838Y-109050317D01*
X127330910Y-109266441D01*
X127455315Y-109351444D01*
X127439627Y-112140279D01*
X127258355Y-112321235D01*
X127085197Y-112738244D01*
X127084803Y-113189775D01*
X127257233Y-113607086D01*
X127576235Y-113926645D01*
X127993244Y-114099803D01*
X128444775Y-114100197D01*
X128862086Y-113927767D01*
X129181645Y-113608765D01*
X129354803Y-113191756D01*
X129355197Y-112740225D01*
X129182767Y-112322914D01*
X129009601Y-112149445D01*
X129025673Y-109292454D01*
X129046441Y-109279090D01*
X129191431Y-109066890D01*
X129242440Y-108815000D01*
X129242440Y-107915000D01*
X129198162Y-107679683D01*
X129059090Y-107463559D01*
X129057452Y-107462440D01*
X129545000Y-107462440D01*
X129780317Y-107418162D01*
X129996441Y-107279090D01*
X130084644Y-107150000D01*
X131013156Y-107150000D01*
X131055910Y-107216441D01*
X131268110Y-107361431D01*
X131520000Y-107412440D01*
X132120000Y-107412440D01*
X132355317Y-107368162D01*
X132571441Y-107229090D01*
X132670633Y-107083917D01*
X132755910Y-107216441D01*
X132755910Y-107216441D01*
G37*
X132755910Y-107216441D02*
X132968110Y-107361431D01*
X133220000Y-107412440D01*
X133820000Y-107412440D01*
X134055317Y-107368162D01*
X134271441Y-107229090D01*
X134327560Y-107146958D01*
X139819582Y-107126233D01*
X140660394Y-107972493D01*
X140527914Y-108027233D01*
X140208355Y-108346235D01*
X140035197Y-108763244D01*
X140034803Y-109214775D01*
X140207233Y-109632086D01*
X140526235Y-109951645D01*
X140943244Y-110124803D01*
X141394775Y-110125197D01*
X141812086Y-109952767D01*
X141877761Y-109887207D01*
X142131211Y-110140658D01*
X142128580Y-110143289D01*
X142128580Y-110159724D01*
X142066900Y-110249995D01*
X142018337Y-110473861D01*
X141798008Y-110473861D01*
X141767913Y-110503956D01*
X141671241Y-110737345D01*
X141671241Y-110989964D01*
X141767914Y-111223353D01*
X142185502Y-111640941D01*
X142410009Y-111640941D01*
X142642512Y-111408437D01*
X142822118Y-111588043D01*
X142589614Y-111820546D01*
X142589614Y-112045053D01*
X143007202Y-112462641D01*
X143072330Y-112489618D01*
X142909092Y-112597877D01*
X141848432Y-113658537D01*
X141713347Y-113856240D01*
X141706232Y-113889041D01*
X139240273Y-116355000D01*
X118325415Y-116355000D01*
X118546822Y-116133979D01*
X118834352Y-115441531D01*
X118835006Y-114691759D01*
X118717584Y-114407574D01*
X125975158Y-107150000D01*
X126305982Y-107150000D01*
X126380910Y-107266441D01*
X126593110Y-107411431D01*
X126845000Y-107462440D01*
X127335681Y-107462440D01*
X127198569Y-107663110D01*
X127147560Y-107915000D01*
X127147560Y-108815000D01*
X127191838Y-109050317D01*
X127330910Y-109266441D01*
X127455315Y-109351444D01*
X127439627Y-112140279D01*
X127258355Y-112321235D01*
X127085197Y-112738244D01*
X127084803Y-113189775D01*
X127257233Y-113607086D01*
X127576235Y-113926645D01*
X127993244Y-114099803D01*
X128444775Y-114100197D01*
X128862086Y-113927767D01*
X129181645Y-113608765D01*
X129354803Y-113191756D01*
X129355197Y-112740225D01*
X129182767Y-112322914D01*
X129009601Y-112149445D01*
X129025673Y-109292454D01*
X129046441Y-109279090D01*
X129191431Y-109066890D01*
X129242440Y-108815000D01*
X129242440Y-107915000D01*
X129198162Y-107679683D01*
X129059090Y-107463559D01*
X129057452Y-107462440D01*
X129545000Y-107462440D01*
X129780317Y-107418162D01*
X129996441Y-107279090D01*
X130084644Y-107150000D01*
X131013156Y-107150000D01*
X131055910Y-107216441D01*
X131268110Y-107361431D01*
X131520000Y-107412440D01*
X132120000Y-107412440D01*
X132355317Y-107368162D01*
X132571441Y-107229090D01*
X132670633Y-107083917D01*
X132755910Y-107216441D01*
G36*
X162485000Y-100920000D02*
X162535723Y-101175000D01*
X162540949Y-101201272D01*
X162700277Y-101439723D01*
X167890276Y-106629723D01*
X168128727Y-106789051D01*
X168175394Y-106798333D01*
X168410000Y-106845000D01*
X173125000Y-106845000D01*
X173125000Y-107084250D01*
X173283750Y-107243000D01*
X174233000Y-107243000D01*
X174233000Y-107223000D01*
X174487000Y-107223000D01*
X174487000Y-107243000D01*
X174507000Y-107243000D01*
X174507000Y-107497000D01*
X174487000Y-107497000D01*
X174487000Y-108296250D01*
X174645750Y-108455000D01*
X175086309Y-108455000D01*
X175319698Y-108358327D01*
X175460936Y-108217090D01*
X175495910Y-108271441D01*
X175708110Y-108416431D01*
X175960000Y-108467440D01*
X177160000Y-108467440D01*
X177395317Y-108423162D01*
X177611441Y-108284090D01*
X177733808Y-108105000D01*
X179695000Y-108105000D01*
X179976272Y-108049051D01*
X180214723Y-107889723D01*
X180679723Y-107424724D01*
X180728021Y-107352440D01*
X180760000Y-107352440D01*
X180995317Y-107308162D01*
X181109978Y-107234380D01*
X181208110Y-107301431D01*
X181460000Y-107352440D01*
X182660000Y-107352440D01*
X182895317Y-107308162D01*
X183111441Y-107169090D01*
X183256431Y-106956890D01*
X183270989Y-106885000D01*
X184235734Y-106885000D01*
X184470000Y-106932440D01*
X185970000Y-106932440D01*
X186205317Y-106888162D01*
X186421441Y-106749090D01*
X186566431Y-106536890D01*
X186617440Y-106285000D01*
X186617440Y-105685000D01*
X186573162Y-105449683D01*
X186509322Y-105350472D01*
X186566431Y-105266890D01*
X186617440Y-105015000D01*
X186617440Y-104415000D01*
X186573162Y-104179683D01*
X186509322Y-104080472D01*
X186566431Y-103996890D01*
X186617440Y-103745000D01*
X186617440Y-103145000D01*
X186592038Y-103010000D01*
X188895000Y-103010000D01*
X188895000Y-108227401D01*
X188768355Y-108353825D01*
X188595197Y-108770834D01*
X188594803Y-109222365D01*
X188653739Y-109365000D01*
X182300000Y-109365000D01*
X181980460Y-109428560D01*
X181709566Y-109609566D01*
X180399566Y-110919566D01*
X180218561Y-111190459D01*
X180155000Y-111510000D01*
X180155000Y-115005000D01*
X180002440Y-115005000D01*
X180002440Y-114940000D01*
X179958162Y-114704683D01*
X179819090Y-114488559D01*
X179750994Y-114442031D01*
X179893327Y-114299698D01*
X179990000Y-114066309D01*
X179990000Y-113475750D01*
X179831250Y-113317000D01*
X178857000Y-113317000D01*
X178857000Y-113337000D01*
X178603000Y-113337000D01*
X178603000Y-113317000D01*
X177628750Y-113317000D01*
X177470000Y-113475750D01*
X177470000Y-114066309D01*
X177566673Y-114299698D01*
X177707910Y-114440936D01*
X177653559Y-114475910D01*
X177508569Y-114688110D01*
X177474773Y-114855000D01*
X173405868Y-114855000D01*
X170864559Y-112313691D01*
X177470000Y-112313691D01*
X177470000Y-112904250D01*
X177628750Y-113063000D01*
X178603000Y-113063000D01*
X178603000Y-111963750D01*
X178857000Y-111963750D01*
X178857000Y-113063000D01*
X179831250Y-113063000D01*
X179990000Y-112904250D01*
X179990000Y-112313691D01*
X179893327Y-112080302D01*
X179714699Y-111901673D01*
X179481310Y-111805000D01*
X179015750Y-111805000D01*
X178857000Y-111963750D01*
X178603000Y-111963750D01*
X178444250Y-111805000D01*
X177978690Y-111805000D01*
X177745301Y-111901673D01*
X177566673Y-112080302D01*
X177470000Y-112313691D01*
X170864559Y-112313691D01*
X168770434Y-110219566D01*
X168731742Y-110193713D01*
X168499541Y-110038561D01*
X168180000Y-109975000D01*
X165370000Y-109975000D01*
X165364001Y-109976193D01*
X165357989Y-109975087D01*
X165204463Y-110007928D01*
X165050459Y-110038561D01*
X165045375Y-110041958D01*
X165039395Y-110043237D01*
X163564723Y-110679070D01*
X163553613Y-110620027D01*
X163411568Y-110405845D01*
X163199436Y-110193713D01*
X163112336Y-110134200D01*
X163058015Y-110052292D01*
X162845883Y-109840160D01*
X162758781Y-109780646D01*
X162704461Y-109698739D01*
X162492329Y-109486607D01*
X162405231Y-109427095D01*
X162350908Y-109345185D01*
X162138776Y-109133053D01*
X162051674Y-109073539D01*
X161997354Y-108991632D01*
X161785222Y-108779500D01*
X161698122Y-108719987D01*
X161643801Y-108638079D01*
X161431669Y-108425947D01*
X161344571Y-108366435D01*
X161290248Y-108284525D01*
X161078116Y-108072393D01*
X160991014Y-108012879D01*
X160936694Y-107930972D01*
X160724562Y-107718840D01*
X160637464Y-107659328D01*
X160635092Y-107655750D01*
X173125000Y-107655750D01*
X173125000Y-107946310D01*
X173221673Y-108179699D01*
X173400302Y-108358327D01*
X173633691Y-108455000D01*
X174074250Y-108455000D01*
X174233000Y-108296250D01*
X174233000Y-107497000D01*
X173283750Y-107497000D01*
X173125000Y-107655750D01*
X160635092Y-107655750D01*
X160583141Y-107577418D01*
X160371009Y-107365286D01*
X160283907Y-107305772D01*
X160229587Y-107223865D01*
X160156058Y-107150336D01*
X160171200Y-107074214D01*
X160171200Y-100794588D01*
X160624588Y-100341200D01*
X161720000Y-100341200D01*
X161992165Y-100287063D01*
X162222894Y-100132894D01*
X162485000Y-99870789D01*
X162485000Y-100920000D01*
X162485000Y-100920000D01*
G37*
X162485000Y-100920000D02*
X162535723Y-101175000D01*
X162540949Y-101201272D01*
X162700277Y-101439723D01*
X167890276Y-106629723D01*
X168128727Y-106789051D01*
X168175394Y-106798333D01*
X168410000Y-106845000D01*
X173125000Y-106845000D01*
X173125000Y-107084250D01*
X173283750Y-107243000D01*
X174233000Y-107243000D01*
X174233000Y-107223000D01*
X174487000Y-107223000D01*
X174487000Y-107243000D01*
X174507000Y-107243000D01*
X174507000Y-107497000D01*
X174487000Y-107497000D01*
X174487000Y-108296250D01*
X174645750Y-108455000D01*
X175086309Y-108455000D01*
X175319698Y-108358327D01*
X175460936Y-108217090D01*
X175495910Y-108271441D01*
X175708110Y-108416431D01*
X175960000Y-108467440D01*
X177160000Y-108467440D01*
X177395317Y-108423162D01*
X177611441Y-108284090D01*
X177733808Y-108105000D01*
X179695000Y-108105000D01*
X179976272Y-108049051D01*
X180214723Y-107889723D01*
X180679723Y-107424724D01*
X180728021Y-107352440D01*
X180760000Y-107352440D01*
X180995317Y-107308162D01*
X181109978Y-107234380D01*
X181208110Y-107301431D01*
X181460000Y-107352440D01*
X182660000Y-107352440D01*
X182895317Y-107308162D01*
X183111441Y-107169090D01*
X183256431Y-106956890D01*
X183270989Y-106885000D01*
X184235734Y-106885000D01*
X184470000Y-106932440D01*
X185970000Y-106932440D01*
X186205317Y-106888162D01*
X186421441Y-106749090D01*
X186566431Y-106536890D01*
X186617440Y-106285000D01*
X186617440Y-105685000D01*
X186573162Y-105449683D01*
X186509322Y-105350472D01*
X186566431Y-105266890D01*
X186617440Y-105015000D01*
X186617440Y-104415000D01*
X186573162Y-104179683D01*
X186509322Y-104080472D01*
X186566431Y-103996890D01*
X186617440Y-103745000D01*
X186617440Y-103145000D01*
X186592038Y-103010000D01*
X188895000Y-103010000D01*
X188895000Y-108227401D01*
X188768355Y-108353825D01*
X188595197Y-108770834D01*
X188594803Y-109222365D01*
X188653739Y-109365000D01*
X182300000Y-109365000D01*
X181980460Y-109428560D01*
X181709566Y-109609566D01*
X180399566Y-110919566D01*
X180218561Y-111190459D01*
X180155000Y-111510000D01*
X180155000Y-115005000D01*
X180002440Y-115005000D01*
X180002440Y-114940000D01*
X179958162Y-114704683D01*
X179819090Y-114488559D01*
X179750994Y-114442031D01*
X179893327Y-114299698D01*
X179990000Y-114066309D01*
X179990000Y-113475750D01*
X179831250Y-113317000D01*
X178857000Y-113317000D01*
X178857000Y-113337000D01*
X178603000Y-113337000D01*
X178603000Y-113317000D01*
X177628750Y-113317000D01*
X177470000Y-113475750D01*
X177470000Y-114066309D01*
X177566673Y-114299698D01*
X177707910Y-114440936D01*
X177653559Y-114475910D01*
X177508569Y-114688110D01*
X177474773Y-114855000D01*
X173405868Y-114855000D01*
X170864559Y-112313691D01*
X177470000Y-112313691D01*
X177470000Y-112904250D01*
X177628750Y-113063000D01*
X178603000Y-113063000D01*
X178603000Y-111963750D01*
X178857000Y-111963750D01*
X178857000Y-113063000D01*
X179831250Y-113063000D01*
X179990000Y-112904250D01*
X179990000Y-112313691D01*
X179893327Y-112080302D01*
X179714699Y-111901673D01*
X179481310Y-111805000D01*
X179015750Y-111805000D01*
X178857000Y-111963750D01*
X178603000Y-111963750D01*
X178444250Y-111805000D01*
X177978690Y-111805000D01*
X177745301Y-111901673D01*
X177566673Y-112080302D01*
X177470000Y-112313691D01*
X170864559Y-112313691D01*
X168770434Y-110219566D01*
X168731742Y-110193713D01*
X168499541Y-110038561D01*
X168180000Y-109975000D01*
X165370000Y-109975000D01*
X165364001Y-109976193D01*
X165357989Y-109975087D01*
X165204463Y-110007928D01*
X165050459Y-110038561D01*
X165045375Y-110041958D01*
X165039395Y-110043237D01*
X163564723Y-110679070D01*
X163553613Y-110620027D01*
X163411568Y-110405845D01*
X163199436Y-110193713D01*
X163112336Y-110134200D01*
X163058015Y-110052292D01*
X162845883Y-109840160D01*
X162758781Y-109780646D01*
X162704461Y-109698739D01*
X162492329Y-109486607D01*
X162405231Y-109427095D01*
X162350908Y-109345185D01*
X162138776Y-109133053D01*
X162051674Y-109073539D01*
X161997354Y-108991632D01*
X161785222Y-108779500D01*
X161698122Y-108719987D01*
X161643801Y-108638079D01*
X161431669Y-108425947D01*
X161344571Y-108366435D01*
X161290248Y-108284525D01*
X161078116Y-108072393D01*
X160991014Y-108012879D01*
X160936694Y-107930972D01*
X160724562Y-107718840D01*
X160637464Y-107659328D01*
X160635092Y-107655750D01*
X173125000Y-107655750D01*
X173125000Y-107946310D01*
X173221673Y-108179699D01*
X173400302Y-108358327D01*
X173633691Y-108455000D01*
X174074250Y-108455000D01*
X174233000Y-108296250D01*
X174233000Y-107497000D01*
X173283750Y-107497000D01*
X173125000Y-107655750D01*
X160635092Y-107655750D01*
X160583141Y-107577418D01*
X160371009Y-107365286D01*
X160283907Y-107305772D01*
X160229587Y-107223865D01*
X160156058Y-107150336D01*
X160171200Y-107074214D01*
X160171200Y-100794588D01*
X160624588Y-100341200D01*
X161720000Y-100341200D01*
X161992165Y-100287063D01*
X162222894Y-100132894D01*
X162485000Y-99870789D01*
X162485000Y-100920000D01*
G36*
X193135000Y-100478690D02*
X193135000Y-100619250D01*
X193293750Y-100778000D01*
X194393000Y-100778000D01*
X194393000Y-100758000D01*
X194647000Y-100758000D01*
X194647000Y-100778000D01*
X194667000Y-100778000D01*
X194667000Y-101032000D01*
X194647000Y-101032000D01*
X194647000Y-102048000D01*
X194667000Y-102048000D01*
X194667000Y-102302000D01*
X194647000Y-102302000D01*
X194647000Y-102322000D01*
X194393000Y-102322000D01*
X194393000Y-102302000D01*
X193293750Y-102302000D01*
X193135000Y-102460750D01*
X193135000Y-102601310D01*
X193224806Y-102818122D01*
X193173569Y-102893110D01*
X193122560Y-103145000D01*
X193122560Y-103745000D01*
X193166838Y-103980317D01*
X193230678Y-104079528D01*
X193173569Y-104163110D01*
X193122560Y-104415000D01*
X193122560Y-105015000D01*
X193166838Y-105250317D01*
X193230678Y-105349528D01*
X193173569Y-105433110D01*
X193122560Y-105685000D01*
X193122560Y-106285000D01*
X193166838Y-106520317D01*
X193305910Y-106736441D01*
X193518110Y-106881431D01*
X193770000Y-106932440D01*
X195146692Y-106932440D01*
X192714132Y-109365000D01*
X190806398Y-109365000D01*
X190864803Y-109224346D01*
X190865197Y-108772815D01*
X190692767Y-108355504D01*
X190565000Y-108227514D01*
X190565000Y-102010000D01*
X190545000Y-101909454D01*
X190545000Y-101190750D01*
X193135000Y-101190750D01*
X193135000Y-101331310D01*
X193221442Y-101540000D01*
X193135000Y-101748690D01*
X193135000Y-101889250D01*
X193293750Y-102048000D01*
X194393000Y-102048000D01*
X194393000Y-101032000D01*
X193293750Y-101032000D01*
X193135000Y-101190750D01*
X190545000Y-101190750D01*
X190545000Y-100615868D01*
X190690868Y-100470000D01*
X193138600Y-100470000D01*
X193135000Y-100478690D01*
X193135000Y-100478690D01*
G37*
X193135000Y-100478690D02*
X193135000Y-100619250D01*
X193293750Y-100778000D01*
X194393000Y-100778000D01*
X194393000Y-100758000D01*
X194647000Y-100758000D01*
X194647000Y-100778000D01*
X194667000Y-100778000D01*
X194667000Y-101032000D01*
X194647000Y-101032000D01*
X194647000Y-102048000D01*
X194667000Y-102048000D01*
X194667000Y-102302000D01*
X194647000Y-102302000D01*
X194647000Y-102322000D01*
X194393000Y-102322000D01*
X194393000Y-102302000D01*
X193293750Y-102302000D01*
X193135000Y-102460750D01*
X193135000Y-102601310D01*
X193224806Y-102818122D01*
X193173569Y-102893110D01*
X193122560Y-103145000D01*
X193122560Y-103745000D01*
X193166838Y-103980317D01*
X193230678Y-104079528D01*
X193173569Y-104163110D01*
X193122560Y-104415000D01*
X193122560Y-105015000D01*
X193166838Y-105250317D01*
X193230678Y-105349528D01*
X193173569Y-105433110D01*
X193122560Y-105685000D01*
X193122560Y-106285000D01*
X193166838Y-106520317D01*
X193305910Y-106736441D01*
X193518110Y-106881431D01*
X193770000Y-106932440D01*
X195146692Y-106932440D01*
X192714132Y-109365000D01*
X190806398Y-109365000D01*
X190864803Y-109224346D01*
X190865197Y-108772815D01*
X190692767Y-108355504D01*
X190565000Y-108227514D01*
X190565000Y-102010000D01*
X190545000Y-101909454D01*
X190545000Y-101190750D01*
X193135000Y-101190750D01*
X193135000Y-101331310D01*
X193221442Y-101540000D01*
X193135000Y-101748690D01*
X193135000Y-101889250D01*
X193293750Y-102048000D01*
X194393000Y-102048000D01*
X194393000Y-101032000D01*
X193293750Y-101032000D01*
X193135000Y-101190750D01*
X190545000Y-101190750D01*
X190545000Y-100615868D01*
X190690868Y-100470000D01*
X193138600Y-100470000D01*
X193135000Y-100478690D01*
G36*
X113155910Y-85866441D02*
X113225711Y-85914134D01*
X113168559Y-85950910D01*
X113023569Y-86163110D01*
X112972560Y-86415000D01*
X112972560Y-87615000D01*
X113016838Y-87850317D01*
X113155910Y-88066441D01*
X113285000Y-88154644D01*
X113285000Y-98206737D01*
X113247738Y-99972938D01*
X113156788Y-99935172D01*
X112764931Y-99934830D01*
X112402771Y-100084471D01*
X112125445Y-100361314D01*
X111975172Y-100723212D01*
X111974830Y-101115069D01*
X112124471Y-101477229D01*
X112401314Y-101754555D01*
X112763212Y-101904828D01*
X113155069Y-101905170D01*
X113207430Y-101883535D01*
X113161185Y-104075568D01*
X113160175Y-104123443D01*
X113161010Y-104128159D01*
X113161010Y-104134154D01*
X113160000Y-104139205D01*
X113161010Y-104144310D01*
X113161010Y-104238832D01*
X112075127Y-105324715D01*
X112075170Y-105274931D01*
X111925529Y-104912771D01*
X111648686Y-104635445D01*
X111286788Y-104485172D01*
X110894931Y-104484830D01*
X110532771Y-104634471D01*
X110255445Y-104911314D01*
X110105172Y-105273212D01*
X110104830Y-105665069D01*
X110254471Y-106027229D01*
X110531314Y-106304555D01*
X110893212Y-106454828D01*
X110944969Y-106454873D01*
X110894842Y-106505000D01*
X106670373Y-106505000D01*
X106691645Y-106483765D01*
X106864803Y-106066756D01*
X106865197Y-105615225D01*
X106692767Y-105197914D01*
X106373765Y-104878355D01*
X105956756Y-104705197D01*
X105505225Y-104704803D01*
X105087914Y-104877233D01*
X104768355Y-105196235D01*
X104595197Y-105613244D01*
X104594803Y-106064775D01*
X104767233Y-106482086D01*
X104790107Y-106505000D01*
X102633440Y-106505000D01*
X102633440Y-106476400D01*
X102589162Y-106241083D01*
X102450090Y-106024959D01*
X102237890Y-105879969D01*
X102196561Y-105871600D01*
X102214415Y-105859670D01*
X102539271Y-105373489D01*
X102653345Y-104800000D01*
X102539271Y-104226511D01*
X102214415Y-103740330D01*
X101899634Y-103530000D01*
X102214415Y-103319670D01*
X102539271Y-102833489D01*
X102653345Y-102260000D01*
X102539271Y-101686511D01*
X102214415Y-101200330D01*
X101997017Y-101055069D01*
X106634830Y-101055069D01*
X106784471Y-101417229D01*
X107061314Y-101694555D01*
X107423212Y-101844828D01*
X107815069Y-101845170D01*
X108177229Y-101695529D01*
X108454555Y-101418686D01*
X108604828Y-101056788D01*
X108605170Y-100664931D01*
X108455529Y-100302771D01*
X108178686Y-100025445D01*
X107816788Y-99875172D01*
X107424931Y-99874830D01*
X107062771Y-100024471D01*
X106785445Y-100301314D01*
X106635172Y-100663212D01*
X106634830Y-101055069D01*
X101997017Y-101055069D01*
X101899634Y-100990000D01*
X102214415Y-100779670D01*
X102539271Y-100293489D01*
X102653345Y-99720000D01*
X102539271Y-99146511D01*
X102214415Y-98660330D01*
X101899634Y-98450000D01*
X102214415Y-98239670D01*
X102539271Y-97753489D01*
X102653345Y-97180000D01*
X102539271Y-96606511D01*
X102214415Y-96120330D01*
X101728234Y-95795474D01*
X101154745Y-95681400D01*
X100785255Y-95681400D01*
X100211766Y-95795474D01*
X99770000Y-96090653D01*
X99770000Y-94236814D01*
X100020000Y-94287440D01*
X101720000Y-94287440D01*
X101955317Y-94243162D01*
X102171441Y-94104090D01*
X102316431Y-93891890D01*
X102367440Y-93640000D01*
X102367440Y-91940000D01*
X102323162Y-91704683D01*
X102184090Y-91488559D01*
X101971890Y-91343569D01*
X101863893Y-91321699D01*
X102141645Y-91016924D01*
X102311476Y-90606890D01*
X102190155Y-90377000D01*
X100997000Y-90377000D01*
X100997000Y-90397000D01*
X100743000Y-90397000D01*
X100743000Y-90377000D01*
X100723000Y-90377000D01*
X100723000Y-90123000D01*
X100743000Y-90123000D01*
X100743000Y-88929181D01*
X100997000Y-88929181D01*
X100997000Y-90123000D01*
X102190155Y-90123000D01*
X102311476Y-89893110D01*
X102141645Y-89483076D01*
X101751358Y-89054817D01*
X101226892Y-88808514D01*
X100997000Y-88929181D01*
X100743000Y-88929181D01*
X100513108Y-88808514D01*
X99988642Y-89054817D01*
X99770000Y-89294731D01*
X99770000Y-88501304D01*
X99904000Y-88528440D01*
X101936000Y-88528440D01*
X102171317Y-88484162D01*
X102387441Y-88345090D01*
X102532431Y-88132890D01*
X102583440Y-87881000D01*
X102583440Y-87664349D01*
X104267859Y-87672882D01*
X104291838Y-87800317D01*
X104430910Y-88016441D01*
X104643110Y-88161431D01*
X104895000Y-88212440D01*
X105795000Y-88212440D01*
X106030317Y-88168162D01*
X106246441Y-88029090D01*
X106391431Y-87816890D01*
X106442440Y-87565000D01*
X106442440Y-87370653D01*
X106466838Y-87500317D01*
X106605910Y-87716441D01*
X106818110Y-87861431D01*
X107070000Y-87912440D01*
X107820000Y-87912440D01*
X108055317Y-87868162D01*
X108271441Y-87729090D01*
X108416431Y-87516890D01*
X108440102Y-87400000D01*
X108745331Y-87400000D01*
X108755910Y-87416441D01*
X108968110Y-87561431D01*
X109220000Y-87612440D01*
X110020000Y-87612440D01*
X110255317Y-87568162D01*
X110471441Y-87429090D01*
X110473599Y-87425932D01*
X110710518Y-87419163D01*
X110658355Y-87471235D01*
X110485197Y-87888244D01*
X110484803Y-88339775D01*
X110657233Y-88757086D01*
X110976235Y-89076645D01*
X111393244Y-89249803D01*
X111844775Y-89250197D01*
X112262086Y-89077767D01*
X112581645Y-88758765D01*
X112754803Y-88341756D01*
X112755197Y-87890225D01*
X112582767Y-87472914D01*
X112498901Y-87388901D01*
X112616431Y-87216890D01*
X112667440Y-86965000D01*
X112667440Y-86365000D01*
X112623162Y-86129683D01*
X112484090Y-85913559D01*
X112338917Y-85814367D01*
X112460557Y-85736094D01*
X113065543Y-85726007D01*
X113155910Y-85866441D01*
X113155910Y-85866441D01*
G37*
X113155910Y-85866441D02*
X113225711Y-85914134D01*
X113168559Y-85950910D01*
X113023569Y-86163110D01*
X112972560Y-86415000D01*
X112972560Y-87615000D01*
X113016838Y-87850317D01*
X113155910Y-88066441D01*
X113285000Y-88154644D01*
X113285000Y-98206737D01*
X113247738Y-99972938D01*
X113156788Y-99935172D01*
X112764931Y-99934830D01*
X112402771Y-100084471D01*
X112125445Y-100361314D01*
X111975172Y-100723212D01*
X111974830Y-101115069D01*
X112124471Y-101477229D01*
X112401314Y-101754555D01*
X112763212Y-101904828D01*
X113155069Y-101905170D01*
X113207430Y-101883535D01*
X113161185Y-104075568D01*
X113160175Y-104123443D01*
X113161010Y-104128159D01*
X113161010Y-104134154D01*
X113160000Y-104139205D01*
X113161010Y-104144310D01*
X113161010Y-104238832D01*
X112075127Y-105324715D01*
X112075170Y-105274931D01*
X111925529Y-104912771D01*
X111648686Y-104635445D01*
X111286788Y-104485172D01*
X110894931Y-104484830D01*
X110532771Y-104634471D01*
X110255445Y-104911314D01*
X110105172Y-105273212D01*
X110104830Y-105665069D01*
X110254471Y-106027229D01*
X110531314Y-106304555D01*
X110893212Y-106454828D01*
X110944969Y-106454873D01*
X110894842Y-106505000D01*
X106670373Y-106505000D01*
X106691645Y-106483765D01*
X106864803Y-106066756D01*
X106865197Y-105615225D01*
X106692767Y-105197914D01*
X106373765Y-104878355D01*
X105956756Y-104705197D01*
X105505225Y-104704803D01*
X105087914Y-104877233D01*
X104768355Y-105196235D01*
X104595197Y-105613244D01*
X104594803Y-106064775D01*
X104767233Y-106482086D01*
X104790107Y-106505000D01*
X102633440Y-106505000D01*
X102633440Y-106476400D01*
X102589162Y-106241083D01*
X102450090Y-106024959D01*
X102237890Y-105879969D01*
X102196561Y-105871600D01*
X102214415Y-105859670D01*
X102539271Y-105373489D01*
X102653345Y-104800000D01*
X102539271Y-104226511D01*
X102214415Y-103740330D01*
X101899634Y-103530000D01*
X102214415Y-103319670D01*
X102539271Y-102833489D01*
X102653345Y-102260000D01*
X102539271Y-101686511D01*
X102214415Y-101200330D01*
X101997017Y-101055069D01*
X106634830Y-101055069D01*
X106784471Y-101417229D01*
X107061314Y-101694555D01*
X107423212Y-101844828D01*
X107815069Y-101845170D01*
X108177229Y-101695529D01*
X108454555Y-101418686D01*
X108604828Y-101056788D01*
X108605170Y-100664931D01*
X108455529Y-100302771D01*
X108178686Y-100025445D01*
X107816788Y-99875172D01*
X107424931Y-99874830D01*
X107062771Y-100024471D01*
X106785445Y-100301314D01*
X106635172Y-100663212D01*
X106634830Y-101055069D01*
X101997017Y-101055069D01*
X101899634Y-100990000D01*
X102214415Y-100779670D01*
X102539271Y-100293489D01*
X102653345Y-99720000D01*
X102539271Y-99146511D01*
X102214415Y-98660330D01*
X101899634Y-98450000D01*
X102214415Y-98239670D01*
X102539271Y-97753489D01*
X102653345Y-97180000D01*
X102539271Y-96606511D01*
X102214415Y-96120330D01*
X101728234Y-95795474D01*
X101154745Y-95681400D01*
X100785255Y-95681400D01*
X100211766Y-95795474D01*
X99770000Y-96090653D01*
X99770000Y-94236814D01*
X100020000Y-94287440D01*
X101720000Y-94287440D01*
X101955317Y-94243162D01*
X102171441Y-94104090D01*
X102316431Y-93891890D01*
X102367440Y-93640000D01*
X102367440Y-91940000D01*
X102323162Y-91704683D01*
X102184090Y-91488559D01*
X101971890Y-91343569D01*
X101863893Y-91321699D01*
X102141645Y-91016924D01*
X102311476Y-90606890D01*
X102190155Y-90377000D01*
X100997000Y-90377000D01*
X100997000Y-90397000D01*
X100743000Y-90397000D01*
X100743000Y-90377000D01*
X100723000Y-90377000D01*
X100723000Y-90123000D01*
X100743000Y-90123000D01*
X100743000Y-88929181D01*
X100997000Y-88929181D01*
X100997000Y-90123000D01*
X102190155Y-90123000D01*
X102311476Y-89893110D01*
X102141645Y-89483076D01*
X101751358Y-89054817D01*
X101226892Y-88808514D01*
X100997000Y-88929181D01*
X100743000Y-88929181D01*
X100513108Y-88808514D01*
X99988642Y-89054817D01*
X99770000Y-89294731D01*
X99770000Y-88501304D01*
X99904000Y-88528440D01*
X101936000Y-88528440D01*
X102171317Y-88484162D01*
X102387441Y-88345090D01*
X102532431Y-88132890D01*
X102583440Y-87881000D01*
X102583440Y-87664349D01*
X104267859Y-87672882D01*
X104291838Y-87800317D01*
X104430910Y-88016441D01*
X104643110Y-88161431D01*
X104895000Y-88212440D01*
X105795000Y-88212440D01*
X106030317Y-88168162D01*
X106246441Y-88029090D01*
X106391431Y-87816890D01*
X106442440Y-87565000D01*
X106442440Y-87370653D01*
X106466838Y-87500317D01*
X106605910Y-87716441D01*
X106818110Y-87861431D01*
X107070000Y-87912440D01*
X107820000Y-87912440D01*
X108055317Y-87868162D01*
X108271441Y-87729090D01*
X108416431Y-87516890D01*
X108440102Y-87400000D01*
X108745331Y-87400000D01*
X108755910Y-87416441D01*
X108968110Y-87561431D01*
X109220000Y-87612440D01*
X110020000Y-87612440D01*
X110255317Y-87568162D01*
X110471441Y-87429090D01*
X110473599Y-87425932D01*
X110710518Y-87419163D01*
X110658355Y-87471235D01*
X110485197Y-87888244D01*
X110484803Y-88339775D01*
X110657233Y-88757086D01*
X110976235Y-89076645D01*
X111393244Y-89249803D01*
X111844775Y-89250197D01*
X112262086Y-89077767D01*
X112581645Y-88758765D01*
X112754803Y-88341756D01*
X112755197Y-87890225D01*
X112582767Y-87472914D01*
X112498901Y-87388901D01*
X112616431Y-87216890D01*
X112667440Y-86965000D01*
X112667440Y-86365000D01*
X112623162Y-86129683D01*
X112484090Y-85913559D01*
X112338917Y-85814367D01*
X112460557Y-85736094D01*
X113065543Y-85726007D01*
X113155910Y-85866441D01*
G36*
X170168355Y-83336235D02*
X169995197Y-83753244D01*
X169994803Y-84204775D01*
X170167233Y-84622086D01*
X170486235Y-84941645D01*
X170903244Y-85114803D01*
X171354775Y-85115197D01*
X171772086Y-84942767D01*
X171920111Y-84795000D01*
X172279243Y-84795000D01*
X172305910Y-84836441D01*
X172465000Y-84945143D01*
X172465000Y-85064844D01*
X172374683Y-85081838D01*
X172158559Y-85220910D01*
X172013569Y-85433110D01*
X171962560Y-85685000D01*
X171962560Y-86435000D01*
X172006838Y-86670317D01*
X172145910Y-86886441D01*
X172358110Y-87031431D01*
X172610000Y-87082440D01*
X173810000Y-87082440D01*
X174045317Y-87038162D01*
X174159978Y-86964380D01*
X174258110Y-87031431D01*
X174510000Y-87082440D01*
X175710000Y-87082440D01*
X175945317Y-87038162D01*
X176161441Y-86899090D01*
X176280392Y-86725000D01*
X181330982Y-86725000D01*
X181405910Y-86841441D01*
X181618110Y-86986431D01*
X181870000Y-87037440D01*
X183070000Y-87037440D01*
X183305317Y-86993162D01*
X183521441Y-86854090D01*
X183569134Y-86784289D01*
X183605910Y-86841441D01*
X183818110Y-86986431D01*
X184070000Y-87037440D01*
X184657282Y-87037440D01*
X189224000Y-91604158D01*
X189224000Y-92025500D01*
X189222071Y-92025500D01*
X188787725Y-92111897D01*
X188419505Y-92357934D01*
X188173468Y-92726154D01*
X188087071Y-93160500D01*
X188173468Y-93594846D01*
X188419505Y-93963066D01*
X188787725Y-94209103D01*
X189222071Y-94295500D01*
X190795929Y-94295500D01*
X191230275Y-94209103D01*
X191598495Y-93963066D01*
X191611440Y-93943691D01*
X200515000Y-93943691D01*
X200515000Y-94084250D01*
X200673750Y-94243000D01*
X201423000Y-94243000D01*
X201423000Y-93593750D01*
X201264250Y-93435000D01*
X201023690Y-93435000D01*
X200790301Y-93531673D01*
X200611673Y-93710302D01*
X200515000Y-93943691D01*
X191611440Y-93943691D01*
X191844532Y-93594846D01*
X191930929Y-93160500D01*
X191844532Y-92726154D01*
X191598495Y-92357934D01*
X191230275Y-92111897D01*
X190795929Y-92025500D01*
X190794000Y-92025500D01*
X190794000Y-91867089D01*
X196524743Y-91867089D01*
X196750344Y-92413086D01*
X197167717Y-92831188D01*
X197713319Y-93057742D01*
X198304089Y-93058257D01*
X198850086Y-92832656D01*
X199268188Y-92415283D01*
X199494742Y-91869681D01*
X199495257Y-91278911D01*
X199269656Y-90732914D01*
X198852283Y-90314812D01*
X198306681Y-90088258D01*
X197715911Y-90087743D01*
X197169914Y-90313344D01*
X196751812Y-90730717D01*
X196525258Y-91276319D01*
X196524743Y-91867089D01*
X190794000Y-91867089D01*
X190794000Y-91279000D01*
X190756405Y-91090000D01*
X190734245Y-90978593D01*
X190564079Y-90723921D01*
X187990453Y-88150295D01*
X189897716Y-88150295D01*
X190146106Y-88751443D01*
X190605637Y-89211778D01*
X191206352Y-89461216D01*
X191856795Y-89461784D01*
X192457943Y-89213394D01*
X192918278Y-88753863D01*
X193167716Y-88153148D01*
X193167834Y-88017000D01*
X196875000Y-88017000D01*
X196875000Y-88767000D01*
X197009998Y-89191678D01*
X197297237Y-89532368D01*
X197708126Y-89734119D01*
X197883000Y-89607954D01*
X197883000Y-88017000D01*
X198137000Y-88017000D01*
X198137000Y-89607954D01*
X198311874Y-89734119D01*
X198722763Y-89532368D01*
X199010002Y-89191678D01*
X199145000Y-88767000D01*
X199145000Y-88017000D01*
X198137000Y-88017000D01*
X197883000Y-88017000D01*
X196875000Y-88017000D01*
X193167834Y-88017000D01*
X193168284Y-87502705D01*
X192965942Y-87013000D01*
X196875000Y-87013000D01*
X196875000Y-87763000D01*
X197883000Y-87763000D01*
X197883000Y-86172046D01*
X198137000Y-86172046D01*
X198137000Y-87763000D01*
X199145000Y-87763000D01*
X199145000Y-87013000D01*
X199010002Y-86588322D01*
X198722763Y-86247632D01*
X198311874Y-86045881D01*
X198137000Y-86172046D01*
X197883000Y-86172046D01*
X197708126Y-86045881D01*
X197297237Y-86247632D01*
X197009998Y-86588322D01*
X196875000Y-87013000D01*
X192965942Y-87013000D01*
X192919894Y-86901557D01*
X192460363Y-86441222D01*
X191859648Y-86191784D01*
X191209205Y-86191216D01*
X190608057Y-86439606D01*
X190147722Y-86899137D01*
X189898284Y-87499852D01*
X189897716Y-88150295D01*
X187990453Y-88150295D01*
X185917440Y-86077282D01*
X185917440Y-85490000D01*
X185873162Y-85254683D01*
X185734090Y-85038559D01*
X185521890Y-84893569D01*
X185270000Y-84842560D01*
X184070000Y-84842560D01*
X183834683Y-84886838D01*
X183618559Y-85025910D01*
X183570866Y-85095711D01*
X183534090Y-85038559D01*
X183321890Y-84893569D01*
X183070000Y-84842560D01*
X181870000Y-84842560D01*
X181634683Y-84886838D01*
X181418559Y-85025910D01*
X181330356Y-85155000D01*
X176059115Y-85155000D01*
X176055000Y-85152188D01*
X176055000Y-84997630D01*
X176105317Y-84988162D01*
X176321441Y-84849090D01*
X176466431Y-84636890D01*
X176517440Y-84385000D01*
X176517440Y-83635000D01*
X176473162Y-83399683D01*
X176383278Y-83260000D01*
X196742559Y-83260000D01*
X196525258Y-83783319D01*
X196524743Y-84374089D01*
X196750344Y-84920086D01*
X197167717Y-85338188D01*
X197713319Y-85564742D01*
X198304089Y-85565257D01*
X198850086Y-85339656D01*
X199268188Y-84922283D01*
X199494742Y-84376681D01*
X199495257Y-83785911D01*
X199277955Y-83260000D01*
X202490000Y-83260000D01*
X202490000Y-93714341D01*
X202488327Y-93710302D01*
X202309699Y-93531673D01*
X202076310Y-93435000D01*
X201835750Y-93435000D01*
X201677000Y-93593750D01*
X201677000Y-94243000D01*
X201697000Y-94243000D01*
X201697000Y-94497000D01*
X201677000Y-94497000D01*
X201677000Y-94517000D01*
X201423000Y-94517000D01*
X201423000Y-94497000D01*
X200673750Y-94497000D01*
X200515000Y-94655750D01*
X200515000Y-94796309D01*
X200611673Y-95029698D01*
X200790301Y-95208327D01*
X200826747Y-95223423D01*
X200698559Y-95305910D01*
X200553569Y-95518110D01*
X200502560Y-95770000D01*
X200502560Y-96370000D01*
X200546838Y-96605317D01*
X200685910Y-96821441D01*
X200730000Y-96851566D01*
X200730000Y-97751330D01*
X200598559Y-97835910D01*
X200453569Y-98048110D01*
X200402560Y-98300000D01*
X200402560Y-99500000D01*
X200446838Y-99735317D01*
X200585910Y-99951441D01*
X200655711Y-99999134D01*
X200598559Y-100035910D01*
X200453569Y-100248110D01*
X200402560Y-100500000D01*
X200402560Y-101700000D01*
X200446838Y-101935317D01*
X200585910Y-102151441D01*
X200767000Y-102275174D01*
X200767000Y-104868960D01*
X200414000Y-104868960D01*
X200178683Y-104913238D01*
X199962559Y-105052310D01*
X199817569Y-105264510D01*
X199766560Y-105516400D01*
X199766560Y-105591000D01*
X197904048Y-105591000D01*
X198111645Y-105383765D01*
X198284803Y-104966756D01*
X198285197Y-104515225D01*
X198112767Y-104097914D01*
X197793765Y-103778355D01*
X197376756Y-103605197D01*
X196925225Y-103604803D01*
X196507914Y-103777233D01*
X196354880Y-103930000D01*
X195879977Y-103930000D01*
X195917440Y-103745000D01*
X195917440Y-103145000D01*
X195873162Y-102909683D01*
X195814822Y-102819020D01*
X195905000Y-102601310D01*
X195905000Y-102475113D01*
X196193244Y-102594803D01*
X196644775Y-102595197D01*
X197062086Y-102422767D01*
X197381645Y-102103765D01*
X197554803Y-101686756D01*
X197555197Y-101235225D01*
X197382767Y-100817914D01*
X197205000Y-100639837D01*
X197205000Y-99060000D01*
X197145245Y-98759594D01*
X196975079Y-98504921D01*
X196280079Y-97809921D01*
X196025407Y-97639755D01*
X195873976Y-97609633D01*
X195917440Y-97395000D01*
X195917440Y-96795000D01*
X195873162Y-96559683D01*
X195734090Y-96343559D01*
X195521890Y-96198569D01*
X195276946Y-96148967D01*
X195257072Y-96049051D01*
X195245245Y-95989593D01*
X195075079Y-95734921D01*
X194754979Y-95414821D01*
X194755197Y-95165225D01*
X194582767Y-94747914D01*
X194263765Y-94428355D01*
X193846756Y-94255197D01*
X193395225Y-94254803D01*
X192977914Y-94427233D01*
X192658355Y-94746235D01*
X192485197Y-95163244D01*
X192484803Y-95614775D01*
X192657233Y-96032086D01*
X192976235Y-96351645D01*
X193231864Y-96457792D01*
X193173569Y-96543110D01*
X193122560Y-96795000D01*
X193122560Y-97395000D01*
X193166838Y-97630317D01*
X193230678Y-97729528D01*
X193173569Y-97813110D01*
X193122560Y-98065000D01*
X193122560Y-98665000D01*
X193147962Y-98800000D01*
X192994940Y-98800000D01*
X192995197Y-98505225D01*
X192822767Y-98087914D01*
X192503765Y-97768355D01*
X192086756Y-97595197D01*
X191635225Y-97594803D01*
X191217914Y-97767233D01*
X190898355Y-98086235D01*
X190725197Y-98503244D01*
X190724938Y-98800000D01*
X190345000Y-98800000D01*
X190025460Y-98863560D01*
X189754566Y-99044566D01*
X189119566Y-99679566D01*
X188938561Y-99950459D01*
X188914783Y-100070000D01*
X186590102Y-100070000D01*
X186617440Y-99935000D01*
X186617440Y-99335000D01*
X186573162Y-99099683D01*
X186514822Y-99009020D01*
X186605000Y-98791310D01*
X186605000Y-98650750D01*
X186446250Y-98492000D01*
X185347000Y-98492000D01*
X185347000Y-98512000D01*
X185093000Y-98512000D01*
X185093000Y-98492000D01*
X185073000Y-98492000D01*
X185073000Y-98238000D01*
X185093000Y-98238000D01*
X185093000Y-97222000D01*
X185347000Y-97222000D01*
X185347000Y-98238000D01*
X186446250Y-98238000D01*
X186605000Y-98079250D01*
X186605000Y-97938690D01*
X186518558Y-97730000D01*
X186605000Y-97521310D01*
X186605000Y-97380750D01*
X186446250Y-97222000D01*
X185347000Y-97222000D01*
X185093000Y-97222000D01*
X185073000Y-97222000D01*
X185073000Y-96968000D01*
X185093000Y-96968000D01*
X185093000Y-96318750D01*
X185347000Y-96318750D01*
X185347000Y-96968000D01*
X186446250Y-96968000D01*
X186605000Y-96809250D01*
X186605000Y-96668690D01*
X186508327Y-96435301D01*
X186329698Y-96256673D01*
X186096309Y-96160000D01*
X185505750Y-96160000D01*
X185347000Y-96318750D01*
X185093000Y-96318750D01*
X184934250Y-96160000D01*
X184343691Y-96160000D01*
X184185000Y-96225732D01*
X184185000Y-95315158D01*
X184333939Y-95166219D01*
X184504105Y-94911547D01*
X184563860Y-94611140D01*
X184563860Y-94127730D01*
X186579210Y-94127730D01*
X186814527Y-94083452D01*
X187030651Y-93944380D01*
X187175641Y-93732180D01*
X187226650Y-93480290D01*
X187226650Y-91379710D01*
X187182372Y-91144393D01*
X187043300Y-90928269D01*
X186831100Y-90783279D01*
X186579210Y-90732270D01*
X184516799Y-90732270D01*
X184504105Y-90668453D01*
X184333939Y-90413781D01*
X181715079Y-87794921D01*
X181460407Y-87624755D01*
X181160000Y-87565000D01*
X166815158Y-87565000D01*
X166325000Y-87074842D01*
X166325000Y-86977630D01*
X166375317Y-86968162D01*
X166591441Y-86829090D01*
X166736431Y-86616890D01*
X166787440Y-86365000D01*
X166787440Y-85615000D01*
X166743162Y-85379683D01*
X166625992Y-85197596D01*
X166631441Y-85194090D01*
X166776431Y-84981890D01*
X166827440Y-84730000D01*
X166827440Y-83830000D01*
X166783162Y-83594683D01*
X166644090Y-83378559D01*
X166470573Y-83260000D01*
X170244723Y-83260000D01*
X170168355Y-83336235D01*
X170168355Y-83336235D01*
G37*
X170168355Y-83336235D02*
X169995197Y-83753244D01*
X169994803Y-84204775D01*
X170167233Y-84622086D01*
X170486235Y-84941645D01*
X170903244Y-85114803D01*
X171354775Y-85115197D01*
X171772086Y-84942767D01*
X171920111Y-84795000D01*
X172279243Y-84795000D01*
X172305910Y-84836441D01*
X172465000Y-84945143D01*
X172465000Y-85064844D01*
X172374683Y-85081838D01*
X172158559Y-85220910D01*
X172013569Y-85433110D01*
X171962560Y-85685000D01*
X171962560Y-86435000D01*
X172006838Y-86670317D01*
X172145910Y-86886441D01*
X172358110Y-87031431D01*
X172610000Y-87082440D01*
X173810000Y-87082440D01*
X174045317Y-87038162D01*
X174159978Y-86964380D01*
X174258110Y-87031431D01*
X174510000Y-87082440D01*
X175710000Y-87082440D01*
X175945317Y-87038162D01*
X176161441Y-86899090D01*
X176280392Y-86725000D01*
X181330982Y-86725000D01*
X181405910Y-86841441D01*
X181618110Y-86986431D01*
X181870000Y-87037440D01*
X183070000Y-87037440D01*
X183305317Y-86993162D01*
X183521441Y-86854090D01*
X183569134Y-86784289D01*
X183605910Y-86841441D01*
X183818110Y-86986431D01*
X184070000Y-87037440D01*
X184657282Y-87037440D01*
X189224000Y-91604158D01*
X189224000Y-92025500D01*
X189222071Y-92025500D01*
X188787725Y-92111897D01*
X188419505Y-92357934D01*
X188173468Y-92726154D01*
X188087071Y-93160500D01*
X188173468Y-93594846D01*
X188419505Y-93963066D01*
X188787725Y-94209103D01*
X189222071Y-94295500D01*
X190795929Y-94295500D01*
X191230275Y-94209103D01*
X191598495Y-93963066D01*
X191611440Y-93943691D01*
X200515000Y-93943691D01*
X200515000Y-94084250D01*
X200673750Y-94243000D01*
X201423000Y-94243000D01*
X201423000Y-93593750D01*
X201264250Y-93435000D01*
X201023690Y-93435000D01*
X200790301Y-93531673D01*
X200611673Y-93710302D01*
X200515000Y-93943691D01*
X191611440Y-93943691D01*
X191844532Y-93594846D01*
X191930929Y-93160500D01*
X191844532Y-92726154D01*
X191598495Y-92357934D01*
X191230275Y-92111897D01*
X190795929Y-92025500D01*
X190794000Y-92025500D01*
X190794000Y-91867089D01*
X196524743Y-91867089D01*
X196750344Y-92413086D01*
X197167717Y-92831188D01*
X197713319Y-93057742D01*
X198304089Y-93058257D01*
X198850086Y-92832656D01*
X199268188Y-92415283D01*
X199494742Y-91869681D01*
X199495257Y-91278911D01*
X199269656Y-90732914D01*
X198852283Y-90314812D01*
X198306681Y-90088258D01*
X197715911Y-90087743D01*
X197169914Y-90313344D01*
X196751812Y-90730717D01*
X196525258Y-91276319D01*
X196524743Y-91867089D01*
X190794000Y-91867089D01*
X190794000Y-91279000D01*
X190756405Y-91090000D01*
X190734245Y-90978593D01*
X190564079Y-90723921D01*
X187990453Y-88150295D01*
X189897716Y-88150295D01*
X190146106Y-88751443D01*
X190605637Y-89211778D01*
X191206352Y-89461216D01*
X191856795Y-89461784D01*
X192457943Y-89213394D01*
X192918278Y-88753863D01*
X193167716Y-88153148D01*
X193167834Y-88017000D01*
X196875000Y-88017000D01*
X196875000Y-88767000D01*
X197009998Y-89191678D01*
X197297237Y-89532368D01*
X197708126Y-89734119D01*
X197883000Y-89607954D01*
X197883000Y-88017000D01*
X198137000Y-88017000D01*
X198137000Y-89607954D01*
X198311874Y-89734119D01*
X198722763Y-89532368D01*
X199010002Y-89191678D01*
X199145000Y-88767000D01*
X199145000Y-88017000D01*
X198137000Y-88017000D01*
X197883000Y-88017000D01*
X196875000Y-88017000D01*
X193167834Y-88017000D01*
X193168284Y-87502705D01*
X192965942Y-87013000D01*
X196875000Y-87013000D01*
X196875000Y-87763000D01*
X197883000Y-87763000D01*
X197883000Y-86172046D01*
X198137000Y-86172046D01*
X198137000Y-87763000D01*
X199145000Y-87763000D01*
X199145000Y-87013000D01*
X199010002Y-86588322D01*
X198722763Y-86247632D01*
X198311874Y-86045881D01*
X198137000Y-86172046D01*
X197883000Y-86172046D01*
X197708126Y-86045881D01*
X197297237Y-86247632D01*
X197009998Y-86588322D01*
X196875000Y-87013000D01*
X192965942Y-87013000D01*
X192919894Y-86901557D01*
X192460363Y-86441222D01*
X191859648Y-86191784D01*
X191209205Y-86191216D01*
X190608057Y-86439606D01*
X190147722Y-86899137D01*
X189898284Y-87499852D01*
X189897716Y-88150295D01*
X187990453Y-88150295D01*
X185917440Y-86077282D01*
X185917440Y-85490000D01*
X185873162Y-85254683D01*
X185734090Y-85038559D01*
X185521890Y-84893569D01*
X185270000Y-84842560D01*
X184070000Y-84842560D01*
X183834683Y-84886838D01*
X183618559Y-85025910D01*
X183570866Y-85095711D01*
X183534090Y-85038559D01*
X183321890Y-84893569D01*
X183070000Y-84842560D01*
X181870000Y-84842560D01*
X181634683Y-84886838D01*
X181418559Y-85025910D01*
X181330356Y-85155000D01*
X176059115Y-85155000D01*
X176055000Y-85152188D01*
X176055000Y-84997630D01*
X176105317Y-84988162D01*
X176321441Y-84849090D01*
X176466431Y-84636890D01*
X176517440Y-84385000D01*
X176517440Y-83635000D01*
X176473162Y-83399683D01*
X176383278Y-83260000D01*
X196742559Y-83260000D01*
X196525258Y-83783319D01*
X196524743Y-84374089D01*
X196750344Y-84920086D01*
X197167717Y-85338188D01*
X197713319Y-85564742D01*
X198304089Y-85565257D01*
X198850086Y-85339656D01*
X199268188Y-84922283D01*
X199494742Y-84376681D01*
X199495257Y-83785911D01*
X199277955Y-83260000D01*
X202490000Y-83260000D01*
X202490000Y-93714341D01*
X202488327Y-93710302D01*
X202309699Y-93531673D01*
X202076310Y-93435000D01*
X201835750Y-93435000D01*
X201677000Y-93593750D01*
X201677000Y-94243000D01*
X201697000Y-94243000D01*
X201697000Y-94497000D01*
X201677000Y-94497000D01*
X201677000Y-94517000D01*
X201423000Y-94517000D01*
X201423000Y-94497000D01*
X200673750Y-94497000D01*
X200515000Y-94655750D01*
X200515000Y-94796309D01*
X200611673Y-95029698D01*
X200790301Y-95208327D01*
X200826747Y-95223423D01*
X200698559Y-95305910D01*
X200553569Y-95518110D01*
X200502560Y-95770000D01*
X200502560Y-96370000D01*
X200546838Y-96605317D01*
X200685910Y-96821441D01*
X200730000Y-96851566D01*
X200730000Y-97751330D01*
X200598559Y-97835910D01*
X200453569Y-98048110D01*
X200402560Y-98300000D01*
X200402560Y-99500000D01*
X200446838Y-99735317D01*
X200585910Y-99951441D01*
X200655711Y-99999134D01*
X200598559Y-100035910D01*
X200453569Y-100248110D01*
X200402560Y-100500000D01*
X200402560Y-101700000D01*
X200446838Y-101935317D01*
X200585910Y-102151441D01*
X200767000Y-102275174D01*
X200767000Y-104868960D01*
X200414000Y-104868960D01*
X200178683Y-104913238D01*
X199962559Y-105052310D01*
X199817569Y-105264510D01*
X199766560Y-105516400D01*
X199766560Y-105591000D01*
X197904048Y-105591000D01*
X198111645Y-105383765D01*
X198284803Y-104966756D01*
X198285197Y-104515225D01*
X198112767Y-104097914D01*
X197793765Y-103778355D01*
X197376756Y-103605197D01*
X196925225Y-103604803D01*
X196507914Y-103777233D01*
X196354880Y-103930000D01*
X195879977Y-103930000D01*
X195917440Y-103745000D01*
X195917440Y-103145000D01*
X195873162Y-102909683D01*
X195814822Y-102819020D01*
X195905000Y-102601310D01*
X195905000Y-102475113D01*
X196193244Y-102594803D01*
X196644775Y-102595197D01*
X197062086Y-102422767D01*
X197381645Y-102103765D01*
X197554803Y-101686756D01*
X197555197Y-101235225D01*
X197382767Y-100817914D01*
X197205000Y-100639837D01*
X197205000Y-99060000D01*
X197145245Y-98759594D01*
X196975079Y-98504921D01*
X196280079Y-97809921D01*
X196025407Y-97639755D01*
X195873976Y-97609633D01*
X195917440Y-97395000D01*
X195917440Y-96795000D01*
X195873162Y-96559683D01*
X195734090Y-96343559D01*
X195521890Y-96198569D01*
X195276946Y-96148967D01*
X195257072Y-96049051D01*
X195245245Y-95989593D01*
X195075079Y-95734921D01*
X194754979Y-95414821D01*
X194755197Y-95165225D01*
X194582767Y-94747914D01*
X194263765Y-94428355D01*
X193846756Y-94255197D01*
X193395225Y-94254803D01*
X192977914Y-94427233D01*
X192658355Y-94746235D01*
X192485197Y-95163244D01*
X192484803Y-95614775D01*
X192657233Y-96032086D01*
X192976235Y-96351645D01*
X193231864Y-96457792D01*
X193173569Y-96543110D01*
X193122560Y-96795000D01*
X193122560Y-97395000D01*
X193166838Y-97630317D01*
X193230678Y-97729528D01*
X193173569Y-97813110D01*
X193122560Y-98065000D01*
X193122560Y-98665000D01*
X193147962Y-98800000D01*
X192994940Y-98800000D01*
X192995197Y-98505225D01*
X192822767Y-98087914D01*
X192503765Y-97768355D01*
X192086756Y-97595197D01*
X191635225Y-97594803D01*
X191217914Y-97767233D01*
X190898355Y-98086235D01*
X190725197Y-98503244D01*
X190724938Y-98800000D01*
X190345000Y-98800000D01*
X190025460Y-98863560D01*
X189754566Y-99044566D01*
X189119566Y-99679566D01*
X188938561Y-99950459D01*
X188914783Y-100070000D01*
X186590102Y-100070000D01*
X186617440Y-99935000D01*
X186617440Y-99335000D01*
X186573162Y-99099683D01*
X186514822Y-99009020D01*
X186605000Y-98791310D01*
X186605000Y-98650750D01*
X186446250Y-98492000D01*
X185347000Y-98492000D01*
X185347000Y-98512000D01*
X185093000Y-98512000D01*
X185093000Y-98492000D01*
X185073000Y-98492000D01*
X185073000Y-98238000D01*
X185093000Y-98238000D01*
X185093000Y-97222000D01*
X185347000Y-97222000D01*
X185347000Y-98238000D01*
X186446250Y-98238000D01*
X186605000Y-98079250D01*
X186605000Y-97938690D01*
X186518558Y-97730000D01*
X186605000Y-97521310D01*
X186605000Y-97380750D01*
X186446250Y-97222000D01*
X185347000Y-97222000D01*
X185093000Y-97222000D01*
X185073000Y-97222000D01*
X185073000Y-96968000D01*
X185093000Y-96968000D01*
X185093000Y-96318750D01*
X185347000Y-96318750D01*
X185347000Y-96968000D01*
X186446250Y-96968000D01*
X186605000Y-96809250D01*
X186605000Y-96668690D01*
X186508327Y-96435301D01*
X186329698Y-96256673D01*
X186096309Y-96160000D01*
X185505750Y-96160000D01*
X185347000Y-96318750D01*
X185093000Y-96318750D01*
X184934250Y-96160000D01*
X184343691Y-96160000D01*
X184185000Y-96225732D01*
X184185000Y-95315158D01*
X184333939Y-95166219D01*
X184504105Y-94911547D01*
X184563860Y-94611140D01*
X184563860Y-94127730D01*
X186579210Y-94127730D01*
X186814527Y-94083452D01*
X187030651Y-93944380D01*
X187175641Y-93732180D01*
X187226650Y-93480290D01*
X187226650Y-91379710D01*
X187182372Y-91144393D01*
X187043300Y-90928269D01*
X186831100Y-90783279D01*
X186579210Y-90732270D01*
X184516799Y-90732270D01*
X184504105Y-90668453D01*
X184333939Y-90413781D01*
X181715079Y-87794921D01*
X181460407Y-87624755D01*
X181160000Y-87565000D01*
X166815158Y-87565000D01*
X166325000Y-87074842D01*
X166325000Y-86977630D01*
X166375317Y-86968162D01*
X166591441Y-86829090D01*
X166736431Y-86616890D01*
X166787440Y-86365000D01*
X166787440Y-85615000D01*
X166743162Y-85379683D01*
X166625992Y-85197596D01*
X166631441Y-85194090D01*
X166776431Y-84981890D01*
X166827440Y-84730000D01*
X166827440Y-83830000D01*
X166783162Y-83594683D01*
X166644090Y-83378559D01*
X166470573Y-83260000D01*
X170244723Y-83260000D01*
X170168355Y-83336235D01*
G36*
X173125000Y-104333690D02*
X173125000Y-104624250D01*
X173283750Y-104783000D01*
X174233000Y-104783000D01*
X174233000Y-104763000D01*
X174487000Y-104763000D01*
X174487000Y-104783000D01*
X174507000Y-104783000D01*
X174507000Y-105037000D01*
X174487000Y-105037000D01*
X174487000Y-105057000D01*
X174233000Y-105057000D01*
X174233000Y-105037000D01*
X173283750Y-105037000D01*
X173125000Y-105195750D01*
X173125000Y-105375000D01*
X168714447Y-105375000D01*
X167660261Y-104320814D01*
X173130333Y-104320814D01*
X173125000Y-104333690D01*
X173125000Y-104333690D01*
G37*
X173125000Y-104333690D02*
X173125000Y-104624250D01*
X173283750Y-104783000D01*
X174233000Y-104783000D01*
X174233000Y-104763000D01*
X174487000Y-104763000D01*
X174487000Y-104783000D01*
X174507000Y-104783000D01*
X174507000Y-105037000D01*
X174487000Y-105037000D01*
X174487000Y-105057000D01*
X174233000Y-105057000D01*
X174233000Y-105037000D01*
X173283750Y-105037000D01*
X173125000Y-105195750D01*
X173125000Y-105375000D01*
X168714447Y-105375000D01*
X167660261Y-104320814D01*
X173130333Y-104320814D01*
X173125000Y-104333690D01*
G36*
X162420302Y-83291673D02*
X162241673Y-83470301D01*
X162145000Y-83703690D01*
X162145000Y-83994250D01*
X162303750Y-84153000D01*
X163253000Y-84153000D01*
X163253000Y-84133000D01*
X163507000Y-84133000D01*
X163507000Y-84153000D01*
X163527000Y-84153000D01*
X163527000Y-84407000D01*
X163507000Y-84407000D01*
X163507000Y-84427000D01*
X163253000Y-84427000D01*
X163253000Y-84407000D01*
X162303750Y-84407000D01*
X162145000Y-84565750D01*
X162145000Y-84856310D01*
X162241673Y-85089699D01*
X162420302Y-85268327D01*
X162485151Y-85295188D01*
X162405000Y-85488690D01*
X162405000Y-85704250D01*
X162563750Y-85863000D01*
X163513000Y-85863000D01*
X163513000Y-85843000D01*
X163767000Y-85843000D01*
X163767000Y-85863000D01*
X163787000Y-85863000D01*
X163787000Y-86117000D01*
X163767000Y-86117000D01*
X163767000Y-86841250D01*
X163925750Y-87000000D01*
X164366309Y-87000000D01*
X164599698Y-86903327D01*
X164601068Y-86901957D01*
X164688110Y-86961431D01*
X164755000Y-86974977D01*
X164755000Y-87400000D01*
X164814755Y-87700407D01*
X164984921Y-87955079D01*
X165934921Y-88905079D01*
X166189594Y-89075245D01*
X166490000Y-89135000D01*
X180834842Y-89135000D01*
X182432112Y-90732270D01*
X180978510Y-90732270D01*
X180743193Y-90776548D01*
X180527069Y-90915620D01*
X180382079Y-91127820D01*
X180331070Y-91379710D01*
X180331070Y-93480290D01*
X180375348Y-93715607D01*
X180514420Y-93931731D01*
X180726620Y-94076721D01*
X180978510Y-94127730D01*
X182993860Y-94127730D01*
X182993860Y-94285982D01*
X182844921Y-94434921D01*
X182674755Y-94689593D01*
X182657025Y-94778728D01*
X182615000Y-94990000D01*
X182615000Y-98910000D01*
X182674755Y-99210407D01*
X182844921Y-99465079D01*
X183569921Y-100190079D01*
X183824594Y-100360245D01*
X183870284Y-100369333D01*
X183822560Y-100605000D01*
X183822560Y-101205000D01*
X183866838Y-101440317D01*
X183930678Y-101539528D01*
X183873569Y-101623110D01*
X183822560Y-101875000D01*
X183822560Y-102475000D01*
X183863956Y-102695000D01*
X183269807Y-102695000D01*
X183263162Y-102659683D01*
X183124090Y-102443559D01*
X182911890Y-102298569D01*
X182660000Y-102247560D01*
X181460000Y-102247560D01*
X181224683Y-102291838D01*
X181110022Y-102365620D01*
X181011890Y-102298569D01*
X180760000Y-102247560D01*
X180728021Y-102247560D01*
X180679723Y-102175276D01*
X180004723Y-101500277D01*
X179766272Y-101340949D01*
X179744775Y-101336673D01*
X179485000Y-101285000D01*
X177664757Y-101285000D01*
X177564090Y-101128559D01*
X177351890Y-100983569D01*
X177100000Y-100932560D01*
X175900000Y-100932560D01*
X175664683Y-100976838D01*
X175448559Y-101115910D01*
X175402031Y-101184006D01*
X175259698Y-101041673D01*
X175026309Y-100945000D01*
X174585750Y-100945000D01*
X174427000Y-101103750D01*
X174427000Y-101903000D01*
X174447000Y-101903000D01*
X174447000Y-102157000D01*
X174427000Y-102157000D01*
X174427000Y-102177000D01*
X174173000Y-102177000D01*
X174173000Y-102157000D01*
X173223750Y-102157000D01*
X173065000Y-102315750D01*
X173065000Y-102498412D01*
X167067859Y-102498412D01*
X166023137Y-101453690D01*
X173065000Y-101453690D01*
X173065000Y-101744250D01*
X173223750Y-101903000D01*
X174173000Y-101903000D01*
X174173000Y-101103750D01*
X174014250Y-100945000D01*
X173573691Y-100945000D01*
X173340302Y-101041673D01*
X173161673Y-101220301D01*
X173065000Y-101453690D01*
X166023137Y-101453690D01*
X165025000Y-100455554D01*
X165025000Y-95060000D01*
X164969051Y-94778728D01*
X164958915Y-94763559D01*
X164809724Y-94540277D01*
X163289723Y-93020277D01*
X163051272Y-92860949D01*
X162770000Y-92805000D01*
X148300000Y-92805000D01*
X148018728Y-92860949D01*
X147780277Y-93020277D01*
X147705277Y-93095277D01*
X147545949Y-93333728D01*
X147490000Y-93615000D01*
X147490000Y-94643808D01*
X147391360Y-94707281D01*
X147246890Y-94608569D01*
X146995000Y-94557560D01*
X146095000Y-94557560D01*
X145859683Y-94601838D01*
X145707779Y-94699585D01*
X145581890Y-94613569D01*
X145330000Y-94562560D01*
X144430000Y-94562560D01*
X144194683Y-94606838D01*
X144043973Y-94703817D01*
X143911890Y-94613569D01*
X143660000Y-94562560D01*
X142760000Y-94562560D01*
X142524683Y-94606838D01*
X142308559Y-94745910D01*
X142163569Y-94958110D01*
X142112560Y-95210000D01*
X142112560Y-96410000D01*
X142156838Y-96645317D01*
X142295910Y-96861441D01*
X142365711Y-96909134D01*
X142308559Y-96945910D01*
X142163569Y-97158110D01*
X142112560Y-97410000D01*
X142112560Y-98610000D01*
X142155995Y-98840837D01*
X136030908Y-92715750D01*
X170645790Y-92715750D01*
X170645790Y-93606600D01*
X170742463Y-93839989D01*
X170921092Y-94018617D01*
X171154481Y-94115290D01*
X173795390Y-94115290D01*
X173954140Y-93956540D01*
X173954140Y-92557000D01*
X174208140Y-92557000D01*
X174208140Y-93956540D01*
X174366890Y-94115290D01*
X177007799Y-94115290D01*
X177241188Y-94018617D01*
X177419817Y-93839989D01*
X177516490Y-93606600D01*
X177516490Y-92715750D01*
X177357740Y-92557000D01*
X174208140Y-92557000D01*
X173954140Y-92557000D01*
X170804540Y-92557000D01*
X170645790Y-92715750D01*
X136030908Y-92715750D01*
X134568558Y-91253400D01*
X170645790Y-91253400D01*
X170645790Y-92144250D01*
X170804540Y-92303000D01*
X173954140Y-92303000D01*
X173954140Y-90903460D01*
X174208140Y-90903460D01*
X174208140Y-92303000D01*
X177357740Y-92303000D01*
X177516490Y-92144250D01*
X177516490Y-91253400D01*
X177419817Y-91020011D01*
X177241188Y-90841383D01*
X177007799Y-90744710D01*
X174366890Y-90744710D01*
X174208140Y-90903460D01*
X173954140Y-90903460D01*
X173795390Y-90744710D01*
X171154481Y-90744710D01*
X170921092Y-90841383D01*
X170742463Y-91020011D01*
X170645790Y-91253400D01*
X134568558Y-91253400D01*
X129714000Y-86398842D01*
X129714000Y-86275750D01*
X162405000Y-86275750D01*
X162405000Y-86491310D01*
X162501673Y-86724699D01*
X162680302Y-86903327D01*
X162913691Y-87000000D01*
X163354250Y-87000000D01*
X163513000Y-86841250D01*
X163513000Y-86117000D01*
X162563750Y-86117000D01*
X162405000Y-86275750D01*
X129714000Y-86275750D01*
X129714000Y-86201630D01*
X129764317Y-86192162D01*
X129980441Y-86053090D01*
X130028134Y-85983289D01*
X130064910Y-86040441D01*
X130277110Y-86185431D01*
X130529000Y-86236440D01*
X131729000Y-86236440D01*
X131964317Y-86192162D01*
X132180441Y-86053090D01*
X132224104Y-85989188D01*
X132224910Y-85990441D01*
X132437110Y-86135431D01*
X132689000Y-86186440D01*
X133289000Y-86186440D01*
X133524317Y-86142162D01*
X133740441Y-86003090D01*
X133835990Y-85863250D01*
X133850673Y-85898699D01*
X134029302Y-86077327D01*
X134262691Y-86174000D01*
X134403250Y-86174000D01*
X134562000Y-86015250D01*
X134562000Y-85266000D01*
X134816000Y-85266000D01*
X134816000Y-86015250D01*
X134974750Y-86174000D01*
X135115309Y-86174000D01*
X135348698Y-86077327D01*
X135527327Y-85898699D01*
X135624000Y-85665310D01*
X135624000Y-85424750D01*
X135465250Y-85266000D01*
X134816000Y-85266000D01*
X134562000Y-85266000D01*
X134542000Y-85266000D01*
X134542000Y-85012000D01*
X134562000Y-85012000D01*
X134562000Y-84262750D01*
X134816000Y-84262750D01*
X134816000Y-85012000D01*
X135465250Y-85012000D01*
X135624000Y-84853250D01*
X135624000Y-84612690D01*
X135527327Y-84379301D01*
X135348698Y-84200673D01*
X135115309Y-84104000D01*
X134974750Y-84104000D01*
X134816000Y-84262750D01*
X134562000Y-84262750D01*
X134403250Y-84104000D01*
X134262691Y-84104000D01*
X134029302Y-84200673D01*
X133850673Y-84379301D01*
X133835577Y-84415747D01*
X133753090Y-84287559D01*
X133540890Y-84142569D01*
X133289000Y-84091560D01*
X132689000Y-84091560D01*
X132453683Y-84135838D01*
X132237559Y-84274910D01*
X132227035Y-84290312D01*
X132193090Y-84237559D01*
X131980890Y-84092569D01*
X131729000Y-84041560D01*
X130529000Y-84041560D01*
X130293683Y-84085838D01*
X130077559Y-84224910D01*
X130029866Y-84294711D01*
X129993090Y-84237559D01*
X129780890Y-84092569D01*
X129529000Y-84041560D01*
X128329000Y-84041560D01*
X128093683Y-84085838D01*
X127877559Y-84224910D01*
X127732569Y-84437110D01*
X127681560Y-84689000D01*
X127681560Y-85589000D01*
X127725838Y-85824317D01*
X127864910Y-86040441D01*
X128077110Y-86185431D01*
X128144000Y-86198977D01*
X128144000Y-86724000D01*
X128169855Y-86853979D01*
X127871756Y-86730197D01*
X127420225Y-86729803D01*
X127002914Y-86902233D01*
X126683355Y-87221235D01*
X126583240Y-87462337D01*
X124017440Y-84888948D01*
X124017440Y-84240000D01*
X123973162Y-84004683D01*
X123834090Y-83788559D01*
X123621890Y-83643569D01*
X123370000Y-83592560D01*
X122470000Y-83592560D01*
X122234683Y-83636838D01*
X122018559Y-83775910D01*
X121914777Y-83927801D01*
X121809090Y-83763559D01*
X121596890Y-83618569D01*
X121345000Y-83567560D01*
X120445000Y-83567560D01*
X120209683Y-83611838D01*
X119993559Y-83750910D01*
X119848569Y-83963110D01*
X119835023Y-84030000D01*
X119807630Y-84030000D01*
X119798162Y-83979683D01*
X119659090Y-83763559D01*
X119446890Y-83618569D01*
X119195000Y-83567560D01*
X118295000Y-83567560D01*
X118059683Y-83611838D01*
X117843559Y-83750910D01*
X117698569Y-83963110D01*
X117685023Y-84030000D01*
X117507630Y-84030000D01*
X117498162Y-83979683D01*
X117359090Y-83763559D01*
X117146890Y-83618569D01*
X116895000Y-83567560D01*
X115995000Y-83567560D01*
X115759683Y-83611838D01*
X115543559Y-83750910D01*
X115398569Y-83963110D01*
X115385023Y-84030000D01*
X115132630Y-84030000D01*
X115123162Y-83979683D01*
X114984090Y-83763559D01*
X114771890Y-83618569D01*
X114520000Y-83567560D01*
X113620000Y-83567560D01*
X113384683Y-83611838D01*
X113168559Y-83750910D01*
X113023569Y-83963110D01*
X112984276Y-84157143D01*
X112415405Y-84166628D01*
X112271890Y-84068569D01*
X112020000Y-84017560D01*
X111220000Y-84017560D01*
X110984683Y-84061838D01*
X110768559Y-84200910D01*
X110623569Y-84413110D01*
X110616809Y-84446491D01*
X110558327Y-84305302D01*
X110379699Y-84126673D01*
X110146310Y-84030000D01*
X109905750Y-84030000D01*
X109747000Y-84188750D01*
X109747000Y-84838000D01*
X109767000Y-84838000D01*
X109767000Y-85092000D01*
X109747000Y-85092000D01*
X109747000Y-85112000D01*
X109493000Y-85112000D01*
X109493000Y-85092000D01*
X108743750Y-85092000D01*
X108585000Y-85250750D01*
X108585000Y-85391309D01*
X108681673Y-85624698D01*
X108860301Y-85803327D01*
X108896747Y-85818423D01*
X108878756Y-85830000D01*
X108423222Y-85830000D01*
X108423162Y-85829683D01*
X108349380Y-85715022D01*
X108416431Y-85616890D01*
X108467440Y-85365000D01*
X108467440Y-84538691D01*
X108585000Y-84538691D01*
X108585000Y-84679250D01*
X108743750Y-84838000D01*
X109493000Y-84838000D01*
X109493000Y-84188750D01*
X109334250Y-84030000D01*
X109093690Y-84030000D01*
X108860301Y-84126673D01*
X108681673Y-84305302D01*
X108585000Y-84538691D01*
X108467440Y-84538691D01*
X108467440Y-84165000D01*
X108423162Y-83929683D01*
X108284090Y-83713559D01*
X108071890Y-83568569D01*
X107820000Y-83517560D01*
X107070000Y-83517560D01*
X106834683Y-83561838D01*
X106618559Y-83700910D01*
X106473569Y-83913110D01*
X106470149Y-83930000D01*
X106398222Y-83930000D01*
X106398162Y-83929683D01*
X106259090Y-83713559D01*
X106046890Y-83568569D01*
X105795000Y-83517560D01*
X104895000Y-83517560D01*
X104659683Y-83561838D01*
X104443559Y-83700910D01*
X104298569Y-83913110D01*
X104247560Y-84165000D01*
X104247560Y-85365000D01*
X104291838Y-85600317D01*
X104430910Y-85816441D01*
X104500711Y-85864134D01*
X104443559Y-85900910D01*
X104305441Y-86103052D01*
X102583440Y-86094328D01*
X102583440Y-85849000D01*
X102539162Y-85613683D01*
X102400090Y-85397559D01*
X102237052Y-85286160D01*
X102326385Y-85189818D01*
X102525975Y-84707944D01*
X102406836Y-84452000D01*
X101047000Y-84452000D01*
X101047000Y-84472000D01*
X100793000Y-84472000D01*
X100793000Y-84452000D01*
X100773000Y-84452000D01*
X100773000Y-84198000D01*
X100793000Y-84198000D01*
X100793000Y-84178000D01*
X101047000Y-84178000D01*
X101047000Y-84198000D01*
X102406836Y-84198000D01*
X102525975Y-83942056D01*
X102326385Y-83460182D01*
X102140766Y-83260000D01*
X162496767Y-83260000D01*
X162420302Y-83291673D01*
X162420302Y-83291673D01*
G37*
X162420302Y-83291673D02*
X162241673Y-83470301D01*
X162145000Y-83703690D01*
X162145000Y-83994250D01*
X162303750Y-84153000D01*
X163253000Y-84153000D01*
X163253000Y-84133000D01*
X163507000Y-84133000D01*
X163507000Y-84153000D01*
X163527000Y-84153000D01*
X163527000Y-84407000D01*
X163507000Y-84407000D01*
X163507000Y-84427000D01*
X163253000Y-84427000D01*
X163253000Y-84407000D01*
X162303750Y-84407000D01*
X162145000Y-84565750D01*
X162145000Y-84856310D01*
X162241673Y-85089699D01*
X162420302Y-85268327D01*
X162485151Y-85295188D01*
X162405000Y-85488690D01*
X162405000Y-85704250D01*
X162563750Y-85863000D01*
X163513000Y-85863000D01*
X163513000Y-85843000D01*
X163767000Y-85843000D01*
X163767000Y-85863000D01*
X163787000Y-85863000D01*
X163787000Y-86117000D01*
X163767000Y-86117000D01*
X163767000Y-86841250D01*
X163925750Y-87000000D01*
X164366309Y-87000000D01*
X164599698Y-86903327D01*
X164601068Y-86901957D01*
X164688110Y-86961431D01*
X164755000Y-86974977D01*
X164755000Y-87400000D01*
X164814755Y-87700407D01*
X164984921Y-87955079D01*
X165934921Y-88905079D01*
X166189594Y-89075245D01*
X166490000Y-89135000D01*
X180834842Y-89135000D01*
X182432112Y-90732270D01*
X180978510Y-90732270D01*
X180743193Y-90776548D01*
X180527069Y-90915620D01*
X180382079Y-91127820D01*
X180331070Y-91379710D01*
X180331070Y-93480290D01*
X180375348Y-93715607D01*
X180514420Y-93931731D01*
X180726620Y-94076721D01*
X180978510Y-94127730D01*
X182993860Y-94127730D01*
X182993860Y-94285982D01*
X182844921Y-94434921D01*
X182674755Y-94689593D01*
X182657025Y-94778728D01*
X182615000Y-94990000D01*
X182615000Y-98910000D01*
X182674755Y-99210407D01*
X182844921Y-99465079D01*
X183569921Y-100190079D01*
X183824594Y-100360245D01*
X183870284Y-100369333D01*
X183822560Y-100605000D01*
X183822560Y-101205000D01*
X183866838Y-101440317D01*
X183930678Y-101539528D01*
X183873569Y-101623110D01*
X183822560Y-101875000D01*
X183822560Y-102475000D01*
X183863956Y-102695000D01*
X183269807Y-102695000D01*
X183263162Y-102659683D01*
X183124090Y-102443559D01*
X182911890Y-102298569D01*
X182660000Y-102247560D01*
X181460000Y-102247560D01*
X181224683Y-102291838D01*
X181110022Y-102365620D01*
X181011890Y-102298569D01*
X180760000Y-102247560D01*
X180728021Y-102247560D01*
X180679723Y-102175276D01*
X180004723Y-101500277D01*
X179766272Y-101340949D01*
X179744775Y-101336673D01*
X179485000Y-101285000D01*
X177664757Y-101285000D01*
X177564090Y-101128559D01*
X177351890Y-100983569D01*
X177100000Y-100932560D01*
X175900000Y-100932560D01*
X175664683Y-100976838D01*
X175448559Y-101115910D01*
X175402031Y-101184006D01*
X175259698Y-101041673D01*
X175026309Y-100945000D01*
X174585750Y-100945000D01*
X174427000Y-101103750D01*
X174427000Y-101903000D01*
X174447000Y-101903000D01*
X174447000Y-102157000D01*
X174427000Y-102157000D01*
X174427000Y-102177000D01*
X174173000Y-102177000D01*
X174173000Y-102157000D01*
X173223750Y-102157000D01*
X173065000Y-102315750D01*
X173065000Y-102498412D01*
X167067859Y-102498412D01*
X166023137Y-101453690D01*
X173065000Y-101453690D01*
X173065000Y-101744250D01*
X173223750Y-101903000D01*
X174173000Y-101903000D01*
X174173000Y-101103750D01*
X174014250Y-100945000D01*
X173573691Y-100945000D01*
X173340302Y-101041673D01*
X173161673Y-101220301D01*
X173065000Y-101453690D01*
X166023137Y-101453690D01*
X165025000Y-100455554D01*
X165025000Y-95060000D01*
X164969051Y-94778728D01*
X164958915Y-94763559D01*
X164809724Y-94540277D01*
X163289723Y-93020277D01*
X163051272Y-92860949D01*
X162770000Y-92805000D01*
X148300000Y-92805000D01*
X148018728Y-92860949D01*
X147780277Y-93020277D01*
X147705277Y-93095277D01*
X147545949Y-93333728D01*
X147490000Y-93615000D01*
X147490000Y-94643808D01*
X147391360Y-94707281D01*
X147246890Y-94608569D01*
X146995000Y-94557560D01*
X146095000Y-94557560D01*
X145859683Y-94601838D01*
X145707779Y-94699585D01*
X145581890Y-94613569D01*
X145330000Y-94562560D01*
X144430000Y-94562560D01*
X144194683Y-94606838D01*
X144043973Y-94703817D01*
X143911890Y-94613569D01*
X143660000Y-94562560D01*
X142760000Y-94562560D01*
X142524683Y-94606838D01*
X142308559Y-94745910D01*
X142163569Y-94958110D01*
X142112560Y-95210000D01*
X142112560Y-96410000D01*
X142156838Y-96645317D01*
X142295910Y-96861441D01*
X142365711Y-96909134D01*
X142308559Y-96945910D01*
X142163569Y-97158110D01*
X142112560Y-97410000D01*
X142112560Y-98610000D01*
X142155995Y-98840837D01*
X136030908Y-92715750D01*
X170645790Y-92715750D01*
X170645790Y-93606600D01*
X170742463Y-93839989D01*
X170921092Y-94018617D01*
X171154481Y-94115290D01*
X173795390Y-94115290D01*
X173954140Y-93956540D01*
X173954140Y-92557000D01*
X174208140Y-92557000D01*
X174208140Y-93956540D01*
X174366890Y-94115290D01*
X177007799Y-94115290D01*
X177241188Y-94018617D01*
X177419817Y-93839989D01*
X177516490Y-93606600D01*
X177516490Y-92715750D01*
X177357740Y-92557000D01*
X174208140Y-92557000D01*
X173954140Y-92557000D01*
X170804540Y-92557000D01*
X170645790Y-92715750D01*
X136030908Y-92715750D01*
X134568558Y-91253400D01*
X170645790Y-91253400D01*
X170645790Y-92144250D01*
X170804540Y-92303000D01*
X173954140Y-92303000D01*
X173954140Y-90903460D01*
X174208140Y-90903460D01*
X174208140Y-92303000D01*
X177357740Y-92303000D01*
X177516490Y-92144250D01*
X177516490Y-91253400D01*
X177419817Y-91020011D01*
X177241188Y-90841383D01*
X177007799Y-90744710D01*
X174366890Y-90744710D01*
X174208140Y-90903460D01*
X173954140Y-90903460D01*
X173795390Y-90744710D01*
X171154481Y-90744710D01*
X170921092Y-90841383D01*
X170742463Y-91020011D01*
X170645790Y-91253400D01*
X134568558Y-91253400D01*
X129714000Y-86398842D01*
X129714000Y-86275750D01*
X162405000Y-86275750D01*
X162405000Y-86491310D01*
X162501673Y-86724699D01*
X162680302Y-86903327D01*
X162913691Y-87000000D01*
X163354250Y-87000000D01*
X163513000Y-86841250D01*
X163513000Y-86117000D01*
X162563750Y-86117000D01*
X162405000Y-86275750D01*
X129714000Y-86275750D01*
X129714000Y-86201630D01*
X129764317Y-86192162D01*
X129980441Y-86053090D01*
X130028134Y-85983289D01*
X130064910Y-86040441D01*
X130277110Y-86185431D01*
X130529000Y-86236440D01*
X131729000Y-86236440D01*
X131964317Y-86192162D01*
X132180441Y-86053090D01*
X132224104Y-85989188D01*
X132224910Y-85990441D01*
X132437110Y-86135431D01*
X132689000Y-86186440D01*
X133289000Y-86186440D01*
X133524317Y-86142162D01*
X133740441Y-86003090D01*
X133835990Y-85863250D01*
X133850673Y-85898699D01*
X134029302Y-86077327D01*
X134262691Y-86174000D01*
X134403250Y-86174000D01*
X134562000Y-86015250D01*
X134562000Y-85266000D01*
X134816000Y-85266000D01*
X134816000Y-86015250D01*
X134974750Y-86174000D01*
X135115309Y-86174000D01*
X135348698Y-86077327D01*
X135527327Y-85898699D01*
X135624000Y-85665310D01*
X135624000Y-85424750D01*
X135465250Y-85266000D01*
X134816000Y-85266000D01*
X134562000Y-85266000D01*
X134542000Y-85266000D01*
X134542000Y-85012000D01*
X134562000Y-85012000D01*
X134562000Y-84262750D01*
X134816000Y-84262750D01*
X134816000Y-85012000D01*
X135465250Y-85012000D01*
X135624000Y-84853250D01*
X135624000Y-84612690D01*
X135527327Y-84379301D01*
X135348698Y-84200673D01*
X135115309Y-84104000D01*
X134974750Y-84104000D01*
X134816000Y-84262750D01*
X134562000Y-84262750D01*
X134403250Y-84104000D01*
X134262691Y-84104000D01*
X134029302Y-84200673D01*
X133850673Y-84379301D01*
X133835577Y-84415747D01*
X133753090Y-84287559D01*
X133540890Y-84142569D01*
X133289000Y-84091560D01*
X132689000Y-84091560D01*
X132453683Y-84135838D01*
X132237559Y-84274910D01*
X132227035Y-84290312D01*
X132193090Y-84237559D01*
X131980890Y-84092569D01*
X131729000Y-84041560D01*
X130529000Y-84041560D01*
X130293683Y-84085838D01*
X130077559Y-84224910D01*
X130029866Y-84294711D01*
X129993090Y-84237559D01*
X129780890Y-84092569D01*
X129529000Y-84041560D01*
X128329000Y-84041560D01*
X128093683Y-84085838D01*
X127877559Y-84224910D01*
X127732569Y-84437110D01*
X127681560Y-84689000D01*
X127681560Y-85589000D01*
X127725838Y-85824317D01*
X127864910Y-86040441D01*
X128077110Y-86185431D01*
X128144000Y-86198977D01*
X128144000Y-86724000D01*
X128169855Y-86853979D01*
X127871756Y-86730197D01*
X127420225Y-86729803D01*
X127002914Y-86902233D01*
X126683355Y-87221235D01*
X126583240Y-87462337D01*
X124017440Y-84888948D01*
X124017440Y-84240000D01*
X123973162Y-84004683D01*
X123834090Y-83788559D01*
X123621890Y-83643569D01*
X123370000Y-83592560D01*
X122470000Y-83592560D01*
X122234683Y-83636838D01*
X122018559Y-83775910D01*
X121914777Y-83927801D01*
X121809090Y-83763559D01*
X121596890Y-83618569D01*
X121345000Y-83567560D01*
X120445000Y-83567560D01*
X120209683Y-83611838D01*
X119993559Y-83750910D01*
X119848569Y-83963110D01*
X119835023Y-84030000D01*
X119807630Y-84030000D01*
X119798162Y-83979683D01*
X119659090Y-83763559D01*
X119446890Y-83618569D01*
X119195000Y-83567560D01*
X118295000Y-83567560D01*
X118059683Y-83611838D01*
X117843559Y-83750910D01*
X117698569Y-83963110D01*
X117685023Y-84030000D01*
X117507630Y-84030000D01*
X117498162Y-83979683D01*
X117359090Y-83763559D01*
X117146890Y-83618569D01*
X116895000Y-83567560D01*
X115995000Y-83567560D01*
X115759683Y-83611838D01*
X115543559Y-83750910D01*
X115398569Y-83963110D01*
X115385023Y-84030000D01*
X115132630Y-84030000D01*
X115123162Y-83979683D01*
X114984090Y-83763559D01*
X114771890Y-83618569D01*
X114520000Y-83567560D01*
X113620000Y-83567560D01*
X113384683Y-83611838D01*
X113168559Y-83750910D01*
X113023569Y-83963110D01*
X112984276Y-84157143D01*
X112415405Y-84166628D01*
X112271890Y-84068569D01*
X112020000Y-84017560D01*
X111220000Y-84017560D01*
X110984683Y-84061838D01*
X110768559Y-84200910D01*
X110623569Y-84413110D01*
X110616809Y-84446491D01*
X110558327Y-84305302D01*
X110379699Y-84126673D01*
X110146310Y-84030000D01*
X109905750Y-84030000D01*
X109747000Y-84188750D01*
X109747000Y-84838000D01*
X109767000Y-84838000D01*
X109767000Y-85092000D01*
X109747000Y-85092000D01*
X109747000Y-85112000D01*
X109493000Y-85112000D01*
X109493000Y-85092000D01*
X108743750Y-85092000D01*
X108585000Y-85250750D01*
X108585000Y-85391309D01*
X108681673Y-85624698D01*
X108860301Y-85803327D01*
X108896747Y-85818423D01*
X108878756Y-85830000D01*
X108423222Y-85830000D01*
X108423162Y-85829683D01*
X108349380Y-85715022D01*
X108416431Y-85616890D01*
X108467440Y-85365000D01*
X108467440Y-84538691D01*
X108585000Y-84538691D01*
X108585000Y-84679250D01*
X108743750Y-84838000D01*
X109493000Y-84838000D01*
X109493000Y-84188750D01*
X109334250Y-84030000D01*
X109093690Y-84030000D01*
X108860301Y-84126673D01*
X108681673Y-84305302D01*
X108585000Y-84538691D01*
X108467440Y-84538691D01*
X108467440Y-84165000D01*
X108423162Y-83929683D01*
X108284090Y-83713559D01*
X108071890Y-83568569D01*
X107820000Y-83517560D01*
X107070000Y-83517560D01*
X106834683Y-83561838D01*
X106618559Y-83700910D01*
X106473569Y-83913110D01*
X106470149Y-83930000D01*
X106398222Y-83930000D01*
X106398162Y-83929683D01*
X106259090Y-83713559D01*
X106046890Y-83568569D01*
X105795000Y-83517560D01*
X104895000Y-83517560D01*
X104659683Y-83561838D01*
X104443559Y-83700910D01*
X104298569Y-83913110D01*
X104247560Y-84165000D01*
X104247560Y-85365000D01*
X104291838Y-85600317D01*
X104430910Y-85816441D01*
X104500711Y-85864134D01*
X104443559Y-85900910D01*
X104305441Y-86103052D01*
X102583440Y-86094328D01*
X102583440Y-85849000D01*
X102539162Y-85613683D01*
X102400090Y-85397559D01*
X102237052Y-85286160D01*
X102326385Y-85189818D01*
X102525975Y-84707944D01*
X102406836Y-84452000D01*
X101047000Y-84452000D01*
X101047000Y-84472000D01*
X100793000Y-84472000D01*
X100793000Y-84452000D01*
X100773000Y-84452000D01*
X100773000Y-84198000D01*
X100793000Y-84198000D01*
X100793000Y-84178000D01*
X101047000Y-84178000D01*
X101047000Y-84198000D01*
X102406836Y-84198000D01*
X102525975Y-83942056D01*
X102326385Y-83460182D01*
X102140766Y-83260000D01*
X162496767Y-83260000D01*
X162420302Y-83291673D01*
G36*
X122005910Y-88091441D02*
X122135000Y-88179644D01*
X122135000Y-88669898D01*
X121958355Y-88846235D01*
X121785197Y-89263244D01*
X121784803Y-89714775D01*
X121957233Y-90132086D01*
X122135000Y-90310163D01*
X122135000Y-96294898D01*
X121958355Y-96471235D01*
X121785197Y-96888244D01*
X121784803Y-97339775D01*
X121957233Y-97757086D01*
X122276235Y-98076645D01*
X122693244Y-98249803D01*
X123144775Y-98250197D01*
X123562086Y-98077767D01*
X123881645Y-97758765D01*
X124049007Y-97355714D01*
X124055910Y-97366441D01*
X124268110Y-97511431D01*
X124520000Y-97562440D01*
X125720000Y-97562440D01*
X125955317Y-97518162D01*
X126171441Y-97379090D01*
X126219134Y-97309289D01*
X126255910Y-97366441D01*
X126468110Y-97511431D01*
X126720000Y-97562440D01*
X127920000Y-97562440D01*
X128155317Y-97518162D01*
X128371441Y-97379090D01*
X128459644Y-97250000D01*
X131075029Y-97250000D01*
X131326235Y-97501645D01*
X131743244Y-97674803D01*
X132194775Y-97675197D01*
X132612086Y-97502767D01*
X132931645Y-97183765D01*
X133055451Y-96885609D01*
X135099842Y-98930000D01*
X120465102Y-98930000D01*
X120430000Y-98894837D01*
X120430000Y-92665158D01*
X121450079Y-91645079D01*
X121620245Y-91390407D01*
X121680000Y-91090000D01*
X121680000Y-88154018D01*
X121796441Y-88079090D01*
X121900223Y-87927199D01*
X122005910Y-88091441D01*
X122005910Y-88091441D01*
G37*
X122005910Y-88091441D02*
X122135000Y-88179644D01*
X122135000Y-88669898D01*
X121958355Y-88846235D01*
X121785197Y-89263244D01*
X121784803Y-89714775D01*
X121957233Y-90132086D01*
X122135000Y-90310163D01*
X122135000Y-96294898D01*
X121958355Y-96471235D01*
X121785197Y-96888244D01*
X121784803Y-97339775D01*
X121957233Y-97757086D01*
X122276235Y-98076645D01*
X122693244Y-98249803D01*
X123144775Y-98250197D01*
X123562086Y-98077767D01*
X123881645Y-97758765D01*
X124049007Y-97355714D01*
X124055910Y-97366441D01*
X124268110Y-97511431D01*
X124520000Y-97562440D01*
X125720000Y-97562440D01*
X125955317Y-97518162D01*
X126171441Y-97379090D01*
X126219134Y-97309289D01*
X126255910Y-97366441D01*
X126468110Y-97511431D01*
X126720000Y-97562440D01*
X127920000Y-97562440D01*
X128155317Y-97518162D01*
X128371441Y-97379090D01*
X128459644Y-97250000D01*
X131075029Y-97250000D01*
X131326235Y-97501645D01*
X131743244Y-97674803D01*
X132194775Y-97675197D01*
X132612086Y-97502767D01*
X132931645Y-97183765D01*
X133055451Y-96885609D01*
X135099842Y-98930000D01*
X120465102Y-98930000D01*
X120430000Y-98894837D01*
X120430000Y-92665158D01*
X121450079Y-91645079D01*
X121620245Y-91390407D01*
X121680000Y-91090000D01*
X121680000Y-88154018D01*
X121796441Y-88079090D01*
X121900223Y-87927199D01*
X122005910Y-88091441D01*
G36*
X123707233Y-91707086D02*
X124026235Y-92026645D01*
X124155217Y-92080203D01*
X124098569Y-92163110D01*
X124047560Y-92415000D01*
X124047560Y-93165000D01*
X124091838Y-93400317D01*
X124230910Y-93616441D01*
X124439088Y-93758683D01*
X124335302Y-93801673D01*
X124156673Y-93980301D01*
X124060000Y-94213690D01*
X124060000Y-94429250D01*
X124218750Y-94588000D01*
X125168000Y-94588000D01*
X125168000Y-94568000D01*
X125422000Y-94568000D01*
X125422000Y-94588000D01*
X125442000Y-94588000D01*
X125442000Y-94842000D01*
X125422000Y-94842000D01*
X125422000Y-94862000D01*
X125168000Y-94862000D01*
X125168000Y-94842000D01*
X124218750Y-94842000D01*
X124060000Y-95000750D01*
X124060000Y-95216310D01*
X124156673Y-95449699D01*
X124183757Y-95476782D01*
X124068559Y-95550910D01*
X123923569Y-95763110D01*
X123872560Y-96015000D01*
X123872560Y-96462689D01*
X123705000Y-96294837D01*
X123705000Y-91701682D01*
X123707233Y-91707086D01*
X123707233Y-91707086D01*
G37*
X123707233Y-91707086D02*
X124026235Y-92026645D01*
X124155217Y-92080203D01*
X124098569Y-92163110D01*
X124047560Y-92415000D01*
X124047560Y-93165000D01*
X124091838Y-93400317D01*
X124230910Y-93616441D01*
X124439088Y-93758683D01*
X124335302Y-93801673D01*
X124156673Y-93980301D01*
X124060000Y-94213690D01*
X124060000Y-94429250D01*
X124218750Y-94588000D01*
X125168000Y-94588000D01*
X125168000Y-94568000D01*
X125422000Y-94568000D01*
X125422000Y-94588000D01*
X125442000Y-94588000D01*
X125442000Y-94842000D01*
X125422000Y-94842000D01*
X125422000Y-94862000D01*
X125168000Y-94862000D01*
X125168000Y-94842000D01*
X124218750Y-94842000D01*
X124060000Y-95000750D01*
X124060000Y-95216310D01*
X124156673Y-95449699D01*
X124183757Y-95476782D01*
X124068559Y-95550910D01*
X123923569Y-95763110D01*
X123872560Y-96015000D01*
X123872560Y-96462689D01*
X123705000Y-96294837D01*
X123705000Y-91701682D01*
X123707233Y-91707086D01*
G36*
X131624520Y-95454678D02*
X131327914Y-95577233D01*
X131224968Y-95680000D01*
X128459018Y-95680000D01*
X128384090Y-95563559D01*
X128285840Y-95496428D01*
X128391431Y-95341890D01*
X128442440Y-95090000D01*
X128442440Y-94340000D01*
X128398162Y-94104683D01*
X128259090Y-93888559D01*
X128057388Y-93750742D01*
X128246441Y-93629090D01*
X128391431Y-93416890D01*
X128442440Y-93165000D01*
X128442440Y-92415000D01*
X128409435Y-92239593D01*
X131624520Y-95454678D01*
X131624520Y-95454678D01*
G37*
X131624520Y-95454678D02*
X131327914Y-95577233D01*
X131224968Y-95680000D01*
X128459018Y-95680000D01*
X128384090Y-95563559D01*
X128285840Y-95496428D01*
X128391431Y-95341890D01*
X128442440Y-95090000D01*
X128442440Y-94340000D01*
X128398162Y-94104683D01*
X128259090Y-93888559D01*
X128057388Y-93750742D01*
X128246441Y-93629090D01*
X128391431Y-93416890D01*
X128442440Y-93165000D01*
X128442440Y-92415000D01*
X128409435Y-92239593D01*
X131624520Y-95454678D01*
G36*
X127973562Y-91803720D02*
X127795000Y-91767560D01*
X126595000Y-91767560D01*
X126359683Y-91811838D01*
X126245022Y-91885620D01*
X126146890Y-91818569D01*
X126080000Y-91805023D01*
X126080000Y-91690000D01*
X126020245Y-91389594D01*
X125850079Y-91134921D01*
X125850076Y-91134919D01*
X125804979Y-91089822D01*
X125805197Y-90840225D01*
X125632767Y-90422914D01*
X125313765Y-90103355D01*
X124896756Y-89930197D01*
X124445225Y-89929803D01*
X124027914Y-90102233D01*
X123708355Y-90421235D01*
X123705000Y-90429315D01*
X123705000Y-90310102D01*
X123881645Y-90133765D01*
X124054803Y-89716756D01*
X124055197Y-89265225D01*
X123882767Y-88847914D01*
X123705000Y-88669837D01*
X123705000Y-88179018D01*
X123821441Y-88104090D01*
X123966431Y-87891890D01*
X123979977Y-87825000D01*
X123994842Y-87825000D01*
X127973562Y-91803720D01*
X127973562Y-91803720D01*
G37*
X127973562Y-91803720D02*
X127795000Y-91767560D01*
X126595000Y-91767560D01*
X126359683Y-91811838D01*
X126245022Y-91885620D01*
X126146890Y-91818569D01*
X126080000Y-91805023D01*
X126080000Y-91690000D01*
X126020245Y-91389594D01*
X125850079Y-91134921D01*
X125850076Y-91134919D01*
X125804979Y-91089822D01*
X125805197Y-90840225D01*
X125632767Y-90422914D01*
X125313765Y-90103355D01*
X124896756Y-89930197D01*
X124445225Y-89929803D01*
X124027914Y-90102233D01*
X123708355Y-90421235D01*
X123705000Y-90429315D01*
X123705000Y-90310102D01*
X123881645Y-90133765D01*
X124054803Y-89716756D01*
X124055197Y-89265225D01*
X123882767Y-88847914D01*
X123705000Y-88669837D01*
X123705000Y-88179018D01*
X123821441Y-88104090D01*
X123966431Y-87891890D01*
X123979977Y-87825000D01*
X123994842Y-87825000D01*
X127973562Y-91803720D01*
M02*
