M48
;DRILL file {KiCad 4.0.7} date 08/29/18 22:41:21
;FORMAT={-:-/ absolute / inch / decimal}
FMAT,2
INCH,TZ
T1C0.020
T2C0.028
T3C0.035
T4C0.039
T5C0.039
T6C0.040
%
G90
G05
M72
T1
X4.0815Y-3.5094
X4.1012Y-3.9709
X4.1248Y-3.7319
X4.1248Y-3.7319
X4.1317Y-3.8707
X4.1317Y-3.8707
X4.1356Y-4.3343
X4.1848Y-4.8057
X4.2321Y-3.5065
X4.2321Y-3.5065
X4.2646Y-3.7585
X4.2657Y-3.8744
X4.2734Y-4.3982
X4.2811Y-4.85
X4.3Y-4.6364
X4.3362Y-3.972
X4.3541Y-3.2969
X4.3787Y-3.7614
X4.3945Y-3.4691
X4.4447Y-4.5222
X4.4644Y-4.8057
X4.5122Y-4.85
X4.5431Y-4.0646
X4.5913Y-4.3953
X4.6091Y-4.0173
X4.6317Y-4.975
X4.7104Y-3.9258
X4.7331Y-4.976
X4.7774Y-3.8756
X4.797Y-4.5577
X4.8335Y-4.976
X4.8394Y-3.5232
X4.8394Y-3.8234
X4.8561Y-4.3923
X4.8787Y-3.7545
X4.8817Y-3.6896
X4.9083Y-3.5852
X4.9181Y-3.5341
X4.9339Y-4.975
X4.9801Y-3.8756
X5.0254Y-3.4593
X5.0333Y-4.974
X5.048Y-4.4474
X5.1031Y-3.7624
X5.1287Y-4.5606
X5.1307Y-3.8323
X5.1327Y-4.975
X5.1386Y-4.1423
X5.1957Y-3.8008
X5.2321Y-4.3913
X5.235Y-4.975
X5.3069Y-4.973
X5.3276Y-3.7978
X5.3807Y-4.1423
X5.3886Y-4.535
X5.485Y-4.4474
X5.5372Y-3.5705
X5.5579Y-4.2909
X5.6494Y-4.974
X5.6504Y-5.1364
X5.6846Y-4.411
X5.7114Y-3.5262
X5.7335Y-4.4862
X5.7976Y-4.0827
X5.8098Y-4.3583
X5.8177Y-4.4602
X5.8598Y-3.4356
X5.8626Y-4.2839
X5.8787Y-4.5823
X5.8819Y-4.0154
X5.923Y-4.1955
X5.9496Y-4.3953
X5.9555Y-4.8953
X5.9939Y-4.1974
X6.0008Y-4.7555
X6.0008Y-4.8224
X6.0067Y-4.4671
X6.0138Y-4.0217
X6.0311Y-4.1551
X6.0402Y-4.3569
X6.0402Y-4.8953
X6.0451Y-4.5537
X6.053Y-4.6984
X6.0825Y-4.6669
X6.0844Y-4.1925
X6.0953Y-4.4248
X6.1169Y-4.8598
X6.1386Y-4.9248
X6.1425Y-4.6315
X6.1494Y-5.1344
X6.1563Y-4.5606
X6.239Y-4.974
X6.2555Y-4.3484
X6.2752Y-3.5213
X6.3413Y-4.4331
X6.3983Y-4.6372
X6.4112Y-4.4445
X6.4427Y-4.5695
X6.4705Y-4.1815
X6.4834Y-4.6366
X6.5606Y-3.6482
X6.5756Y-4.5449
X6.6465Y-3.3673
X6.6508Y-3.8756
X6.6661Y-4.1331
X6.6888Y-4.5252
X6.7075Y-4.6492
X6.7374Y-3.3063
X6.7764Y-4.1354
X6.7764Y-4.7398
X6.8309Y-4.7329
X6.8689Y-4.3776
X6.9283Y-4.602
X7.0094Y-3.8803
X7.0293Y-3.4307
X7.1185Y-4.9858
X7.2224Y-4.9894
X7.2837Y-4.5852
X7.298Y-4.4051
X7.3039Y-4.9811
X7.3575Y-4.665
X7.3681Y-3.3102
X7.3752Y-4.538
X7.411Y-4.9886
X7.4697Y-4.2912
X7.4701Y-4.4256
X7.5181Y-4.9925
X7.5508Y-4.078
X7.5535Y-3.887
X7.5756Y-4.4425
X7.5815Y-4.2563
X7.5943Y-4.727
X7.5957Y-3.3386
X7.6228Y-3.7555
X7.6268Y-4.9957
X7.6606Y-3.561
X7.7331Y-3.9945
X7.7425Y-4.9921
X7.7618Y-4.1236
X7.7843Y-4.3067
X7.8409Y-4.9949
X7.8492Y-3.8815
X7.861Y-4.8028
X7.9136Y-3.4341
T2
X4.237Y-3.9709
X4.3736Y-4.1524
X4.4472Y-3.9732
T4
X3.9713Y-3.5531
X3.9713Y-3.6531
X4.1626Y-4.1669
X4.2217Y-4.2988
X4.376Y-4.3492
X4.5075Y-4.2839
X4.563Y-4.1728
T5
X4.2043Y-4.5301
X4.6043Y-4.5301
T6
X3.9732Y-3.3199
X3.9732Y-3.4199
X3.9752Y-3.826
X3.9752Y-3.926
X3.9752Y-4.026
X3.9752Y-4.126
X3.9752Y-4.226
X3.9752Y-4.3665
X3.9752Y-4.4665
X3.9752Y-4.5665
X3.9752Y-4.6665
X3.9752Y-4.7665
X3.9752Y-4.8665
X3.9752Y-4.9665
X3.9752Y-5.0665
X3.9996Y-5.1827
X4.0996Y-5.1827
X4.1996Y-5.1827
X4.2996Y-5.1827
X4.3996Y-5.1827
X4.4996Y-5.1827
X4.5996Y-5.1827
X4.6996Y-5.1827
X4.7996Y-5.1827
X4.8996Y-5.1827
X4.9996Y-5.1827
X5.0996Y-5.1827
X5.1996Y-5.1827
X5.2996Y-5.1827
X5.3996Y-5.1827
X5.4996Y-5.1827
X5.5996Y-5.1827
X5.6996Y-5.1827
X5.7996Y-5.1827
X5.8996Y-5.1827
X5.9996Y-5.1827
X6.0996Y-5.1827
X6.1996Y-5.1827
X6.2996Y-5.1827
X6.3996Y-5.1827
X6.4996Y-5.1827
X6.5996Y-5.1827
X6.6996Y-5.1827
X6.7996Y-5.1827
X6.8996Y-5.1827
X6.9996Y-5.1827
X7.0996Y-5.1827
X7.1996Y-5.1827
X7.2996Y-5.1827
X7.3996Y-5.1827
X7.4996Y-5.1827
X7.5996Y-5.1827
X7.6996Y-5.1827
X7.7996Y-5.1827
X7.8996Y-5.1827
X7.9303Y-4.1882
X7.9303Y-4.2882
X7.9303Y-4.3882
X7.9303Y-4.4882
X7.9303Y-4.5882
X7.9303Y-4.6882
T3
X7.5102Y-3.6677G85X7.4511Y-3.6677
G05
X7.7957Y-3.4307G85X7.7957Y-3.4898
G05
T0
M30
